<svg width="295" height="48" viewBox="0 0 295 48" fill="none" xmlns="http://www.w3.org/2000/svg">
<rect width="295" height="48" rx="10" fill="#F5BB16"/>
<path d="M93.666 29H91.9023V20.6602H88.8672V19.1357H96.708V20.6602H93.666V29ZM97.501 29V21.5215H99.1348V22.6836H99.251C99.3558 22.3099 99.5905 22.0023 99.9551 21.7607C100.324 21.5192 100.748 21.3984 101.227 21.3984C101.532 21.3984 101.767 21.4235 101.931 21.4736V23.0459C101.757 22.9821 101.468 22.9502 101.062 22.9502C100.511 22.9502 100.062 23.1097 99.7158 23.4287C99.3695 23.7432 99.1963 24.1602 99.1963 24.6797V29H97.501ZM105.786 27.79C106.297 27.79 106.723 27.6442 107.064 27.3525C107.406 27.0563 107.577 26.6917 107.577 26.2588V25.6641L105.889 25.7734C104.959 25.8327 104.494 26.1699 104.494 26.7852C104.494 27.0951 104.613 27.3411 104.85 27.5234C105.091 27.7012 105.403 27.79 105.786 27.79ZM105.287 29.123C104.558 29.123 103.963 28.918 103.503 28.5078C103.043 28.0977 102.812 27.5553 102.812 26.8809C102.812 26.2064 103.056 25.6777 103.544 25.2949C104.036 24.9121 104.738 24.6934 105.649 24.6387L107.577 24.5225V23.8936C107.577 23.5244 107.456 23.2419 107.215 23.0459C106.973 22.8499 106.625 22.752 106.169 22.752C105.777 22.752 105.453 22.8203 105.198 22.957C104.943 23.0892 104.777 23.2806 104.699 23.5312H103.1C103.168 22.8704 103.487 22.3464 104.057 21.959C104.631 21.5671 105.362 21.3711 106.251 21.3711C107.208 21.3711 107.946 21.5921 108.466 22.0342C108.99 22.4762 109.252 23.096 109.252 23.8936V29H107.618V27.9746H107.502C107.292 28.3346 106.992 28.6172 106.6 28.8223C106.212 29.0228 105.775 29.123 105.287 29.123ZM105.116 18.835V17.8506C105.412 17.7458 105.75 17.6934 106.128 17.6934C106.629 17.6934 107.033 17.8187 107.338 18.0693C107.643 18.3154 107.796 18.6481 107.796 19.0674C107.796 19.4229 107.675 19.7464 107.434 20.0381C107.192 20.3298 106.866 20.5508 106.456 20.7012L105.861 19.9492C106.085 19.8763 106.265 19.7738 106.401 19.6416C106.538 19.5094 106.606 19.3682 106.606 19.2178C106.606 19.0628 106.54 18.9375 106.408 18.8418C106.276 18.7415 106.103 18.6914 105.889 18.6914C105.583 18.6914 105.326 18.7393 105.116 18.835ZM111.316 29V21.5215H113.005V29H111.316ZM112.157 20.3047C111.852 20.3047 111.601 20.2181 111.405 20.0449C111.209 19.8672 111.111 19.6416 111.111 19.3682C111.111 19.0947 111.209 18.8714 111.405 18.6982C111.601 18.5205 111.852 18.4316 112.157 18.4316C112.467 18.4316 112.718 18.5205 112.909 18.6982C113.105 18.8714 113.203 19.0947 113.203 19.3682C113.203 19.6416 113.105 19.8672 112.909 20.0449C112.718 20.2181 112.467 20.3047 112.157 20.3047ZM118.843 29V21.5215H120.477V22.7178H120.593C120.775 22.2894 121.053 21.959 121.427 21.7266C121.805 21.4896 122.268 21.3711 122.814 21.3711C123.644 21.3711 124.28 21.6126 124.722 22.0957C125.168 22.5788 125.392 23.2669 125.392 24.1602V29H123.696V24.5635C123.696 23.4196 123.193 22.8477 122.186 22.8477C121.68 22.8477 121.279 23.0094 120.982 23.333C120.686 23.6566 120.538 24.0941 120.538 24.6455V29H118.843ZM129.247 26.8877C129.571 27.3024 130.026 27.5098 130.614 27.5098C131.202 27.5098 131.665 27.3001 132.002 26.8809C132.339 26.4616 132.508 25.8942 132.508 25.1787C132.508 24.4632 132.339 23.8958 132.002 23.4766C131.665 23.0527 131.202 22.8408 130.614 22.8408C130.031 22.8408 129.575 23.0505 129.247 23.4697C128.924 23.889 128.762 24.4587 128.762 25.1787C128.762 25.8988 128.924 26.4684 129.247 26.8877ZM130.614 31.8438C129.662 31.8438 128.887 31.6501 128.29 31.2627C127.698 30.8753 127.367 30.3581 127.299 29.7109H129.001C129.056 29.9707 129.227 30.1758 129.514 30.3262C129.805 30.4766 130.181 30.5518 130.642 30.5518C131.22 30.5518 131.672 30.4219 131.995 30.1621C132.319 29.9023 132.48 29.5378 132.48 29.0684V27.6533H132.364C132.15 28.0544 131.845 28.362 131.448 28.5762C131.056 28.7858 130.601 28.8906 130.081 28.8906C129.142 28.8906 128.397 28.5557 127.846 27.8857C127.294 27.2113 127.019 26.3089 127.019 25.1787C127.019 24.0303 127.297 23.1143 127.853 22.4307C128.409 21.7425 129.16 21.3984 130.108 21.3984C130.619 21.3984 131.081 21.5169 131.496 21.7539C131.911 21.9909 132.221 22.3122 132.426 22.7178H132.542V21.5215H134.176V29.0273C134.176 29.8932 133.854 30.5791 133.212 31.085C132.569 31.5908 131.703 31.8438 130.614 31.8438ZM136.329 29V18.6299H137.997V22.7314H138.12C138.298 22.3076 138.583 21.9772 138.975 21.7402C139.367 21.5033 139.838 21.3848 140.39 21.3848C141.196 21.3848 141.825 21.6286 142.276 22.1162C142.732 22.6038 142.96 23.2897 142.96 24.1738V29H141.265V24.5771C141.265 24.012 141.137 23.5859 140.882 23.2988C140.627 23.0072 140.253 22.8613 139.761 22.8613C139.214 22.8613 138.788 23.0254 138.482 23.3535C138.177 23.6771 138.024 24.1123 138.024 24.6592V29H136.329ZM144.99 29V21.5215H146.679V29H144.99ZM145.831 20.3047C145.526 20.3047 145.275 20.2181 145.079 20.0449C144.883 19.8672 144.785 19.6416 144.785 19.3682C144.785 19.0947 144.883 18.8714 145.079 18.6982C145.275 18.5205 145.526 18.4316 145.831 18.4316C146.141 18.4316 146.392 18.5205 146.583 18.6982C146.779 18.8714 146.877 19.0947 146.877 19.3682C146.877 19.6416 146.779 19.8672 146.583 20.0449C146.392 20.2181 146.141 20.3047 145.831 20.3047ZM151.922 22.7178C151.416 22.7178 150.999 22.8841 150.671 23.2168C150.343 23.5495 150.16 23.9893 150.124 24.5361H153.645C153.626 23.9801 153.462 23.5381 153.152 23.21C152.842 22.8818 152.432 22.7178 151.922 22.7178ZM153.658 26.9424H155.265C155.105 27.626 154.729 28.166 154.137 28.5625C153.549 28.9544 152.817 29.1504 151.942 29.1504C150.844 29.1504 149.98 28.8086 149.352 28.125C148.727 27.4368 148.415 26.4912 148.415 25.2881C148.415 24.085 148.729 23.1325 149.358 22.4307C149.987 21.7243 150.844 21.3711 151.929 21.3711C152.995 21.3711 153.829 21.7061 154.431 22.376C155.037 23.0413 155.34 23.9642 155.34 25.1445V25.6914H150.117V25.7803C150.14 26.4046 150.318 26.8991 150.65 27.2637C150.988 27.6237 151.434 27.8037 151.99 27.8037C152.847 27.8037 153.403 27.5166 153.658 26.9424ZM152.811 18.124L154.704 20.5029H153.07L151.983 19.0332H151.867L150.78 20.5029H149.146L151.04 18.124H152.811ZM152.653 31.5977C152.466 31.7891 152.232 31.8848 151.949 31.8848C151.667 31.8848 151.432 31.7891 151.245 31.5977C151.058 31.4108 150.965 31.1784 150.965 30.9004C150.965 30.6178 151.056 30.3809 151.238 30.1895C151.425 30.0026 151.662 29.9092 151.949 29.9092C152.232 29.9092 152.466 30.0026 152.653 30.1895C152.84 30.3809 152.934 30.6178 152.934 30.9004C152.934 31.1784 152.84 31.4108 152.653 31.5977ZM157.042 29V21.5215H158.676V22.7314H158.792C158.951 22.3031 159.214 21.9704 159.578 21.7334C159.943 21.4919 160.373 21.3711 160.87 21.3711C161.376 21.3711 161.807 21.4919 162.162 21.7334C162.518 21.9704 162.775 22.3031 162.935 22.7314H163.051C163.238 22.3167 163.534 21.9863 163.939 21.7402C164.345 21.4941 164.805 21.3711 165.32 21.3711C166.068 21.3711 166.653 21.5921 167.077 22.0342C167.506 22.4762 167.72 23.0846 167.72 23.8594V29H166.031V24.29C166.031 23.3285 165.576 22.8477 164.664 22.8477C164.227 22.8477 163.873 22.9889 163.604 23.2715C163.336 23.554 163.201 23.9118 163.201 24.3447V29H161.554V24.167C161.554 23.7568 161.433 23.4355 161.191 23.2031C160.95 22.9661 160.619 22.8477 160.2 22.8477C159.781 22.8477 159.432 23.0003 159.154 23.3057C158.876 23.611 158.737 23.9938 158.737 24.4541V29H157.042ZM173.462 29V21.5215H175.096V22.7178H175.212C175.394 22.2894 175.672 21.959 176.046 21.7266C176.424 21.4896 176.887 21.3711 177.434 21.3711C178.263 21.3711 178.899 21.6126 179.341 22.0957C179.787 22.5788 180.011 23.2669 180.011 24.1602V29H178.315V24.5635C178.315 23.4196 177.812 22.8477 176.805 22.8477C176.299 22.8477 175.898 23.0094 175.602 23.333C175.305 23.6566 175.157 24.0941 175.157 24.6455V29H173.462ZM183.866 26.8877C184.19 27.3024 184.646 27.5098 185.233 27.5098C185.821 27.5098 186.284 27.3001 186.621 26.8809C186.958 26.4616 187.127 25.8942 187.127 25.1787C187.127 24.4632 186.958 23.8958 186.621 23.4766C186.284 23.0527 185.821 22.8408 185.233 22.8408C184.65 22.8408 184.194 23.0505 183.866 23.4697C183.543 23.889 183.381 24.4587 183.381 25.1787C183.381 25.8988 183.543 26.4684 183.866 26.8877ZM185.233 31.8438C184.281 31.8438 183.506 31.6501 182.909 31.2627C182.317 30.8753 181.986 30.3581 181.918 29.7109H183.62C183.675 29.9707 183.846 30.1758 184.133 30.3262C184.424 30.4766 184.8 30.5518 185.261 30.5518C185.84 30.5518 186.291 30.4219 186.614 30.1621C186.938 29.9023 187.1 29.5378 187.1 29.0684V27.6533H186.983C186.769 28.0544 186.464 28.362 186.067 28.5762C185.675 28.7858 185.22 28.8906 184.7 28.8906C183.761 28.8906 183.016 28.5557 182.465 27.8857C181.913 27.2113 181.638 26.3089 181.638 25.1787C181.638 24.0303 181.916 23.1143 182.472 22.4307C183.028 21.7425 183.78 21.3984 184.728 21.3984C185.238 21.3984 185.701 21.5169 186.115 21.7539C186.53 21.9909 186.84 22.3122 187.045 22.7178H187.161V21.5215H188.795V29.0273C188.795 29.8932 188.474 30.5791 187.831 31.085C187.188 31.5908 186.323 31.8438 185.233 31.8438ZM193.437 27.79C193.947 27.79 194.373 27.6442 194.715 27.3525C195.057 27.0563 195.228 26.6917 195.228 26.2588V25.6641L193.539 25.7734C192.609 25.8327 192.145 26.1699 192.145 26.7852C192.145 27.0951 192.263 27.3411 192.5 27.5234C192.742 27.7012 193.054 27.79 193.437 27.79ZM192.938 29.123C192.208 29.123 191.614 28.918 191.153 28.5078C190.693 28.0977 190.463 27.5553 190.463 26.8809C190.463 26.2064 190.707 25.6777 191.194 25.2949C191.687 24.9121 192.388 24.6934 193.3 24.6387L195.228 24.5225V23.8936C195.228 23.5244 195.107 23.2419 194.865 23.0459C194.624 22.8499 194.275 22.752 193.819 22.752C193.427 22.752 193.104 22.8203 192.849 22.957C192.593 23.0892 192.427 23.2806 192.35 23.5312H190.75C190.818 22.8704 191.137 22.3464 191.707 21.959C192.281 21.5671 193.013 21.3711 193.901 21.3711C194.858 21.3711 195.597 21.5921 196.116 22.0342C196.64 22.4762 196.902 23.096 196.902 23.8936V29H195.269V27.9746H195.152C194.943 28.3346 194.642 28.6172 194.25 28.8223C193.863 29.0228 193.425 29.123 192.938 29.123ZM199.534 31.7139C199.183 31.7139 198.96 31.7048 198.864 31.6865V30.2988C198.951 30.3171 199.106 30.3262 199.329 30.3262C199.689 30.3262 199.974 30.251 200.184 30.1006C200.398 29.9502 200.56 29.7041 200.669 29.3623L200.758 29.0342L198.085 21.5215H199.944L201.694 27.3594H201.811L203.554 21.5215H205.345L202.645 29.2393C202.33 30.1644 201.943 30.807 201.482 31.167C201.027 31.5316 200.377 31.7139 199.534 31.7139Z" fill="white"/>
</svg>
