<svg width="214" height="20" viewBox="0 0 214 20" fill="none" xmlns="http://www.w3.org/2000/svg">
<path d="M5.10645 15C7.20508 15 8.44922 13.9678 8.44922 12.2314C8.44922 10.9258 7.59473 10.0029 6.24805 9.83203V9.72266C7.19824 9.55176 7.9502 8.62207 7.9502 7.59668C7.9502 6.08594 6.84277 5.13574 5.03125 5.13574H1.25781V15H5.10645ZM2.48828 6.22266H4.77148C5.99512 6.22266 6.70605 6.80371 6.70605 7.80859C6.70605 8.85449 5.94727 9.3877 4.45703 9.3877H2.48828V6.22266ZM2.48828 13.9131V10.4473H4.80566C6.37793 10.4473 7.18457 11.0283 7.18457 12.1699C7.18457 13.3115 6.40527 13.9131 4.92188 13.9131H2.48828ZM12.5781 14.0977C11.7236 14.0977 11.0879 13.6602 11.0879 12.9082C11.0879 12.1699 11.5801 11.7803 12.7012 11.7051L14.6836 11.5752V12.252C14.6836 13.3047 13.7881 14.0977 12.5781 14.0977ZM12.3594 15.1299C13.3438 15.1299 14.1504 14.6992 14.6289 13.9131H14.7383V15H15.8594V9.95508C15.8594 8.42383 14.8545 7.50098 13.0566 7.50098C11.4844 7.50098 10.3223 8.28027 10.165 9.46289H11.3545C11.5186 8.88184 12.1338 8.54688 13.0156 8.54688C14.1162 8.54688 14.6836 9.0459 14.6836 9.95508V10.625L12.5576 10.7549C10.8418 10.8574 9.87109 11.6162 9.87109 12.9355C9.87109 14.2822 10.9307 15.1299 12.3594 15.1299ZM13.7471 4.41797H12.3662L10.4385 6.60547H11.8057L13.002 5.19043H13.1113L14.3076 6.60547H15.6748L13.7471 4.41797ZM14.3828 4.2334H15.5449L17.0352 2.19629H15.6816L14.3828 4.2334ZM18.0332 15H19.209V10.4336C19.209 9.39453 19.9541 8.56055 20.918 8.56055C21.8477 8.56055 22.4561 9.12109 22.4561 9.99609V15H23.6318V10.2627C23.6318 9.32617 24.3154 8.56055 25.3408 8.56055C26.3799 8.56055 26.8926 9.09375 26.8926 10.1807V15H28.0684V9.90723C28.0684 8.3623 27.2275 7.50098 25.7236 7.50098C24.7051 7.50098 23.8643 8.01367 23.4678 8.79297H23.3584C23.0166 8.02734 22.3193 7.50098 21.3213 7.50098C20.3369 7.50098 19.5986 7.97266 19.2637 8.79297H19.1543V7.63086H18.0332V15Z" fill="white"/>
<rect x="43.1426" y="2.28564" width="1.71429" height="8.85714" rx="0.857143" fill="white"/>
<path d="M48.447 4.33748C48.7199 3.99 49.2261 3.92683 49.5446 4.23304C50.5375 5.18769 51.2706 6.38608 51.6667 7.71476C52.1391 9.29989 52.1087 10.9925 51.5795 12.5596C51.0503 14.1267 50.0483 15.4913 48.7115 16.4654C47.3748 17.4395 45.7689 17.9754 44.1151 17.9992C42.4612 18.023 40.8406 17.5335 39.4764 16.5982C38.1121 15.6629 37.0714 14.3278 36.4973 12.7766C35.9232 11.2253 35.8441 9.53428 36.2708 7.93622C36.6284 6.5967 37.3268 5.37772 38.2918 4.39491C38.6014 4.07966 39.1092 4.12824 39.392 4.46773C39.6747 4.80722 39.6244 5.30859 39.3228 5.63148C38.6079 6.39686 38.0889 7.32926 37.8166 8.34897C37.4753 9.62742 37.5386 10.9803 37.9978 12.2212C38.4571 13.4622 39.2897 14.5304 40.3811 15.2786C41.4725 16.0268 42.7689 16.4184 44.0921 16.3993C45.4152 16.3803 46.6998 15.9516 47.7692 15.1723C48.8386 14.393 49.6402 13.3014 50.0636 12.0477C50.487 10.794 50.5113 9.43991 50.1333 8.1718C49.8318 7.16035 49.2862 6.24326 48.5496 5.49876C48.2389 5.18468 48.1741 4.68496 48.447 4.33748Z" fill="white"/>
<path d="M62.1084 14.0703C60.7617 14.0703 59.9551 13.0381 59.9551 11.3154C59.9551 9.59961 60.7686 8.56055 62.1084 8.56055C63.4414 8.56055 64.2754 9.62695 64.2754 11.3154C64.2754 13.0176 63.4482 14.0703 62.1084 14.0703ZM66.4082 5.42285H65.4238V4.70508H64.248V5.42285H62.4707V6.27051H64.248V8.79297H64.1455C63.7285 7.98633 62.8604 7.50098 61.835 7.50098C59.9619 7.50098 58.7383 9.00488 58.7383 11.3154C58.7383 13.6328 59.9482 15.1299 61.835 15.1299C62.8535 15.1299 63.7285 14.6445 64.1934 13.8242H64.3027V15H65.4238V6.27051H66.4082V5.42285ZM70.6465 8.54004C71.8154 8.54004 72.5947 9.40137 72.6221 10.707H68.5615C68.6504 9.40137 69.4707 8.54004 70.6465 8.54004ZM72.5879 13.0928C72.2803 13.7422 71.6377 14.0908 70.6875 14.0908C69.4365 14.0908 68.623 13.168 68.5615 11.7119V11.6572H73.8594V11.2061C73.8594 8.91602 72.6494 7.50098 70.6602 7.50098C68.6367 7.50098 67.3379 9.00488 67.3379 11.3223C67.3379 13.6533 68.6162 15.1299 70.6602 15.1299C72.2734 15.1299 73.4082 14.3574 73.7637 13.0928H72.5879ZM71.7129 3.18066C71.8975 3.08496 72.1777 3.02344 72.4854 3.02344C72.875 3.02344 73.1689 3.24219 73.1689 3.53613C73.1689 3.83008 72.8545 4.1377 72.4033 4.26758L72.916 4.94434C73.6611 4.69824 74.1875 4.08301 74.1875 3.4541C74.1875 2.6748 73.5928 2.19629 72.6289 2.19629C72.3008 2.19629 71.9316 2.25098 71.7129 2.33984V3.18066ZM71.3506 4.41797H69.9697L68.042 6.60547H69.4092L70.6055 5.19043H70.7148L71.9111 6.60547H73.2783L71.3506 4.41797ZM83.3203 15.1299C85.1865 15.1299 86.4102 13.6191 86.4102 11.3154C86.4102 8.99805 85.1934 7.50098 83.3203 7.50098C82.3086 7.50098 81.4131 8 81.0098 8.79297H80.9004V4.70508H79.7246V15H80.8457V13.8242H80.9551C81.4199 14.6445 82.2949 15.1299 83.3203 15.1299ZM83.0469 8.56055C84.3936 8.56055 85.1934 9.59277 85.1934 11.3154C85.1934 13.0381 84.3936 14.0703 83.0469 14.0703C81.707 14.0703 80.873 13.0176 80.873 11.3154C80.873 9.61328 81.707 8.56055 83.0469 8.56055ZM90.5254 14.0977C89.6709 14.0977 89.0352 13.6602 89.0352 12.9082C89.0352 12.1699 89.5273 11.7803 90.6484 11.7051L92.6309 11.5752V12.252C92.6309 13.3047 91.7354 14.0977 90.5254 14.0977ZM90.3066 15.1299C91.291 15.1299 92.0977 14.6992 92.5762 13.9131H92.6855V15H93.8066V9.95508C93.8066 8.42383 92.8018 7.50098 91.0039 7.50098C89.4316 7.50098 88.2695 8.28027 88.1123 9.46289H89.3018C89.4658 8.88184 90.0811 8.54688 90.9629 8.54688C92.0635 8.54688 92.6309 9.0459 92.6309 9.95508V10.625L90.5049 10.7549C88.7891 10.8574 87.8184 11.6162 87.8184 12.9355C87.8184 14.2822 88.8779 15.1299 90.3066 15.1299ZM91.6943 4.28125H90.3135L88.3857 6.60547H89.7393L90.9492 5.05371H91.0586L92.2686 6.60547H93.6221L91.6943 4.28125ZM90.8125 17.748C91.2705 17.748 91.6396 17.3789 91.6396 16.9209C91.6396 16.4629 91.2705 16.0938 90.8125 16.0938C90.3545 16.0938 89.9854 16.4629 89.9854 16.9209C89.9854 17.3789 90.3545 17.748 90.8125 17.748ZM96.4727 5.72363V7.63086H95.2832V8.61523H96.4727V13.0859C96.4727 14.4941 97.0811 15.0547 98.5986 15.0547C98.8311 15.0547 99.0566 15.0273 99.2891 14.9863V13.9951C99.0703 14.0156 98.9541 14.0225 98.7422 14.0225C97.9766 14.0225 97.6484 13.6533 97.6484 12.7852V8.61523H99.2891V7.63086H97.6484V5.72363H96.4727ZM105.51 5.72363V7.63086H104.32V8.61523H105.51V13.0859C105.51 14.4941 106.118 15.0547 107.636 15.0547C107.868 15.0547 108.094 15.0273 108.326 14.9863V13.9951C108.107 14.0156 107.991 14.0225 107.779 14.0225C107.014 14.0225 106.686 13.6533 106.686 12.7852V8.61523H108.326V7.63086H106.686V5.72363H105.51ZM110.131 15H111.307V7.63086H110.131V15ZM111.266 6.36621L113.166 4.05566H111.662L109.939 6.36621H111.266ZM113.549 15H114.725V10.6387C114.725 9.34668 115.483 8.56055 116.659 8.56055C117.835 8.56055 118.396 9.18945 118.396 10.5156V15H119.571V10.2285C119.571 8.47852 118.648 7.50098 116.994 7.50098C115.866 7.50098 115.148 7.97949 114.779 8.79297H114.67V7.63086H113.549V15ZM121.793 15H122.969V10.6387C122.969 9.39453 123.693 8.56055 125.013 8.56055C126.127 8.56055 126.715 9.20996 126.715 10.5156V15H127.891V10.2285C127.891 8.49902 126.906 7.50098 125.348 7.50098C124.22 7.50098 123.447 7.97949 123.078 8.79297H122.969V4.70508H121.793V15ZM133.988 15H135.164V10.6387C135.164 9.34668 135.923 8.56055 137.099 8.56055C138.274 8.56055 138.835 9.18945 138.835 10.5156V15H140.011V10.2285C140.011 8.47852 139.088 7.50098 137.434 7.50098C136.306 7.50098 135.588 7.97949 135.219 8.79297H135.109V7.63086H133.988V15ZM144.434 14.0977C143.579 14.0977 142.943 13.6602 142.943 12.9082C142.943 12.1699 143.436 11.7803 144.557 11.7051L146.539 11.5752V12.252C146.539 13.3047 145.644 14.0977 144.434 14.0977ZM144.215 15.1299C145.199 15.1299 146.006 14.6992 146.484 13.9131H146.594V15H147.715V9.95508C147.715 8.42383 146.71 7.50098 144.912 7.50098C143.34 7.50098 142.178 8.28027 142.021 9.46289H143.21C143.374 8.88184 143.989 8.54688 144.871 8.54688C145.972 8.54688 146.539 9.0459 146.539 9.95508V10.625L144.413 10.7549C142.697 10.8574 141.727 11.6162 141.727 12.9355C141.727 14.2822 142.786 15.1299 144.215 15.1299ZM142.41 4.36328C142.41 5.65527 143.34 6.60547 144.898 6.60547C146.457 6.60547 147.387 5.65527 147.387 4.36328H146.334C146.334 5.14941 145.828 5.73047 144.898 5.73047C143.969 5.73047 143.463 5.14941 143.463 4.36328H142.41ZM149.889 15H151.064V10.6387C151.064 9.34668 151.823 8.56055 152.999 8.56055C154.175 8.56055 154.735 9.18945 154.735 10.5156V15H155.911V10.2285C155.911 8.47852 154.988 7.50098 153.334 7.50098C152.206 7.50098 151.488 7.97949 151.119 8.79297H151.01V7.63086H149.889V15ZM161.045 13.8516C159.678 13.8516 158.912 12.8125 158.912 11.2061C158.912 9.59961 159.678 8.56055 161.045 8.56055C162.405 8.56055 163.232 9.59961 163.232 11.2061C163.232 12.8125 162.412 13.8516 161.045 13.8516ZM161.1 17.8301C163.109 17.8301 164.381 16.7773 164.381 15.1299V7.63086H163.26V8.7998H163.15C162.727 8.00684 161.817 7.50098 160.785 7.50098C158.892 7.50098 157.695 8.99805 157.695 11.2061C157.695 13.4141 158.878 14.8906 160.785 14.8906C161.797 14.8906 162.631 14.4326 163.096 13.6191H163.205V15.0684C163.205 16.1553 162.419 16.8047 161.1 16.8047C160.04 16.8047 159.384 16.415 159.254 15.8135H158.01C158.188 17.0303 159.322 17.8301 161.1 17.8301ZM174.211 15.1299C176.077 15.1299 177.301 13.6191 177.301 11.3154C177.301 8.99805 176.084 7.50098 174.211 7.50098C173.199 7.50098 172.304 8 171.9 8.79297H171.791V4.70508H170.615V15H171.736V13.8242H171.846C172.311 14.6445 173.186 15.1299 174.211 15.1299ZM173.938 8.56055C175.284 8.56055 176.084 9.59277 176.084 11.3154C176.084 13.0381 175.284 14.0703 173.938 14.0703C172.598 14.0703 171.764 13.0176 171.764 11.3154C171.764 9.61328 172.598 8.56055 173.938 8.56055ZM181.416 14.0977C180.562 14.0977 179.926 13.6602 179.926 12.9082C179.926 12.1699 180.418 11.7803 181.539 11.7051L183.521 11.5752V12.252C183.521 13.3047 182.626 14.0977 181.416 14.0977ZM181.197 15.1299C182.182 15.1299 182.988 14.6992 183.467 13.9131H183.576V15H184.697V9.95508C184.697 8.42383 183.692 7.50098 181.895 7.50098C180.322 7.50098 179.16 8.28027 179.003 9.46289H180.192C180.356 8.88184 180.972 8.54688 181.854 8.54688C182.954 8.54688 183.521 9.0459 183.521 9.95508V10.625L181.396 10.7549C179.68 10.8574 178.709 11.6162 178.709 12.9355C178.709 14.2822 179.769 15.1299 181.197 15.1299ZM180.917 5.0127C181.102 4.91699 181.382 4.85547 181.689 4.85547C182.079 4.85547 182.373 5.07422 182.373 5.36816C182.373 5.66211 182.059 5.96973 181.607 6.09961L182.12 6.77637C182.865 6.53027 183.392 5.91504 183.392 5.28613C183.392 4.50684 182.797 4.02832 181.833 4.02832C181.505 4.02832 181.136 4.08301 180.917 4.17188V5.0127ZM189.899 15.1299C191.998 15.1299 193.297 13.6807 193.297 11.3154C193.297 8.94336 191.998 7.50098 189.899 7.50098C187.801 7.50098 186.502 8.94336 186.502 11.3154C186.502 13.6807 187.801 15.1299 189.899 15.1299ZM189.899 14.0703C188.505 14.0703 187.719 13.0586 187.719 11.3154C187.719 9.56543 188.505 8.56055 189.899 8.56055C191.294 8.56055 192.08 9.56543 192.08 11.3154C192.08 13.0586 191.294 14.0703 189.899 14.0703ZM205.109 7.63086H203.852L201.835 13.7012H201.726L199.709 7.63086H198.451L201.179 15H202.382L205.109 7.63086ZM209.348 8.54004C210.517 8.54004 211.296 9.40137 211.323 10.707H207.263C207.352 9.40137 208.172 8.54004 209.348 8.54004ZM211.289 13.0928C210.981 13.7422 210.339 14.0908 209.389 14.0908C208.138 14.0908 207.324 13.168 207.263 11.7119V11.6572H212.561V11.2061C212.561 8.91602 211.351 7.50098 209.361 7.50098C207.338 7.50098 206.039 9.00488 206.039 11.3223C206.039 13.6533 207.317 15.1299 209.361 15.1299C210.975 15.1299 212.109 14.3574 212.465 13.0928H211.289ZM210.052 4.28125H208.671L206.743 6.60547H208.097L209.307 5.05371H209.416L210.626 6.60547H211.979L210.052 4.28125ZM209.368 17.748C209.826 17.748 210.195 17.3789 210.195 16.9209C210.195 16.4629 209.826 16.0938 209.368 16.0938C208.91 16.0938 208.541 16.4629 208.541 16.9209C208.541 17.3789 208.91 17.748 209.368 17.748Z" fill="white"/>
</svg>
