<svg width="76" height="75" viewBox="0 0 76 75" fill="none" xmlns="http://www.w3.org/2000/svg">
<path fill-rule="evenodd" clip-rule="evenodd" d="M38 75C58.7107 75 75.5 58.2107 75.5 37.5C75.5 16.7893 58.7107 0 38 0C17.2893 0 0.5 16.7893 0.5 37.5C0.5 58.2107 17.2893 75 38 75Z" fill="#EFEFF4"/>
<path d="M29.851 58.5H31.0131L28.4692 51.4541H27.2924L24.7485 58.5H25.8715L26.5209 56.6299H29.2065L29.851 58.5ZM27.8247 52.7334H27.9077L28.9282 55.7119H26.7993L27.8247 52.7334ZM38.0735 58.5C39.5774 58.5 40.4807 57.7432 40.4807 56.5029C40.4807 55.585 39.8459 54.9062 38.8938 54.8086V54.7256C39.5872 54.6084 40.1292 53.9492 40.1292 53.2119C40.1292 52.1279 39.3333 51.4541 38.01 51.4541H35.178V58.5H38.0735ZM36.2717 52.3818H37.7561C38.5667 52.3818 39.0403 52.7627 39.0403 53.4121C39.0403 54.0811 38.5374 54.4375 37.5706 54.4375H36.2717V52.3818ZM36.2717 57.5723V55.3018H37.7903C38.8206 55.3018 39.3625 55.6875 39.3625 56.4248C39.3625 57.1719 38.8401 57.5723 37.8538 57.5723H36.2717ZM47.712 58.6709C49.2842 58.6709 50.4415 57.7432 50.6368 56.3516H49.5479C49.3526 57.1475 48.6446 57.6504 47.712 57.6504C46.4424 57.6504 45.6514 56.6201 45.6514 54.9795C45.6514 53.334 46.4424 52.3037 47.7071 52.3037C48.6348 52.3037 49.3428 52.8604 49.5479 53.7246H50.6368C50.461 52.2891 49.2598 51.2832 47.7071 51.2832C45.7491 51.2832 44.5333 52.6943 44.5333 54.9795C44.5333 57.2598 45.754 58.6709 47.712 58.6709Z" fill="black"/>
<path d="M29.2031 26.4473V26.4648H32.2617V26.4473C32.2617 23.6172 34.5117 21.4727 37.4824 21.4727C40.2773 21.4727 42.5098 23.4238 42.5098 25.8672C42.5098 27.9766 41.7012 29.3301 38.291 32.916L29.3613 42.3203V44.5H46.0957V41.6875H33.7383V41.6172L40.1543 34.9902C44.3906 30.6133 45.6738 28.5039 45.6738 25.6738C45.6738 21.7891 42.1055 18.7129 37.5703 18.7129C32.7891 18.7129 29.2031 22.0176 29.2031 26.4473Z" fill="black"/>
</svg>
