<svg width="343" height="435" viewBox="0 0 343 435" fill="none" xmlns="http://www.w3.org/2000/svg">
<circle cx="116.5" cy="429.884" r="5" fill="#D9D9D9"/>
<circle cx="142.5" cy="429.884" r="5" fill="#D9D9D9"/>
<circle cx="168.5" cy="429.884" r="5" fill="#D9D9D9"/>
<circle cx="194.5" cy="429.884" r="5" fill="#D9D9D9"/>
<rect x="215.5" y="424.884" width="16" height="9.41177" rx="4.70588" fill="#F5BB16"/>
<rect width="343" height="72" rx="8" fill="#F8F9FB"/>
<path d="M22.25 32.6667V23.5C22.25 23.1685 22.3817 22.8505 22.6161 22.6161C22.8505 22.3817 23.1685 22.25 23.5 22.25H48.5C48.8315 22.25 49.1495 22.3817 49.3839 22.6161C49.6183 22.8505 49.75 23.1685 49.75 23.5V32.6667C49.75 45.7941 38.6084 50.1433 36.3838 50.8808C36.1351 50.9664 35.8649 50.9664 35.6162 50.8808C33.3916 50.1433 22.25 45.7941 22.25 32.6667Z" stroke="#F5BB16" stroke-linecap="round" stroke-linejoin="round"/>
<path d="M42.875 31L33.7083 39.75L29.125 35.375" stroke="#F5BB16" stroke-linecap="round" stroke-linejoin="round"/>
<path d="M77.4346 41H75.6709V32.6602H72.6357V31.1357H80.4766V32.6602H77.4346V41ZM84.3184 41.1504C83.1973 41.1504 82.3177 40.8063 81.6797 40.1182C81.0417 39.4255 80.7227 38.473 80.7227 37.2607C80.7227 36.0576 81.0439 35.1097 81.6865 34.417C82.3291 33.7197 83.2064 33.3711 84.3184 33.3711C85.4349 33.3711 86.3122 33.7174 86.9502 34.4102C87.5928 35.1029 87.9141 36.0531 87.9141 37.2607C87.9141 38.473 87.5928 39.4255 86.9502 40.1182C86.3122 40.8063 85.4349 41.1504 84.3184 41.1504ZM82.9443 39.0859C83.2679 39.5143 83.7259 39.7285 84.3184 39.7285C84.9108 39.7285 85.3665 39.5143 85.6855 39.0859C86.0091 38.653 86.1709 38.0446 86.1709 37.2607C86.1709 36.4814 86.0091 35.8753 85.6855 35.4424C85.362 35.0094 84.9062 34.793 84.3184 34.793C83.7259 34.793 83.2679 35.0094 82.9443 35.4424C82.6208 35.8753 82.459 36.4814 82.459 37.2607C82.459 38.0446 82.6208 38.653 82.9443 39.0859ZM85.2002 30.124L87.0938 32.5029H85.46L84.373 31.0332H84.2568L83.1699 32.5029H81.5361L83.4297 30.124H85.2002ZM89.6436 41V33.5215H91.332V41H89.6436ZM90.4844 32.3047C90.179 32.3047 89.9284 32.2181 89.7324 32.0449C89.5365 31.8672 89.4385 31.6416 89.4385 31.3682C89.4385 31.0947 89.5365 30.8714 89.7324 30.6982C89.9284 30.5205 90.179 30.4316 90.4844 30.4316C90.7943 30.4316 91.0449 30.5205 91.2363 30.6982C91.4323 30.8714 91.5303 31.0947 91.5303 31.3682C91.5303 31.6416 91.4323 31.8672 91.2363 32.0449C91.0449 32.2181 90.7943 32.3047 90.4844 32.3047ZM97.1699 41V33.5215H98.8037V34.7314H98.9199C99.0794 34.3031 99.3415 33.9704 99.7061 33.7334C100.071 33.4919 100.501 33.3711 100.998 33.3711C101.504 33.3711 101.935 33.4919 102.29 33.7334C102.646 33.9704 102.903 34.3031 103.062 34.7314H103.179C103.366 34.3167 103.662 33.9863 104.067 33.7402C104.473 33.4941 104.933 33.3711 105.448 33.3711C106.196 33.3711 106.781 33.5921 107.205 34.0342C107.633 34.4762 107.848 35.0846 107.848 35.8594V41H106.159V36.29C106.159 35.3285 105.703 34.8477 104.792 34.8477C104.354 34.8477 104.001 34.9889 103.732 35.2715C103.464 35.554 103.329 35.9118 103.329 36.3447V41H101.682V36.167C101.682 35.7568 101.561 35.4355 101.319 35.2031C101.078 34.9661 100.747 34.8477 100.328 34.8477C99.9089 34.8477 99.5602 35.0003 99.2822 35.3057C99.0042 35.611 98.8652 35.9938 98.8652 36.4541V41H97.1699ZM116.365 33.5215V41H114.731V39.8105H114.615C114.237 40.7038 113.492 41.1504 112.38 41.1504C111.564 41.1504 110.928 40.9089 110.473 40.4258C110.017 39.9382 109.789 39.2568 109.789 38.3818V33.5215H111.484V37.958C111.484 38.5322 111.605 38.9606 111.847 39.2432C112.088 39.5212 112.462 39.6602 112.968 39.6602C113.515 39.6602 113.934 39.5029 114.226 39.1885C114.522 38.874 114.67 38.4365 114.67 37.876V33.5215H116.365ZM121.67 41.1504C120.549 41.1504 119.669 40.8063 119.031 40.1182C118.393 39.4255 118.074 38.473 118.074 37.2607C118.074 36.0576 118.396 35.1097 119.038 34.417C119.681 33.7197 120.558 33.3711 121.67 33.3711C122.786 33.3711 123.664 33.7174 124.302 34.4102C124.944 35.1029 125.266 36.0531 125.266 37.2607C125.266 38.473 124.944 39.4255 124.302 40.1182C123.664 40.8063 122.786 41.1504 121.67 41.1504ZM120.296 39.0859C120.619 39.5143 121.077 39.7285 121.67 39.7285C122.262 39.7285 122.718 39.5143 123.037 39.0859C123.361 38.653 123.522 38.0446 123.522 37.2607C123.522 36.4814 123.361 35.8753 123.037 35.4424C122.714 35.0094 122.258 34.793 121.67 34.793C121.077 34.793 120.619 35.0094 120.296 35.4424C119.972 35.8753 119.811 36.4814 119.811 37.2607C119.811 38.0446 119.972 38.653 120.296 39.0859ZM122.518 30.1445L124.397 32.4414H122.805L121.731 31.0605H121.608L120.535 32.4414H118.942L120.822 30.1445H122.518ZM123.105 30.0283L124.411 27.8203H126.079L124.527 30.0283H123.105ZM126.975 41V33.5215H128.608V34.7178H128.725C128.907 34.2894 129.185 33.959 129.559 33.7266C129.937 33.4896 130.399 33.3711 130.946 33.3711C131.776 33.3711 132.411 33.6126 132.854 34.0957C133.3 34.5788 133.523 35.2669 133.523 36.1602V41H131.828V36.5635C131.828 35.4196 131.325 34.8477 130.317 34.8477C129.812 34.8477 129.41 35.0094 129.114 35.333C128.818 35.6566 128.67 36.0941 128.67 36.6455V41H126.975ZM143.422 41.123C142.898 41.123 142.431 41.0091 142.021 40.7812C141.61 40.5488 141.298 40.2275 141.084 39.8174H140.968V41H139.334V30.6299H141.029V34.7109H141.146C141.341 34.3053 141.642 33.9863 142.048 33.7539C142.453 33.5169 142.911 33.3984 143.422 33.3984C144.37 33.3984 145.117 33.7448 145.664 34.4375C146.215 35.1257 146.491 36.0667 146.491 37.2607C146.491 38.4502 146.215 39.3913 145.664 40.084C145.113 40.7767 144.365 41.123 143.422 41.123ZM144.249 35.4902C143.921 35.0573 143.467 34.8408 142.889 34.8408C142.31 34.8408 141.85 35.0596 141.508 35.4971C141.171 35.93 141.002 36.5179 141.002 37.2607C141.002 38.0081 141.171 38.5983 141.508 39.0312C141.85 39.4642 142.31 39.6807 142.889 39.6807C143.467 39.6807 143.921 39.4665 144.249 39.0381C144.582 38.6051 144.748 38.0127 144.748 37.2607C144.748 36.5088 144.582 35.9186 144.249 35.4902ZM150.75 39.79C151.26 39.79 151.687 39.6442 152.028 39.3525C152.37 39.0563 152.541 38.6917 152.541 38.2588V37.6641L150.853 37.7734C149.923 37.8327 149.458 38.1699 149.458 38.7852C149.458 39.0951 149.576 39.3411 149.813 39.5234C150.055 39.7012 150.367 39.79 150.75 39.79ZM150.251 41.123C149.522 41.123 148.927 40.918 148.467 40.5078C148.007 40.0977 147.776 39.5553 147.776 38.8809C147.776 38.2064 148.02 37.6777 148.508 37.2949C149 36.9121 149.702 36.6934 150.613 36.6387L152.541 36.5225V35.8936C152.541 35.5244 152.42 35.2419 152.179 35.0459C151.937 34.8499 151.589 34.752 151.133 34.752C150.741 34.752 150.417 34.8203 150.162 34.957C149.907 35.0892 149.741 35.2806 149.663 35.5312H148.063C148.132 34.8704 148.451 34.3464 149.021 33.959C149.595 33.5671 150.326 33.3711 151.215 33.3711C152.172 33.3711 152.91 33.5921 153.43 34.0342C153.954 34.4762 154.216 35.096 154.216 35.8936V41H152.582V39.9746H152.466C152.256 40.3346 151.955 40.6172 151.563 40.8223C151.176 41.0228 150.739 41.123 150.251 41.123ZM150.08 30.835V29.8506C150.376 29.7458 150.714 29.6934 151.092 29.6934C151.593 29.6934 151.996 29.8187 152.302 30.0693C152.607 30.3154 152.76 30.6481 152.76 31.0674C152.76 31.4229 152.639 31.7464 152.397 32.0381C152.156 32.3298 151.83 32.5508 151.42 32.7012L150.825 31.9492C151.049 31.8763 151.229 31.7738 151.365 31.6416C151.502 31.5094 151.57 31.3682 151.57 31.2178C151.57 31.0628 151.504 30.9375 151.372 30.8418C151.24 30.7415 151.067 30.6914 150.853 30.6914C150.547 30.6914 150.29 30.7393 150.08 30.835ZM159.486 41.1504C158.365 41.1504 157.486 40.8063 156.848 40.1182C156.21 39.4255 155.891 38.473 155.891 37.2607C155.891 36.0576 156.212 35.1097 156.854 34.417C157.497 33.7197 158.374 33.3711 159.486 33.3711C160.603 33.3711 161.48 33.7174 162.118 34.4102C162.761 35.1029 163.082 36.0531 163.082 37.2607C163.082 38.473 162.761 39.4255 162.118 40.1182C161.48 40.8063 160.603 41.1504 159.486 41.1504ZM158.112 39.0859C158.436 39.5143 158.894 39.7285 159.486 39.7285C160.079 39.7285 160.535 39.5143 160.854 39.0859C161.177 38.653 161.339 38.0446 161.339 37.2607C161.339 36.4814 161.177 35.8753 160.854 35.4424C160.53 35.0094 160.074 34.793 159.486 34.793C158.894 34.793 158.436 35.0094 158.112 35.4424C157.789 35.8753 157.627 36.4814 157.627 37.2607C157.627 38.0446 157.789 38.653 158.112 39.0859ZM175.045 33.5215L172.399 41H170.533L167.874 33.5215H169.692L171.422 39.3047H171.538L173.254 33.5215H175.045ZM179.317 34.7178C178.812 34.7178 178.395 34.8841 178.066 35.2168C177.738 35.5495 177.556 35.9893 177.52 36.5361H181.04C181.022 35.9801 180.858 35.5381 180.548 35.21C180.238 34.8818 179.828 34.7178 179.317 34.7178ZM181.054 38.9424H182.66C182.501 39.626 182.125 40.166 181.532 40.5625C180.944 40.9544 180.213 41.1504 179.338 41.1504C178.24 41.1504 177.376 40.8086 176.747 40.125C176.123 39.4368 175.811 38.4912 175.811 37.2881C175.811 36.085 176.125 35.1325 176.754 34.4307C177.383 33.7243 178.24 33.3711 179.324 33.3711C180.391 33.3711 181.225 33.7061 181.826 34.376C182.432 35.0413 182.735 35.9642 182.735 37.1445V37.6914H177.513V37.7803C177.535 38.4046 177.713 38.8991 178.046 39.2637C178.383 39.6237 178.83 39.8037 179.386 39.8037C180.243 39.8037 180.799 39.5166 181.054 38.9424ZM180.206 30.124L182.1 32.5029H180.466L179.379 31.0332H179.263L178.176 32.5029H176.542L178.436 30.124H180.206ZM180.049 43.5977C179.862 43.7891 179.627 43.8848 179.345 43.8848C179.062 43.8848 178.827 43.7891 178.641 43.5977C178.454 43.4108 178.36 43.1784 178.36 42.9004C178.36 42.6178 178.451 42.3809 178.634 42.1895C178.821 42.0026 179.058 41.9092 179.345 41.9092C179.627 41.9092 179.862 42.0026 180.049 42.1895C180.236 42.3809 180.329 42.6178 180.329 42.9004C180.329 43.1784 180.236 43.4108 180.049 43.5977ZM188.71 31.6895H190.398V33.5693H191.998V34.9229H190.398V38.5938C190.398 38.9629 190.48 39.234 190.645 39.4072C190.809 39.5758 191.068 39.6602 191.424 39.6602C191.579 39.6602 191.77 39.6488 191.998 39.626V40.9521C191.715 41.0068 191.419 41.0342 191.109 41.0342C190.253 41.0342 189.637 40.877 189.264 40.5625C188.895 40.248 188.71 39.7285 188.71 39.0039V34.9229H187.527V33.5693H188.71V31.6895ZM193.762 41V30.6299H195.43V34.7314H195.553C195.73 34.3076 196.015 33.9772 196.407 33.7402C196.799 33.5033 197.271 33.3848 197.822 33.3848C198.629 33.3848 199.258 33.6286 199.709 34.1162C200.165 34.6038 200.393 35.2897 200.393 36.1738V41H198.697V36.5771C198.697 36.012 198.57 35.5859 198.314 35.2988C198.059 35.0072 197.686 34.8613 197.193 34.8613C196.646 34.8613 196.22 35.0254 195.915 35.3535C195.61 35.6771 195.457 36.1123 195.457 36.6592V41H193.762ZM202.423 41V33.5215H204.111V41H202.423ZM203.264 32.3047C202.958 32.3047 202.708 32.2181 202.512 32.0449C202.316 31.8672 202.218 31.6416 202.218 31.3682C202.218 31.0947 202.316 30.8714 202.512 30.6982C202.708 30.5205 202.958 30.4316 203.264 30.4316C203.574 30.4316 203.824 30.5205 204.016 30.6982C204.212 30.8714 204.31 31.0947 204.31 31.3682C204.31 31.6416 204.212 31.8672 204.016 32.0449C203.824 32.2181 203.574 32.3047 203.264 32.3047ZM209.354 34.7178C208.849 34.7178 208.432 34.8841 208.104 35.2168C207.775 35.5495 207.593 35.9893 207.557 36.5361H211.077C211.059 35.9801 210.895 35.5381 210.585 35.21C210.275 34.8818 209.865 34.7178 209.354 34.7178ZM211.091 38.9424H212.697C212.538 39.626 212.162 40.166 211.569 40.5625C210.981 40.9544 210.25 41.1504 209.375 41.1504C208.277 41.1504 207.413 40.8086 206.784 40.125C206.16 39.4368 205.848 38.4912 205.848 37.2881C205.848 36.085 206.162 35.1325 206.791 34.4307C207.42 33.7243 208.277 33.3711 209.361 33.3711C210.428 33.3711 211.262 33.7061 211.863 34.376C212.469 35.0413 212.772 35.9642 212.772 37.1445V37.6914H207.55V37.7803C207.573 38.4046 207.75 38.8991 208.083 39.2637C208.42 39.6237 208.867 39.8037 209.423 39.8037C210.28 39.8037 210.836 39.5166 211.091 38.9424ZM210.209 30.1445L212.089 32.4414H210.496L209.423 31.0605H209.3L208.227 32.4414H206.634L208.514 30.1445H210.209ZM210.797 30.0283L212.103 27.8203H213.771L212.219 30.0283H210.797ZM215.015 31.6895H216.703V33.5693H218.303V34.9229H216.703V38.5938C216.703 38.9629 216.785 39.234 216.949 39.4072C217.113 39.5758 217.373 39.6602 217.729 39.6602C217.883 39.6602 218.075 39.6488 218.303 39.626V40.9521C218.02 41.0068 217.724 41.0342 217.414 41.0342C216.557 41.0342 215.942 40.877 215.568 40.5625C215.199 40.248 215.015 39.7285 215.015 39.0039V34.9229H213.832V33.5693H215.015V31.6895ZM227.887 41.123C227.363 41.123 226.896 41.0091 226.485 40.7812C226.075 40.5488 225.763 40.2275 225.549 39.8174H225.433V41H223.799V30.6299H225.494V34.7109H225.61C225.806 34.3053 226.107 33.9863 226.513 33.7539C226.918 33.5169 227.376 33.3984 227.887 33.3984C228.835 33.3984 229.582 33.7448 230.129 34.4375C230.68 35.1257 230.956 36.0667 230.956 37.2607C230.956 38.4502 230.68 39.3913 230.129 40.084C229.577 40.7767 228.83 41.123 227.887 41.123ZM228.714 35.4902C228.386 35.0573 227.932 34.8408 227.354 34.8408C226.775 34.8408 226.314 35.0596 225.973 35.4971C225.635 35.93 225.467 36.5179 225.467 37.2607C225.467 38.0081 225.635 38.5983 225.973 39.0312C226.314 39.4642 226.775 39.6807 227.354 39.6807C227.932 39.6807 228.386 39.4665 228.714 39.0381C229.047 38.6051 229.213 38.0127 229.213 37.2607C229.213 36.5088 229.047 35.9186 228.714 35.4902ZM232.679 41V33.5215H234.367V41H232.679ZM233.52 32.3047C233.214 32.3047 232.964 32.2181 232.768 32.0449C232.572 31.8672 232.474 31.6416 232.474 31.3682C232.474 31.0947 232.572 30.8714 232.768 30.6982C232.964 30.5205 233.214 30.4316 233.52 30.4316C233.829 30.4316 234.08 30.5205 234.271 30.6982C234.467 30.8714 234.565 31.0947 234.565 31.3682C234.565 31.6416 234.467 31.8672 234.271 32.0449C234.08 32.2181 233.829 32.3047 233.52 32.3047ZM234.224 43.5977C234.037 43.7891 233.802 43.8848 233.52 43.8848C233.237 43.8848 233.002 43.7891 232.815 43.5977C232.629 43.4108 232.535 43.1784 232.535 42.9004C232.535 42.6178 232.626 42.3809 232.809 42.1895C232.995 42.0026 233.232 41.9092 233.52 41.9092C233.802 41.9092 234.037 42.0026 234.224 42.1895C234.41 42.3809 234.504 42.6178 234.504 42.9004C234.504 43.1784 234.41 43.4108 234.224 43.5977ZM246.665 36.0371H245.052C244.97 35.6589 244.787 35.3581 244.505 35.1348C244.222 34.9069 243.855 34.793 243.404 34.793C242.821 34.793 242.365 35.0072 242.037 35.4355C241.714 35.8639 241.552 36.4655 241.552 37.2402C241.552 38.0241 241.716 38.6348 242.044 39.0723C242.372 39.5098 242.826 39.7285 243.404 39.7285C243.846 39.7285 244.209 39.626 244.491 39.4209C244.778 39.2158 244.965 38.9196 245.052 38.5322H246.665C246.569 39.3298 246.234 39.9655 245.66 40.4395C245.09 40.9134 244.341 41.1504 243.411 41.1504C242.285 41.1504 241.408 40.8063 240.779 40.1182C240.15 39.43 239.836 38.4707 239.836 37.2402C239.836 36.0234 240.15 35.0755 240.779 34.3965C241.408 33.7129 242.283 33.3711 243.404 33.3711C244.343 33.3711 245.097 33.6149 245.667 34.1025C246.241 34.5856 246.574 35.2305 246.665 36.0371ZM254.793 33.5215V41H253.159V39.8105H253.043C252.665 40.7038 251.92 41.1504 250.808 41.1504C249.992 41.1504 249.356 40.9089 248.9 40.4258C248.445 39.9382 248.217 39.2568 248.217 38.3818V33.5215H249.912V37.958C249.912 38.5322 250.033 38.9606 250.274 39.2432C250.516 39.5212 250.89 39.6602 251.396 39.6602C251.942 39.6602 252.362 39.5029 252.653 39.1885C252.95 38.874 253.098 38.4365 253.098 37.876V33.5215H254.793ZM250.37 30.835V29.8506C250.666 29.7458 251.004 29.6934 251.382 29.6934C251.883 29.6934 252.286 29.8187 252.592 30.0693C252.897 30.3154 253.05 30.6481 253.05 31.0674C253.05 31.4229 252.929 31.7464 252.688 32.0381C252.446 32.3298 252.12 32.5508 251.71 32.7012L251.115 31.9492C251.339 31.8763 251.519 31.7738 251.655 31.6416C251.792 31.5094 251.86 31.3682 251.86 31.2178C251.86 31.0628 251.794 30.9375 251.662 30.8418C251.53 30.7415 251.357 30.6914 251.143 30.6914C250.833 30.6914 250.575 30.7393 250.37 30.835ZM259.428 39.79C259.938 39.79 260.364 39.6442 260.706 39.3525C261.048 39.0563 261.219 38.6917 261.219 38.2588V37.6641L259.53 37.7734C258.601 37.8327 258.136 38.1699 258.136 38.7852C258.136 39.0951 258.254 39.3411 258.491 39.5234C258.733 39.7012 259.045 39.79 259.428 39.79ZM258.929 41.123C258.2 41.123 257.605 40.918 257.145 40.5078C256.684 40.0977 256.454 39.5553 256.454 38.8809C256.454 38.2064 256.698 37.6777 257.186 37.2949C257.678 36.9121 258.38 36.6934 259.291 36.6387L261.219 36.5225V35.8936C261.219 35.5244 261.098 35.2419 260.856 35.0459C260.615 34.8499 260.266 34.752 259.811 34.752C259.419 34.752 259.095 34.8203 258.84 34.957C258.585 35.0892 258.418 35.2806 258.341 35.5312H256.741C256.81 34.8704 257.129 34.3464 257.698 33.959C258.272 33.5671 259.004 33.3711 259.893 33.3711C260.85 33.3711 261.588 33.5921 262.107 34.0342C262.632 34.4762 262.894 35.096 262.894 35.8936V41H261.26V39.9746H261.144C260.934 40.3346 260.633 40.6172 260.241 40.8223C259.854 41.0228 259.416 41.123 258.929 41.123ZM269.21 31.6895H270.898V33.5693H272.498V34.9229H270.898V38.5938C270.898 38.9629 270.98 39.234 271.145 39.4072C271.309 39.5758 271.568 39.6602 271.924 39.6602C272.079 39.6602 272.27 39.6488 272.498 39.626V40.9521C272.215 41.0068 271.919 41.0342 271.609 41.0342C270.753 41.0342 270.137 40.877 269.764 40.5625C269.395 40.248 269.21 39.7285 269.21 39.0039V34.9229H268.027V33.5693H269.21V31.6895ZM277.352 41.1504C276.23 41.1504 275.351 40.8063 274.713 40.1182C274.075 39.4255 273.756 38.473 273.756 37.2607C273.756 36.0576 274.077 35.1097 274.72 34.417C275.362 33.7197 276.24 33.3711 277.352 33.3711C278.468 33.3711 279.345 33.7174 279.983 34.4102C280.626 35.1029 280.947 36.0531 280.947 37.2607C280.947 38.473 280.626 39.4255 279.983 40.1182C279.345 40.8063 278.468 41.1504 277.352 41.1504ZM275.978 39.0859C276.301 39.5143 276.759 39.7285 277.352 39.7285C277.944 39.7285 278.4 39.5143 278.719 39.0859C279.042 38.653 279.204 38.0446 279.204 37.2607C279.204 36.4814 279.042 35.8753 278.719 35.4424C278.395 35.0094 277.939 34.793 277.352 34.793C276.759 34.793 276.301 35.0094 275.978 35.4424C275.654 35.8753 275.492 36.4814 275.492 37.2607C275.492 38.0446 275.654 38.653 275.978 39.0859ZM278.233 30.124L280.127 32.5029H278.493L277.406 31.0332H277.29L276.203 32.5029H274.569L276.463 30.124H278.233ZM282.677 41V33.5215H284.365V41H282.677ZM283.518 32.3047C283.212 32.3047 282.962 32.2181 282.766 32.0449C282.57 31.8672 282.472 31.6416 282.472 31.3682C282.472 31.0947 282.57 30.8714 282.766 30.6982C282.962 30.5205 283.212 30.4316 283.518 30.4316C283.827 30.4316 284.078 30.5205 284.27 30.6982C284.465 30.8714 284.563 31.0947 284.563 31.3682C284.563 31.6416 284.465 31.8672 284.27 32.0449C284.078 32.2181 283.827 32.3047 283.518 32.3047Z" fill="black"/>
<rect y="80" width="343" height="72" rx="8" fill="#F8F9FB"/>
<path d="M36 119C37.6569 119 39 117.657 39 116C39 114.343 37.6569 113 36 113C34.3431 113 33 114.343 33 116C33 117.657 34.3431 119 36 119Z" stroke="#F5BB16" stroke-linecap="round" stroke-linejoin="round"/>
<path d="M28.045 123.955C26.9992 122.911 26.1695 121.671 25.6034 120.306C25.0374 118.941 24.746 117.478 24.746 116C24.746 114.522 25.0374 113.059 25.6034 111.694C26.1695 110.329 26.9992 109.089 28.045 108.045" stroke="#F5BB16" stroke-linecap="round" stroke-linejoin="round"/>
<path d="M43.955 108.045C45.0008 109.089 45.8304 110.329 46.3965 111.694C46.9626 113.059 47.254 114.522 47.254 116C47.254 117.478 46.9626 118.941 46.3965 120.306C45.8304 121.671 45.0008 122.911 43.955 123.955" stroke="#F5BB16" stroke-linecap="round" stroke-linejoin="round"/>
<path d="M23.6256 128.374C21.9988 126.75 20.7082 124.822 19.8276 122.698C18.947 120.575 18.4938 118.299 18.4938 116C18.4938 113.701 18.947 111.425 19.8276 109.302C20.7082 107.179 21.9988 105.25 23.6256 103.626" stroke="#F5BB16" stroke-linecap="round" stroke-linejoin="round"/>
<path d="M48.3744 103.626C50.0012 105.25 51.2918 107.179 52.1724 109.302C53.053 111.425 53.5062 113.701 53.5062 116C53.5062 118.299 53.053 120.575 52.1724 122.698C51.2918 124.822 50.0012 126.75 48.3744 128.374" stroke="#F5BB16" stroke-linecap="round" stroke-linejoin="round"/>
<path d="M77.4346 121H75.6709V112.66H72.6357V111.136H80.4766V112.66H77.4346V121ZM84.3184 121.15C83.1973 121.15 82.3177 120.806 81.6797 120.118C81.0417 119.425 80.7227 118.473 80.7227 117.261C80.7227 116.058 81.0439 115.11 81.6865 114.417C82.3291 113.72 83.2064 113.371 84.3184 113.371C85.4349 113.371 86.3122 113.717 86.9502 114.41C87.5928 115.103 87.9141 116.053 87.9141 117.261C87.9141 118.473 87.5928 119.425 86.9502 120.118C86.3122 120.806 85.4349 121.15 84.3184 121.15ZM82.9443 119.086C83.2679 119.514 83.7259 119.729 84.3184 119.729C84.9108 119.729 85.3665 119.514 85.6855 119.086C86.0091 118.653 86.1709 118.045 86.1709 117.261C86.1709 116.481 86.0091 115.875 85.6855 115.442C85.362 115.009 84.9062 114.793 84.3184 114.793C83.7259 114.793 83.2679 115.009 82.9443 115.442C82.6208 115.875 82.459 116.481 82.459 117.261C82.459 118.045 82.6208 118.653 82.9443 119.086ZM85.2002 110.124L87.0938 112.503H85.46L84.373 111.033H84.2568L83.1699 112.503H81.5361L83.4297 110.124H85.2002ZM89.6436 121V113.521H91.332V121H89.6436ZM90.4844 112.305C90.179 112.305 89.9284 112.218 89.7324 112.045C89.5365 111.867 89.4385 111.642 89.4385 111.368C89.4385 111.095 89.5365 110.871 89.7324 110.698C89.9284 110.521 90.179 110.432 90.4844 110.432C90.7943 110.432 91.0449 110.521 91.2363 110.698C91.4323 110.871 91.5303 111.095 91.5303 111.368C91.5303 111.642 91.4323 111.867 91.2363 112.045C91.0449 112.218 90.7943 112.305 90.4844 112.305ZM97.1699 121V113.521H98.8037V114.731H98.9199C99.0794 114.303 99.3415 113.97 99.7061 113.733C100.071 113.492 100.501 113.371 100.998 113.371C101.504 113.371 101.935 113.492 102.29 113.733C102.646 113.97 102.903 114.303 103.062 114.731H103.179C103.366 114.317 103.662 113.986 104.067 113.74C104.473 113.494 104.933 113.371 105.448 113.371C106.196 113.371 106.781 113.592 107.205 114.034C107.633 114.476 107.848 115.085 107.848 115.859V121H106.159V116.29C106.159 115.328 105.703 114.848 104.792 114.848C104.354 114.848 104.001 114.989 103.732 115.271C103.464 115.554 103.329 115.912 103.329 116.345V121H101.682V116.167C101.682 115.757 101.561 115.436 101.319 115.203C101.078 114.966 100.747 114.848 100.328 114.848C99.9089 114.848 99.5602 115 99.2822 115.306C99.0042 115.611 98.8652 115.994 98.8652 116.454V121H97.1699ZM116.365 113.521V121H114.731V119.811H114.615C114.237 120.704 113.492 121.15 112.38 121.15C111.564 121.15 110.928 120.909 110.473 120.426C110.017 119.938 109.789 119.257 109.789 118.382V113.521H111.484V117.958C111.484 118.532 111.605 118.961 111.847 119.243C112.088 119.521 112.462 119.66 112.968 119.66C113.515 119.66 113.934 119.503 114.226 119.188C114.522 118.874 114.67 118.437 114.67 117.876V113.521H116.365ZM121.67 121.15C120.549 121.15 119.669 120.806 119.031 120.118C118.393 119.425 118.074 118.473 118.074 117.261C118.074 116.058 118.396 115.11 119.038 114.417C119.681 113.72 120.558 113.371 121.67 113.371C122.786 113.371 123.664 113.717 124.302 114.41C124.944 115.103 125.266 116.053 125.266 117.261C125.266 118.473 124.944 119.425 124.302 120.118C123.664 120.806 122.786 121.15 121.67 121.15ZM120.296 119.086C120.619 119.514 121.077 119.729 121.67 119.729C122.262 119.729 122.718 119.514 123.037 119.086C123.361 118.653 123.522 118.045 123.522 117.261C123.522 116.481 123.361 115.875 123.037 115.442C122.714 115.009 122.258 114.793 121.67 114.793C121.077 114.793 120.619 115.009 120.296 115.442C119.972 115.875 119.811 116.481 119.811 117.261C119.811 118.045 119.972 118.653 120.296 119.086ZM122.518 110.145L124.397 112.441H122.805L121.731 111.061H121.608L120.535 112.441H118.942L120.822 110.145H122.518ZM123.105 110.028L124.411 107.82H126.079L124.527 110.028H123.105ZM126.975 121V113.521H128.608V114.718H128.725C128.907 114.289 129.185 113.959 129.559 113.727C129.937 113.49 130.399 113.371 130.946 113.371C131.776 113.371 132.411 113.613 132.854 114.096C133.3 114.579 133.523 115.267 133.523 116.16V121H131.828V116.563C131.828 115.42 131.325 114.848 130.317 114.848C129.812 114.848 129.41 115.009 129.114 115.333C128.818 115.657 128.67 116.094 128.67 116.646V121H126.975ZM143.422 121.123C142.898 121.123 142.431 121.009 142.021 120.781C141.61 120.549 141.298 120.228 141.084 119.817H140.968V121H139.334V110.63H141.029V114.711H141.146C141.341 114.305 141.642 113.986 142.048 113.754C142.453 113.517 142.911 113.398 143.422 113.398C144.37 113.398 145.117 113.745 145.664 114.438C146.215 115.126 146.491 116.067 146.491 117.261C146.491 118.45 146.215 119.391 145.664 120.084C145.113 120.777 144.365 121.123 143.422 121.123ZM144.249 115.49C143.921 115.057 143.467 114.841 142.889 114.841C142.31 114.841 141.85 115.06 141.508 115.497C141.171 115.93 141.002 116.518 141.002 117.261C141.002 118.008 141.171 118.598 141.508 119.031C141.85 119.464 142.31 119.681 142.889 119.681C143.467 119.681 143.921 119.466 144.249 119.038C144.582 118.605 144.748 118.013 144.748 117.261C144.748 116.509 144.582 115.919 144.249 115.49ZM150.75 119.79C151.26 119.79 151.687 119.644 152.028 119.353C152.37 119.056 152.541 118.692 152.541 118.259V117.664L150.853 117.773C149.923 117.833 149.458 118.17 149.458 118.785C149.458 119.095 149.576 119.341 149.813 119.523C150.055 119.701 150.367 119.79 150.75 119.79ZM150.251 121.123C149.522 121.123 148.927 120.918 148.467 120.508C148.007 120.098 147.776 119.555 147.776 118.881C147.776 118.206 148.02 117.678 148.508 117.295C149 116.912 149.702 116.693 150.613 116.639L152.541 116.522V115.894C152.541 115.524 152.42 115.242 152.179 115.046C151.937 114.85 151.589 114.752 151.133 114.752C150.741 114.752 150.417 114.82 150.162 114.957C149.907 115.089 149.741 115.281 149.663 115.531H148.063C148.132 114.87 148.451 114.346 149.021 113.959C149.595 113.567 150.326 113.371 151.215 113.371C152.172 113.371 152.91 113.592 153.43 114.034C153.954 114.476 154.216 115.096 154.216 115.894V121H152.582V119.975H152.466C152.256 120.335 151.955 120.617 151.563 120.822C151.176 121.023 150.739 121.123 150.251 121.123ZM150.08 110.835V109.851C150.376 109.746 150.714 109.693 151.092 109.693C151.593 109.693 151.996 109.819 152.302 110.069C152.607 110.315 152.76 110.648 152.76 111.067C152.76 111.423 152.639 111.746 152.397 112.038C152.156 112.33 151.83 112.551 151.42 112.701L150.825 111.949C151.049 111.876 151.229 111.774 151.365 111.642C151.502 111.509 151.57 111.368 151.57 111.218C151.57 111.063 151.504 110.938 151.372 110.842C151.24 110.742 151.067 110.691 150.853 110.691C150.547 110.691 150.29 110.739 150.08 110.835ZM159.486 121.15C158.365 121.15 157.486 120.806 156.848 120.118C156.21 119.425 155.891 118.473 155.891 117.261C155.891 116.058 156.212 115.11 156.854 114.417C157.497 113.72 158.374 113.371 159.486 113.371C160.603 113.371 161.48 113.717 162.118 114.41C162.761 115.103 163.082 116.053 163.082 117.261C163.082 118.473 162.761 119.425 162.118 120.118C161.48 120.806 160.603 121.15 159.486 121.15ZM158.112 119.086C158.436 119.514 158.894 119.729 159.486 119.729C160.079 119.729 160.535 119.514 160.854 119.086C161.177 118.653 161.339 118.045 161.339 117.261C161.339 116.481 161.177 115.875 160.854 115.442C160.53 115.009 160.074 114.793 159.486 114.793C158.894 114.793 158.436 115.009 158.112 115.442C157.789 115.875 157.627 116.481 157.627 117.261C157.627 118.045 157.789 118.653 158.112 119.086ZM175.045 113.521L172.399 121H170.533L167.874 113.521H169.692L171.422 119.305H171.538L173.254 113.521H175.045ZM179.317 114.718C178.812 114.718 178.395 114.884 178.066 115.217C177.738 115.549 177.556 115.989 177.52 116.536H181.04C181.022 115.98 180.858 115.538 180.548 115.21C180.238 114.882 179.828 114.718 179.317 114.718ZM181.054 118.942H182.66C182.501 119.626 182.125 120.166 181.532 120.562C180.944 120.954 180.213 121.15 179.338 121.15C178.24 121.15 177.376 120.809 176.747 120.125C176.123 119.437 175.811 118.491 175.811 117.288C175.811 116.085 176.125 115.132 176.754 114.431C177.383 113.724 178.24 113.371 179.324 113.371C180.391 113.371 181.225 113.706 181.826 114.376C182.432 115.041 182.735 115.964 182.735 117.145V117.691H177.513V117.78C177.535 118.405 177.713 118.899 178.046 119.264C178.383 119.624 178.83 119.804 179.386 119.804C180.243 119.804 180.799 119.517 181.054 118.942ZM180.206 110.124L182.1 112.503H180.466L179.379 111.033H179.263L178.176 112.503H176.542L178.436 110.124H180.206ZM180.049 123.598C179.862 123.789 179.627 123.885 179.345 123.885C179.062 123.885 178.827 123.789 178.641 123.598C178.454 123.411 178.36 123.178 178.36 122.9C178.36 122.618 178.451 122.381 178.634 122.189C178.821 122.003 179.058 121.909 179.345 121.909C179.627 121.909 179.862 122.003 180.049 122.189C180.236 122.381 180.329 122.618 180.329 122.9C180.329 123.178 180.236 123.411 180.049 123.598ZM188.17 121V113.521H189.804V114.731H189.92C190.079 114.303 190.341 113.97 190.706 113.733C191.071 113.492 191.501 113.371 191.998 113.371C192.504 113.371 192.935 113.492 193.29 113.733C193.646 113.97 193.903 114.303 194.062 114.731H194.179C194.366 114.317 194.662 113.986 195.067 113.74C195.473 113.494 195.933 113.371 196.448 113.371C197.196 113.371 197.781 113.592 198.205 114.034C198.633 114.476 198.848 115.085 198.848 115.859V121H197.159V116.29C197.159 115.328 196.703 114.848 195.792 114.848C195.354 114.848 195.001 114.989 194.732 115.271C194.464 115.554 194.329 115.912 194.329 116.345V121H192.682V116.167C192.682 115.757 192.561 115.436 192.319 115.203C192.078 114.966 191.747 114.848 191.328 114.848C190.909 114.848 190.56 115 190.282 115.306C190.004 115.611 189.865 115.994 189.865 116.454V121H188.17ZM203.414 119.79C203.924 119.79 204.351 119.644 204.692 119.353C205.034 119.056 205.205 118.692 205.205 118.259V117.664L203.517 117.773C202.587 117.833 202.122 118.17 202.122 118.785C202.122 119.095 202.241 119.341 202.478 119.523C202.719 119.701 203.031 119.79 203.414 119.79ZM202.915 121.123C202.186 121.123 201.591 120.918 201.131 120.508C200.671 120.098 200.44 119.555 200.44 118.881C200.44 118.206 200.684 117.678 201.172 117.295C201.664 116.912 202.366 116.693 203.277 116.639L205.205 116.522V115.894C205.205 115.524 205.084 115.242 204.843 115.046C204.601 114.85 204.253 114.752 203.797 114.752C203.405 114.752 203.081 114.82 202.826 114.957C202.571 115.089 202.405 115.281 202.327 115.531H200.728C200.796 114.87 201.115 114.346 201.685 113.959C202.259 113.567 202.99 113.371 203.879 113.371C204.836 113.371 205.574 113.592 206.094 114.034C206.618 114.476 206.88 115.096 206.88 115.894V121H205.246V119.975H205.13C204.92 120.335 204.619 120.617 204.228 120.822C203.84 121.023 203.403 121.123 202.915 121.123ZM204.453 123.598C204.266 123.789 204.032 123.885 203.749 123.885C203.466 123.885 203.232 123.789 203.045 123.598C202.858 123.411 202.765 123.178 202.765 122.9C202.765 122.618 202.856 122.381 203.038 122.189C203.225 122.003 203.462 121.909 203.749 121.909C204.032 121.909 204.266 122.003 204.453 122.189C204.64 122.381 204.733 122.618 204.733 122.9C204.733 123.178 204.64 123.411 204.453 123.598ZM208.924 121V113.521H210.558V114.718H210.674C210.856 114.289 211.134 113.959 211.508 113.727C211.886 113.49 212.349 113.371 212.896 113.371C213.725 113.371 214.361 113.613 214.803 114.096C215.249 114.579 215.473 115.267 215.473 116.16V121H213.777V116.563C213.777 115.42 213.274 114.848 212.267 114.848C211.761 114.848 211.36 115.009 211.063 115.333C210.767 115.657 210.619 116.094 210.619 116.646V121H208.924ZM219.328 118.888C219.652 119.302 220.107 119.51 220.695 119.51C221.283 119.51 221.746 119.3 222.083 118.881C222.42 118.462 222.589 117.894 222.589 117.179C222.589 116.463 222.42 115.896 222.083 115.477C221.746 115.053 221.283 114.841 220.695 114.841C220.112 114.841 219.656 115.05 219.328 115.47C219.005 115.889 218.843 116.459 218.843 117.179C218.843 117.899 219.005 118.468 219.328 118.888ZM220.695 123.844C219.743 123.844 218.968 123.65 218.371 123.263C217.779 122.875 217.448 122.358 217.38 121.711H219.082C219.137 121.971 219.308 122.176 219.595 122.326C219.886 122.477 220.262 122.552 220.723 122.552C221.301 122.552 221.753 122.422 222.076 122.162C222.4 121.902 222.562 121.538 222.562 121.068V119.653H222.445C222.231 120.054 221.926 120.362 221.529 120.576C221.137 120.786 220.682 120.891 220.162 120.891C219.223 120.891 218.478 120.556 217.927 119.886C217.375 119.211 217.1 118.309 217.1 117.179C217.1 116.03 217.378 115.114 217.934 114.431C218.49 113.743 219.242 113.398 220.189 113.398C220.7 113.398 221.162 113.517 221.577 113.754C221.992 113.991 222.302 114.312 222.507 114.718H222.623V113.521H224.257V121.027C224.257 121.893 223.936 122.579 223.293 123.085C222.65 123.591 221.785 123.844 220.695 123.844ZM236.534 116.037H234.921C234.839 115.659 234.657 115.358 234.374 115.135C234.091 114.907 233.725 114.793 233.273 114.793C232.69 114.793 232.234 115.007 231.906 115.436C231.583 115.864 231.421 116.465 231.421 117.24C231.421 118.024 231.585 118.635 231.913 119.072C232.241 119.51 232.695 119.729 233.273 119.729C233.715 119.729 234.078 119.626 234.36 119.421C234.647 119.216 234.834 118.92 234.921 118.532H236.534C236.438 119.33 236.104 119.965 235.529 120.439C234.96 120.913 234.21 121.15 233.28 121.15C232.155 121.15 231.277 120.806 230.648 120.118C230.02 119.43 229.705 118.471 229.705 117.24C229.705 116.023 230.02 115.076 230.648 114.396C231.277 113.713 232.152 113.371 233.273 113.371C234.212 113.371 234.966 113.615 235.536 114.103C236.11 114.586 236.443 115.23 236.534 116.037ZM238.223 121V110.63H239.891V114.731H240.014C240.191 114.308 240.476 113.977 240.868 113.74C241.26 113.503 241.732 113.385 242.283 113.385C243.09 113.385 243.719 113.629 244.17 114.116C244.626 114.604 244.854 115.29 244.854 116.174V121H243.158V116.577C243.158 116.012 243.031 115.586 242.775 115.299C242.52 115.007 242.146 114.861 241.654 114.861C241.107 114.861 240.681 115.025 240.376 115.354C240.071 115.677 239.918 116.112 239.918 116.659V121H238.223ZM250.09 121.15C248.969 121.15 248.089 120.806 247.451 120.118C246.813 119.425 246.494 118.473 246.494 117.261C246.494 116.058 246.815 115.11 247.458 114.417C248.101 113.72 248.978 113.371 250.09 113.371C251.206 113.371 252.084 113.717 252.722 114.41C253.364 115.103 253.686 116.053 253.686 117.261C253.686 118.473 253.364 119.425 252.722 120.118C252.084 120.806 251.206 121.15 250.09 121.15ZM248.716 119.086C249.039 119.514 249.497 119.729 250.09 119.729C250.682 119.729 251.138 119.514 251.457 119.086C251.781 118.653 251.942 118.045 251.942 117.261C251.942 116.481 251.781 115.875 251.457 115.442C251.133 115.009 250.678 114.793 250.09 114.793C249.497 114.793 249.039 115.009 248.716 115.442C248.392 115.875 248.23 116.481 248.23 117.261C248.23 118.045 248.392 118.653 248.716 119.086ZM260.973 118.888C261.296 119.302 261.752 119.51 262.34 119.51C262.928 119.51 263.39 119.3 263.728 118.881C264.065 118.462 264.233 117.894 264.233 117.179C264.233 116.463 264.065 115.896 263.728 115.477C263.39 115.053 262.928 114.841 262.34 114.841C261.757 114.841 261.301 115.05 260.973 115.47C260.649 115.889 260.487 116.459 260.487 117.179C260.487 117.899 260.649 118.468 260.973 118.888ZM262.34 123.844C261.387 123.844 260.613 123.65 260.016 123.263C259.423 122.875 259.093 122.358 259.024 121.711H260.727C260.781 121.971 260.952 122.176 261.239 122.326C261.531 122.477 261.907 122.552 262.367 122.552C262.946 122.552 263.397 122.422 263.721 122.162C264.044 121.902 264.206 121.538 264.206 121.068V119.653H264.09C263.876 120.054 263.57 120.362 263.174 120.576C262.782 120.786 262.326 120.891 261.807 120.891C260.868 120.891 260.123 120.556 259.571 119.886C259.02 119.211 258.744 118.309 258.744 117.179C258.744 116.03 259.022 115.114 259.578 114.431C260.134 113.743 260.886 113.398 261.834 113.398C262.344 113.398 262.807 113.517 263.222 113.754C263.636 113.991 263.946 114.312 264.151 114.718H264.268V113.521H265.901V121.027C265.901 121.893 265.58 122.579 264.938 123.085C264.295 123.591 263.429 123.844 262.34 123.844ZM268.007 121V113.521H269.695V121H268.007ZM268.848 112.305C268.542 112.305 268.292 112.218 268.096 112.045C267.9 111.867 267.802 111.642 267.802 111.368C267.802 111.095 267.9 110.871 268.096 110.698C268.292 110.521 268.542 110.432 268.848 110.432C269.158 110.432 269.408 110.521 269.6 110.698C269.796 110.871 269.894 111.095 269.894 111.368C269.894 111.642 269.796 111.867 269.6 112.045C269.408 112.218 269.158 112.305 268.848 112.305ZM274.357 119.79C274.868 119.79 275.294 119.644 275.636 119.353C275.978 119.056 276.148 118.692 276.148 118.259V117.664L274.46 117.773C273.53 117.833 273.065 118.17 273.065 118.785C273.065 119.095 273.184 119.341 273.421 119.523C273.662 119.701 273.975 119.79 274.357 119.79ZM273.858 121.123C273.129 121.123 272.535 120.918 272.074 120.508C271.614 120.098 271.384 119.555 271.384 118.881C271.384 118.206 271.628 117.678 272.115 117.295C272.607 116.912 273.309 116.693 274.221 116.639L276.148 116.522V115.894C276.148 115.524 276.028 115.242 275.786 115.046C275.545 114.85 275.196 114.752 274.74 114.752C274.348 114.752 274.025 114.82 273.77 114.957C273.514 115.089 273.348 115.281 273.271 115.531H271.671C271.739 114.87 272.058 114.346 272.628 113.959C273.202 113.567 273.934 113.371 274.822 113.371C275.779 113.371 276.518 113.592 277.037 114.034C277.561 114.476 277.823 115.096 277.823 115.894V121H276.189V119.975H276.073C275.864 120.335 275.563 120.617 275.171 120.822C274.784 121.023 274.346 121.123 273.858 121.123ZM285.514 119.038C285.846 119.466 286.304 119.681 286.888 119.681C287.471 119.681 287.929 119.466 288.262 119.038C288.599 118.605 288.768 118.013 288.768 117.261C288.768 116.513 288.599 115.923 288.262 115.49C287.924 115.057 287.466 114.841 286.888 114.841C286.309 114.841 285.853 115.057 285.521 115.49C285.188 115.919 285.021 116.509 285.021 117.261C285.021 118.017 285.186 118.61 285.514 119.038ZM291.42 111.396V112.366H290.436V121H288.802V119.817H288.686C288.471 120.228 288.159 120.549 287.749 120.781C287.339 121.009 286.876 121.123 286.361 121.123C285.413 121.123 284.661 120.777 284.105 120.084C283.554 119.387 283.278 118.443 283.278 117.254C283.278 116.074 283.556 115.137 284.112 114.444C284.668 113.747 285.418 113.398 286.361 113.398C286.872 113.398 287.327 113.515 287.729 113.747C288.13 113.979 288.43 114.301 288.631 114.711H288.74V112.366H287.086V111.396H288.74V110.63H290.436V111.396H291.42ZM293.382 121V113.521H295.07V121H293.382ZM295.221 112.284H293.566L291.625 109.912H293.519L295.221 112.284ZM297.176 121V113.521H298.81V114.718H298.926C299.108 114.289 299.386 113.959 299.76 113.727C300.138 113.49 300.601 113.371 301.147 113.371C301.977 113.371 302.613 113.613 303.055 114.096C303.501 114.579 303.725 115.267 303.725 116.16V121H302.029V116.563C302.029 115.42 301.526 114.848 300.519 114.848C300.013 114.848 299.612 115.009 299.315 115.333C299.019 115.657 298.871 116.094 298.871 116.646V121H297.176ZM305.803 121V110.63H307.471V114.731H307.594C307.771 114.308 308.056 113.977 308.448 113.74C308.84 113.503 309.312 113.385 309.863 113.385C310.67 113.385 311.299 113.629 311.75 114.116C312.206 114.604 312.434 115.29 312.434 116.174V121H310.738V116.577C310.738 116.012 310.611 115.586 310.355 115.299C310.1 115.007 309.727 114.861 309.234 114.861C308.688 114.861 308.261 115.025 307.956 115.354C307.651 115.677 307.498 116.112 307.498 116.659V121H305.803Z" fill="black"/>
<rect y="160" width="343" height="76" rx="8" fill="#F8F9FB"/>
<path d="M33.5 206.75H21C20.337 206.75 19.7011 206.487 19.2322 206.018C18.7634 205.549 18.5 204.913 18.5 204.25V193C18.5 192.337 18.7634 191.701 19.2322 191.232C19.7011 190.763 20.337 190.5 21 190.5H33.5" stroke="#F5BB16" stroke-linecap="round" stroke-linejoin="round"/>
<path d="M33.5 211.75H26" stroke="#F5BB16" stroke-linecap="round" stroke-linejoin="round"/>
<path d="M48.5 189.25H43.5" stroke="#F5BB16" stroke-linecap="round" stroke-linejoin="round"/>
<path d="M48.5 194.25H43.5" stroke="#F5BB16" stroke-linecap="round" stroke-linejoin="round"/>
<path d="M52.25 184.25H39.75C39.0596 184.25 38.5 184.81 38.5 185.5V210.5C38.5 211.19 39.0596 211.75 39.75 211.75H52.25C52.9404 211.75 53.5 211.19 53.5 210.5V185.5C53.5 184.81 52.9404 184.25 52.25 184.25Z" stroke="#F5BB16" stroke-linecap="round" stroke-linejoin="round"/>
<path d="M29.75 206.75V211.75" stroke="#F5BB16" stroke-linecap="round" stroke-linejoin="round"/>
<path d="M46 208C47.0355 208 47.875 207.161 47.875 206.125C47.875 205.089 47.0355 204.25 46 204.25C44.9645 204.25 44.125 205.089 44.125 206.125C44.125 207.161 44.9645 208 46 208Z" fill="#F5BB16"/>
<path d="M77.4346 192H75.6709V183.66H72.6357V182.136H80.4766V183.66H77.4346V192ZM84.3184 192.15C83.1973 192.15 82.3177 191.806 81.6797 191.118C81.0417 190.425 80.7227 189.473 80.7227 188.261C80.7227 187.058 81.0439 186.11 81.6865 185.417C82.3291 184.72 83.2064 184.371 84.3184 184.371C85.4349 184.371 86.3122 184.717 86.9502 185.41C87.5928 186.103 87.9141 187.053 87.9141 188.261C87.9141 189.473 87.5928 190.425 86.9502 191.118C86.3122 191.806 85.4349 192.15 84.3184 192.15ZM82.9443 190.086C83.2679 190.514 83.7259 190.729 84.3184 190.729C84.9108 190.729 85.3665 190.514 85.6855 190.086C86.0091 189.653 86.1709 189.045 86.1709 188.261C86.1709 187.481 86.0091 186.875 85.6855 186.442C85.362 186.009 84.9062 185.793 84.3184 185.793C83.7259 185.793 83.2679 186.009 82.9443 186.442C82.6208 186.875 82.459 187.481 82.459 188.261C82.459 189.045 82.6208 189.653 82.9443 190.086ZM85.2002 181.124L87.0938 183.503H85.46L84.373 182.033H84.2568L83.1699 183.503H81.5361L83.4297 181.124H85.2002ZM89.6436 192V184.521H91.332V192H89.6436ZM90.4844 183.305C90.179 183.305 89.9284 183.218 89.7324 183.045C89.5365 182.867 89.4385 182.642 89.4385 182.368C89.4385 182.095 89.5365 181.871 89.7324 181.698C89.9284 181.521 90.179 181.432 90.4844 181.432C90.7943 181.432 91.0449 181.521 91.2363 181.698C91.4323 181.871 91.5303 182.095 91.5303 182.368C91.5303 182.642 91.4323 182.867 91.2363 183.045C91.0449 183.218 90.7943 183.305 90.4844 183.305ZM97.1699 192V184.521H98.8037V185.731H98.9199C99.0794 185.303 99.3415 184.97 99.7061 184.733C100.071 184.492 100.501 184.371 100.998 184.371C101.504 184.371 101.935 184.492 102.29 184.733C102.646 184.97 102.903 185.303 103.062 185.731H103.179C103.366 185.317 103.662 184.986 104.067 184.74C104.473 184.494 104.933 184.371 105.448 184.371C106.196 184.371 106.781 184.592 107.205 185.034C107.633 185.476 107.848 186.085 107.848 186.859V192H106.159V187.29C106.159 186.328 105.703 185.848 104.792 185.848C104.354 185.848 104.001 185.989 103.732 186.271C103.464 186.554 103.329 186.912 103.329 187.345V192H101.682V187.167C101.682 186.757 101.561 186.436 101.319 186.203C101.078 185.966 100.747 185.848 100.328 185.848C99.9089 185.848 99.5602 186 99.2822 186.306C99.0042 186.611 98.8652 186.994 98.8652 187.454V192H97.1699ZM116.365 184.521V192H114.731V190.811H114.615C114.237 191.704 113.492 192.15 112.38 192.15C111.564 192.15 110.928 191.909 110.473 191.426C110.017 190.938 109.789 190.257 109.789 189.382V184.521H111.484V188.958C111.484 189.532 111.605 189.961 111.847 190.243C112.088 190.521 112.462 190.66 112.968 190.66C113.515 190.66 113.934 190.503 114.226 190.188C114.522 189.874 114.67 189.437 114.67 188.876V184.521H116.365ZM121.67 192.15C120.549 192.15 119.669 191.806 119.031 191.118C118.393 190.425 118.074 189.473 118.074 188.261C118.074 187.058 118.396 186.11 119.038 185.417C119.681 184.72 120.558 184.371 121.67 184.371C122.786 184.371 123.664 184.717 124.302 185.41C124.944 186.103 125.266 187.053 125.266 188.261C125.266 189.473 124.944 190.425 124.302 191.118C123.664 191.806 122.786 192.15 121.67 192.15ZM120.296 190.086C120.619 190.514 121.077 190.729 121.67 190.729C122.262 190.729 122.718 190.514 123.037 190.086C123.361 189.653 123.522 189.045 123.522 188.261C123.522 187.481 123.361 186.875 123.037 186.442C122.714 186.009 122.258 185.793 121.67 185.793C121.077 185.793 120.619 186.009 120.296 186.442C119.972 186.875 119.811 187.481 119.811 188.261C119.811 189.045 119.972 189.653 120.296 190.086ZM122.518 181.145L124.397 183.441H122.805L121.731 182.061H121.608L120.535 183.441H118.942L120.822 181.145H122.518ZM123.105 181.028L124.411 178.82H126.079L124.527 181.028H123.105ZM126.975 192V184.521H128.608V185.718H128.725C128.907 185.289 129.185 184.959 129.559 184.727C129.937 184.49 130.399 184.371 130.946 184.371C131.776 184.371 132.411 184.613 132.854 185.096C133.3 185.579 133.523 186.267 133.523 187.16V192H131.828V187.563C131.828 186.42 131.325 185.848 130.317 185.848C129.812 185.848 129.41 186.009 129.114 186.333C128.818 186.657 128.67 187.094 128.67 187.646V192H126.975ZM141.18 190.038C141.512 190.466 141.97 190.681 142.554 190.681C143.137 190.681 143.595 190.466 143.928 190.038C144.265 189.605 144.434 189.013 144.434 188.261C144.434 187.513 144.265 186.923 143.928 186.49C143.59 186.057 143.132 185.841 142.554 185.841C141.975 185.841 141.519 186.057 141.187 186.49C140.854 186.919 140.688 187.509 140.688 188.261C140.688 189.017 140.852 189.61 141.18 190.038ZM147.086 182.396V183.366H146.102V192H144.468V190.817H144.352C144.137 191.228 143.825 191.549 143.415 191.781C143.005 192.009 142.542 192.123 142.027 192.123C141.079 192.123 140.327 191.777 139.771 191.084C139.22 190.387 138.944 189.443 138.944 188.254C138.944 187.074 139.222 186.137 139.778 185.444C140.334 184.747 141.084 184.398 142.027 184.398C142.538 184.398 142.993 184.515 143.395 184.747C143.796 184.979 144.096 185.301 144.297 185.711H144.406V183.366H142.752V182.396H144.406V181.63H146.102V182.396H147.086ZM150.805 190.79C151.315 190.79 151.741 190.644 152.083 190.353C152.425 190.056 152.596 189.692 152.596 189.259V188.664L150.907 188.773C149.978 188.833 149.513 189.17 149.513 189.785C149.513 190.095 149.631 190.341 149.868 190.523C150.11 190.701 150.422 190.79 150.805 190.79ZM150.306 192.123C149.576 192.123 148.982 191.918 148.521 191.508C148.061 191.098 147.831 190.555 147.831 189.881C147.831 189.206 148.075 188.678 148.562 188.295C149.055 187.912 149.757 187.693 150.668 187.639L152.596 187.522V186.894C152.596 186.524 152.475 186.242 152.233 186.046C151.992 185.85 151.643 185.752 151.188 185.752C150.796 185.752 150.472 185.82 150.217 185.957C149.962 186.089 149.795 186.281 149.718 186.531H148.118C148.187 185.87 148.506 185.346 149.075 184.959C149.649 184.567 150.381 184.371 151.27 184.371C152.227 184.371 152.965 184.592 153.484 185.034C154.008 185.476 154.271 186.096 154.271 186.894V192H152.637V190.975H152.521C152.311 191.335 152.01 191.617 151.618 191.822C151.231 192.023 150.793 192.123 150.306 192.123ZM148.617 181.165H149.902C149.911 181.548 150.035 181.855 150.271 182.088C150.513 182.32 150.843 182.437 151.263 182.437C151.682 182.437 152.01 182.32 152.247 182.088C152.489 181.855 152.614 181.548 152.623 181.165H153.908C153.908 181.858 153.669 182.421 153.19 182.854C152.716 183.286 152.074 183.503 151.263 183.503C150.451 183.503 149.807 183.286 149.328 182.854C148.854 182.421 148.617 181.858 148.617 181.165ZM156.314 192V184.521H157.948V185.718H158.064C158.247 185.289 158.525 184.959 158.898 184.727C159.277 184.49 159.739 184.371 160.286 184.371C161.116 184.371 161.751 184.613 162.193 185.096C162.64 185.579 162.863 186.267 162.863 187.16V192H161.168V187.563C161.168 186.42 160.664 185.848 159.657 185.848C159.151 185.848 158.75 186.009 158.454 186.333C158.158 186.657 158.01 187.094 158.01 187.646V192H156.314ZM166.719 189.888C167.042 190.302 167.498 190.51 168.086 190.51C168.674 190.51 169.136 190.3 169.474 189.881C169.811 189.462 169.979 188.894 169.979 188.179C169.979 187.463 169.811 186.896 169.474 186.477C169.136 186.053 168.674 185.841 168.086 185.841C167.503 185.841 167.047 186.05 166.719 186.47C166.395 186.889 166.233 187.459 166.233 188.179C166.233 188.899 166.395 189.468 166.719 189.888ZM168.086 194.844C167.133 194.844 166.359 194.65 165.762 194.263C165.169 193.875 164.839 193.358 164.771 192.711H166.473C166.527 192.971 166.698 193.176 166.985 193.326C167.277 193.477 167.653 193.552 168.113 193.552C168.692 193.552 169.143 193.422 169.467 193.162C169.79 192.902 169.952 192.538 169.952 192.068V190.653H169.836C169.622 191.054 169.316 191.362 168.92 191.576C168.528 191.786 168.072 191.891 167.553 191.891C166.614 191.891 165.869 191.556 165.317 190.886C164.766 190.211 164.49 189.309 164.49 188.179C164.49 187.03 164.768 186.114 165.324 185.431C165.88 184.743 166.632 184.398 167.58 184.398C168.09 184.398 168.553 184.517 168.968 184.754C169.382 184.991 169.692 185.312 169.897 185.718H170.014V184.521H171.647V192.027C171.647 192.893 171.326 193.579 170.684 194.085C170.041 194.591 169.175 194.844 168.086 194.844ZM179.345 187.57L182.106 184.521H184.075L181.095 187.728L184.28 192H182.229L179.83 188.794L179.229 189.396V192H177.533V181.63H179.229V187.57H179.345ZM186.406 194.714C186.055 194.714 185.832 194.705 185.736 194.687V193.299C185.823 193.317 185.978 193.326 186.201 193.326C186.561 193.326 186.846 193.251 187.056 193.101C187.27 192.95 187.432 192.704 187.541 192.362L187.63 192.034L184.957 184.521H186.816L188.566 190.359H188.683L190.426 184.521H192.217L189.517 192.239C189.202 193.164 188.815 193.807 188.354 194.167C187.899 194.532 187.249 194.714 186.406 194.714ZM189.291 183.284H187.637L189.339 180.912H191.232L189.291 183.284ZM197.952 182.689H199.641V184.569H201.24V185.923H199.641V189.594C199.641 189.963 199.723 190.234 199.887 190.407C200.051 190.576 200.311 190.66 200.666 190.66C200.821 190.66 201.012 190.649 201.24 190.626V191.952C200.958 192.007 200.661 192.034 200.352 192.034C199.495 192.034 198.88 191.877 198.506 191.562C198.137 191.248 197.952 190.729 197.952 190.004V185.923H196.77V184.569H197.952V182.689ZM203.004 192V181.63H204.672V185.731H204.795C204.973 185.308 205.257 184.977 205.649 184.74C206.041 184.503 206.513 184.385 207.064 184.385C207.871 184.385 208.5 184.629 208.951 185.116C209.407 185.604 209.635 186.29 209.635 187.174V192H207.939V187.577C207.939 187.012 207.812 186.586 207.557 186.299C207.301 186.007 206.928 185.861 206.436 185.861C205.889 185.861 205.463 186.025 205.157 186.354C204.852 186.677 204.699 187.112 204.699 187.659V192H203.004ZM211.665 192V184.521H213.354V192H211.665ZM212.506 183.305C212.201 183.305 211.95 183.218 211.754 183.045C211.558 182.867 211.46 182.642 211.46 182.368C211.46 182.095 211.558 181.871 211.754 181.698C211.95 181.521 212.201 181.432 212.506 181.432C212.816 181.432 213.066 181.521 213.258 181.698C213.454 181.871 213.552 182.095 213.552 182.368C213.552 182.642 213.454 182.867 213.258 183.045C213.066 183.218 212.816 183.305 212.506 183.305ZM218.597 185.718C218.091 185.718 217.674 185.884 217.346 186.217C217.018 186.549 216.835 186.989 216.799 187.536H220.319C220.301 186.98 220.137 186.538 219.827 186.21C219.517 185.882 219.107 185.718 218.597 185.718ZM220.333 189.942H221.939C221.78 190.626 221.404 191.166 220.812 191.562C220.224 191.954 219.492 192.15 218.617 192.15C217.519 192.15 216.655 191.809 216.026 191.125C215.402 190.437 215.09 189.491 215.09 188.288C215.09 187.085 215.404 186.132 216.033 185.431C216.662 184.724 217.519 184.371 218.604 184.371C219.67 184.371 220.504 184.706 221.105 185.376C221.712 186.041 222.015 186.964 222.015 188.145V188.691H216.792V188.78C216.815 189.405 216.993 189.899 217.325 190.264C217.662 190.624 218.109 190.804 218.665 190.804C219.522 190.804 220.078 190.517 220.333 189.942ZM219.451 181.145L221.331 183.441H219.738L218.665 182.061H218.542L217.469 183.441H215.876L217.756 181.145H219.451ZM220.039 181.028L221.345 178.82H223.013L221.461 181.028H220.039ZM224.257 182.689H225.945V184.569H227.545V185.923H225.945V189.594C225.945 189.963 226.027 190.234 226.191 190.407C226.355 190.576 226.615 190.66 226.971 190.66C227.126 190.66 227.317 190.649 227.545 190.626V191.952C227.262 192.007 226.966 192.034 226.656 192.034C225.799 192.034 225.184 191.877 224.811 191.562C224.441 191.248 224.257 190.729 224.257 190.004V185.923H223.074V184.569H224.257V182.689ZM237.129 192.123C236.605 192.123 236.138 192.009 235.728 191.781C235.317 191.549 235.005 191.228 234.791 190.817H234.675V192H233.041V181.63H234.736V185.711H234.853C235.049 185.305 235.349 184.986 235.755 184.754C236.16 184.517 236.618 184.398 237.129 184.398C238.077 184.398 238.824 184.745 239.371 185.438C239.923 186.126 240.198 187.067 240.198 188.261C240.198 189.45 239.923 190.391 239.371 191.084C238.82 191.777 238.072 192.123 237.129 192.123ZM237.956 186.49C237.628 186.057 237.174 185.841 236.596 185.841C236.017 185.841 235.557 186.06 235.215 186.497C234.878 186.93 234.709 187.518 234.709 188.261C234.709 189.008 234.878 189.598 235.215 190.031C235.557 190.464 236.017 190.681 236.596 190.681C237.174 190.681 237.628 190.466 237.956 190.038C238.289 189.605 238.455 189.013 238.455 188.261C238.455 187.509 238.289 186.919 237.956 186.49ZM241.921 192V184.521H243.609V192H241.921ZM242.762 183.305C242.456 183.305 242.206 183.218 242.01 183.045C241.814 182.867 241.716 182.642 241.716 182.368C241.716 182.095 241.814 181.871 242.01 181.698C242.206 181.521 242.456 181.432 242.762 181.432C243.072 181.432 243.322 181.521 243.514 181.698C243.71 181.871 243.808 182.095 243.808 182.368C243.808 182.642 243.71 182.867 243.514 183.045C243.322 183.218 243.072 183.305 242.762 183.305ZM243.466 194.598C243.279 194.789 243.044 194.885 242.762 194.885C242.479 194.885 242.244 194.789 242.058 194.598C241.871 194.411 241.777 194.178 241.777 193.9C241.777 193.618 241.868 193.381 242.051 193.189C242.238 193.003 242.475 192.909 242.762 192.909C243.044 192.909 243.279 193.003 243.466 193.189C243.653 193.381 243.746 193.618 243.746 193.9C243.746 194.178 243.653 194.411 243.466 194.598ZM255.969 184.521L253.323 192H251.457L248.798 184.521H250.616L252.346 190.305H252.462L254.178 184.521H255.969ZM260.33 190.729C260.918 190.729 261.374 190.514 261.697 190.086C262.021 189.653 262.183 189.045 262.183 188.261C262.183 187.477 262.021 186.871 261.697 186.442C261.374 186.009 260.918 185.793 260.33 185.793C259.742 185.793 259.284 186.009 258.956 186.442C258.632 186.871 258.471 187.477 258.471 188.261C258.471 189.045 258.632 189.653 258.956 190.086C259.28 190.514 259.738 190.729 260.33 190.729ZM263.926 188.261C263.926 189.473 263.607 190.425 262.969 191.118C262.331 191.806 261.451 192.15 260.33 192.15C259.209 192.15 258.329 191.806 257.691 191.118C257.053 190.425 256.734 189.473 256.734 188.261C256.734 187.053 257.053 186.103 257.691 185.41C258.334 184.717 259.214 184.371 260.33 184.371C260.658 184.371 261.009 184.41 261.383 184.487C261.761 184.56 262.062 184.597 262.285 184.597C262.568 184.597 262.761 184.551 262.866 184.46C262.976 184.369 263.03 184.214 263.03 183.995V183.018H264.432V184.46C264.432 184.852 264.327 185.157 264.117 185.376C263.908 185.59 263.632 185.697 263.29 185.697H262.948V185.772C263.24 185.968 263.475 186.294 263.652 186.75C263.835 187.201 263.926 187.705 263.926 188.261ZM260.986 183.284H259.332L261.034 180.912H262.928L260.986 183.284ZM266.202 192V184.521H267.891V192H266.202ZM267.043 183.305C266.738 183.305 266.487 183.218 266.291 183.045C266.095 182.867 265.997 182.642 265.997 182.368C265.997 182.095 266.095 181.871 266.291 181.698C266.487 181.521 266.738 181.432 267.043 181.432C267.353 181.432 267.604 181.521 267.795 181.698C267.991 181.871 268.089 182.095 268.089 182.368C268.089 182.642 267.991 182.867 267.795 183.045C267.604 183.218 267.353 183.305 267.043 183.305ZM274.269 182.689H275.957V184.569H277.557V185.923H275.957V189.594C275.957 189.963 276.039 190.234 276.203 190.407C276.367 190.576 276.627 190.66 276.982 190.66C277.137 190.66 277.329 190.649 277.557 190.626V191.952C277.274 192.007 276.978 192.034 276.668 192.034C275.811 192.034 275.196 191.877 274.822 191.562C274.453 191.248 274.269 190.729 274.269 190.004V185.923H273.086V184.569H274.269V182.689ZM281.809 190.79C282.319 190.79 282.745 190.644 283.087 190.353C283.429 190.056 283.6 189.692 283.6 189.259V188.664L281.911 188.773C280.981 188.833 280.517 189.17 280.517 189.785C280.517 190.095 280.635 190.341 280.872 190.523C281.114 190.701 281.426 190.79 281.809 190.79ZM281.31 192.123C280.58 192.123 279.986 191.918 279.525 191.508C279.065 191.098 278.835 190.555 278.835 189.881C278.835 189.206 279.079 188.678 279.566 188.295C280.059 187.912 280.76 187.693 281.672 187.639L283.6 187.522V186.894C283.6 186.524 283.479 186.242 283.237 186.046C282.996 185.85 282.647 185.752 282.191 185.752C281.799 185.752 281.476 185.82 281.221 185.957C280.965 186.089 280.799 186.281 280.722 186.531H279.122C279.19 185.87 279.509 185.346 280.079 184.959C280.653 184.567 281.385 184.371 282.273 184.371C283.23 184.371 283.969 184.592 284.488 185.034C285.012 185.476 285.274 186.096 285.274 186.894V192H283.641V190.975H283.524C283.315 191.335 283.014 191.617 282.622 191.822C282.235 192.023 281.797 192.123 281.31 192.123ZM283.271 183.284H281.617L279.676 180.912H281.569L283.271 183.284ZM287.339 192V184.521H289.027V192H287.339ZM288.18 183.305C287.874 183.305 287.624 183.218 287.428 183.045C287.232 182.867 287.134 182.642 287.134 182.368C287.134 182.095 287.232 181.871 287.428 181.698C287.624 181.521 287.874 181.432 288.18 181.432C288.49 181.432 288.74 181.521 288.932 181.698C289.128 181.871 289.226 182.095 289.226 182.368C289.226 182.642 289.128 182.867 288.932 183.045C288.74 183.218 288.49 183.305 288.18 183.305ZM74.9189 209.57L77.6807 206.521H79.6494L76.6689 209.728L79.8545 214H77.8037L75.4043 210.794L74.8027 211.396V214H73.1074V203.63H74.8027V209.57H74.9189ZM81.2285 214V203.63H82.8965V207.731H83.0195C83.1973 207.308 83.4821 206.977 83.874 206.74C84.266 206.503 84.7376 206.385 85.2891 206.385C86.0957 206.385 86.7246 206.629 87.1758 207.116C87.6315 207.604 87.8594 208.29 87.8594 209.174V214H86.1641V209.577C86.1641 209.012 86.0365 208.586 85.7812 208.299C85.526 208.007 85.1523 207.861 84.6602 207.861C84.1133 207.861 83.6872 208.025 83.3818 208.354C83.0765 208.677 82.9238 209.112 82.9238 209.659V214H81.2285ZM93.0957 214.15C91.9746 214.15 91.0951 213.806 90.457 213.118C89.819 212.425 89.5 211.473 89.5 210.261C89.5 209.058 89.8213 208.11 90.4639 207.417C91.1064 206.72 91.9837 206.371 93.0957 206.371C94.2122 206.371 95.0895 206.717 95.7275 207.41C96.3701 208.103 96.6914 209.053 96.6914 210.261C96.6914 211.473 96.3701 212.425 95.7275 213.118C95.0895 213.806 94.2122 214.15 93.0957 214.15ZM91.7217 212.086C92.0452 212.514 92.5033 212.729 93.0957 212.729C93.6882 212.729 94.1439 212.514 94.4629 212.086C94.7865 211.653 94.9482 211.045 94.9482 210.261C94.9482 209.481 94.7865 208.875 94.4629 208.442C94.1393 208.009 93.6836 207.793 93.0957 207.793C92.5033 207.793 92.0452 208.009 91.7217 208.442C91.3981 208.875 91.2363 209.481 91.2363 210.261C91.2363 211.045 91.3981 211.653 91.7217 212.086ZM100.957 212.79C101.467 212.79 101.894 212.644 102.235 212.353C102.577 212.056 102.748 211.692 102.748 211.259V210.664L101.06 210.773C100.13 210.833 99.665 211.17 99.665 211.785C99.665 212.095 99.7835 212.341 100.021 212.523C100.262 212.701 100.574 212.79 100.957 212.79ZM100.458 214.123C99.7288 214.123 99.1341 213.918 98.6738 213.508C98.2135 213.098 97.9834 212.555 97.9834 211.881C97.9834 211.206 98.2272 210.678 98.7148 210.295C99.207 209.912 99.9089 209.693 100.82 209.639L102.748 209.522V208.894C102.748 208.524 102.627 208.242 102.386 208.046C102.144 207.85 101.796 207.752 101.34 207.752C100.948 207.752 100.624 207.82 100.369 207.957C100.114 208.089 99.9476 208.281 99.8701 208.531H98.2705C98.3389 207.87 98.6579 207.346 99.2275 206.959C99.8018 206.567 100.533 206.371 101.422 206.371C102.379 206.371 103.117 206.592 103.637 207.034C104.161 207.476 104.423 208.096 104.423 208.894V214H102.789V212.975H102.673C102.463 213.335 102.162 213.617 101.771 213.822C101.383 214.023 100.946 214.123 100.458 214.123ZM100.287 203.835V202.851C100.583 202.746 100.921 202.693 101.299 202.693C101.8 202.693 102.203 202.819 102.509 203.069C102.814 203.315 102.967 203.648 102.967 204.067C102.967 204.423 102.846 204.746 102.604 205.038C102.363 205.33 102.037 205.551 101.627 205.701L101.032 204.949C101.256 204.876 101.436 204.774 101.572 204.642C101.709 204.509 101.777 204.368 101.777 204.218C101.777 204.063 101.711 203.938 101.579 203.842C101.447 203.742 101.274 203.691 101.06 203.691C100.754 203.691 100.497 203.739 100.287 203.835ZM106.467 214V206.521H108.101V207.718H108.217C108.399 207.289 108.677 206.959 109.051 206.727C109.429 206.49 109.892 206.371 110.438 206.371C111.268 206.371 111.904 206.613 112.346 207.096C112.792 207.579 113.016 208.267 113.016 209.16V214H111.32V209.563C111.32 208.42 110.817 207.848 109.81 207.848C109.304 207.848 108.903 208.009 108.606 208.333C108.31 208.657 108.162 209.094 108.162 209.646V214H106.467ZM120.638 209.57L123.399 206.521H125.368L122.388 209.728L125.573 214H123.522L121.123 210.794L120.521 211.396V214H118.826V203.63H120.521V209.57H120.638ZM126.947 214V203.63H128.615V207.731H128.738C128.916 207.308 129.201 206.977 129.593 206.74C129.985 206.503 130.456 206.385 131.008 206.385C131.814 206.385 132.443 206.629 132.895 207.116C133.35 207.604 133.578 208.29 133.578 209.174V214H131.883V209.577C131.883 209.012 131.755 208.586 131.5 208.299C131.245 208.007 130.871 207.861 130.379 207.861C129.832 207.861 129.406 208.025 129.101 208.354C128.795 208.677 128.643 209.112 128.643 209.659V214H126.947ZM138.145 212.79C138.655 212.79 139.081 212.644 139.423 212.353C139.765 212.056 139.936 211.692 139.936 211.259V210.664L138.247 210.773C137.317 210.833 136.853 211.17 136.853 211.785C136.853 212.095 136.971 212.341 137.208 212.523C137.45 212.701 137.762 212.79 138.145 212.79ZM137.646 214.123C136.916 214.123 136.322 213.918 135.861 213.508C135.401 213.098 135.171 212.555 135.171 211.881C135.171 211.206 135.415 210.678 135.902 210.295C136.395 209.912 137.096 209.693 138.008 209.639L139.936 209.522V208.894C139.936 208.524 139.815 208.242 139.573 208.046C139.332 207.85 138.983 207.752 138.527 207.752C138.135 207.752 137.812 207.82 137.557 207.957C137.301 208.089 137.135 208.281 137.058 208.531H135.458C135.526 207.87 135.845 207.346 136.415 206.959C136.989 206.567 137.721 206.371 138.609 206.371C139.566 206.371 140.305 206.592 140.824 207.034C141.348 207.476 141.61 208.096 141.61 208.894V214H139.977V212.975H139.86C139.651 213.335 139.35 213.617 138.958 213.822C138.571 214.023 138.133 214.123 137.646 214.123ZM139.307 205.284H137.652L139.354 202.912H141.248L139.307 205.284ZM150.114 209.037H148.501C148.419 208.659 148.237 208.358 147.954 208.135C147.672 207.907 147.305 207.793 146.854 207.793C146.27 207.793 145.814 208.007 145.486 208.436C145.163 208.864 145.001 209.465 145.001 210.24C145.001 211.024 145.165 211.635 145.493 212.072C145.821 212.51 146.275 212.729 146.854 212.729C147.296 212.729 147.658 212.626 147.94 212.421C148.228 212.216 148.414 211.92 148.501 211.532H150.114C150.019 212.33 149.684 212.965 149.109 213.439C148.54 213.913 147.79 214.15 146.86 214.15C145.735 214.15 144.857 213.806 144.229 213.118C143.6 212.43 143.285 211.471 143.285 210.24C143.285 209.023 143.6 208.076 144.229 207.396C144.857 206.713 145.732 206.371 146.854 206.371C147.792 206.371 148.547 206.615 149.116 207.103C149.69 207.586 150.023 208.23 150.114 209.037Z" fill="black"/>
<rect y="244" width="343" height="72" rx="8" fill="#F8F9FB"/>
<path d="M21 287.5L36 296.25L51 287.5" stroke="#F5BB16" stroke-linecap="round" stroke-linejoin="round"/>
<path d="M21 280L36 288.75L51 280" stroke="#F5BB16" stroke-linecap="round" stroke-linejoin="round"/>
<path d="M21 272.5L36 281.25L51 272.5L36 263.75L21 272.5Z" stroke="#F5BB16" stroke-linecap="round" stroke-linejoin="round"/>
<path d="M77.4346 285H75.6709V276.66H72.6357V275.136H80.4766V276.66H77.4346V285ZM84.3184 285.15C83.1973 285.15 82.3177 284.806 81.6797 284.118C81.0417 283.425 80.7227 282.473 80.7227 281.261C80.7227 280.058 81.0439 279.11 81.6865 278.417C82.3291 277.72 83.2064 277.371 84.3184 277.371C85.4349 277.371 86.3122 277.717 86.9502 278.41C87.5928 279.103 87.9141 280.053 87.9141 281.261C87.9141 282.473 87.5928 283.425 86.9502 284.118C86.3122 284.806 85.4349 285.15 84.3184 285.15ZM82.9443 283.086C83.2679 283.514 83.7259 283.729 84.3184 283.729C84.9108 283.729 85.3665 283.514 85.6855 283.086C86.0091 282.653 86.1709 282.045 86.1709 281.261C86.1709 280.481 86.0091 279.875 85.6855 279.442C85.362 279.009 84.9062 278.793 84.3184 278.793C83.7259 278.793 83.2679 279.009 82.9443 279.442C82.6208 279.875 82.459 280.481 82.459 281.261C82.459 282.045 82.6208 282.653 82.9443 283.086ZM85.2002 274.124L87.0938 276.503H85.46L84.373 275.033H84.2568L83.1699 276.503H81.5361L83.4297 274.124H85.2002ZM89.6436 285V277.521H91.332V285H89.6436ZM90.4844 276.305C90.179 276.305 89.9284 276.218 89.7324 276.045C89.5365 275.867 89.4385 275.642 89.4385 275.368C89.4385 275.095 89.5365 274.871 89.7324 274.698C89.9284 274.521 90.179 274.432 90.4844 274.432C90.7943 274.432 91.0449 274.521 91.2363 274.698C91.4323 274.871 91.5303 275.095 91.5303 275.368C91.5303 275.642 91.4323 275.867 91.2363 276.045C91.0449 276.218 90.7943 276.305 90.4844 276.305ZM97.1699 285V277.521H98.8037V278.731H98.9199C99.0794 278.303 99.3415 277.97 99.7061 277.733C100.071 277.492 100.501 277.371 100.998 277.371C101.504 277.371 101.935 277.492 102.29 277.733C102.646 277.97 102.903 278.303 103.062 278.731H103.179C103.366 278.317 103.662 277.986 104.067 277.74C104.473 277.494 104.933 277.371 105.448 277.371C106.196 277.371 106.781 277.592 107.205 278.034C107.633 278.476 107.848 279.085 107.848 279.859V285H106.159V280.29C106.159 279.328 105.703 278.848 104.792 278.848C104.354 278.848 104.001 278.989 103.732 279.271C103.464 279.554 103.329 279.912 103.329 280.345V285H101.682V280.167C101.682 279.757 101.561 279.436 101.319 279.203C101.078 278.966 100.747 278.848 100.328 278.848C99.9089 278.848 99.5602 279 99.2822 279.306C99.0042 279.611 98.8652 279.994 98.8652 280.454V285H97.1699ZM116.365 277.521V285H114.731V283.811H114.615C114.237 284.704 113.492 285.15 112.38 285.15C111.564 285.15 110.928 284.909 110.473 284.426C110.017 283.938 109.789 283.257 109.789 282.382V277.521H111.484V281.958C111.484 282.532 111.605 282.961 111.847 283.243C112.088 283.521 112.462 283.66 112.968 283.66C113.515 283.66 113.934 283.503 114.226 283.188C114.522 282.874 114.67 282.437 114.67 281.876V277.521H116.365ZM121.67 285.15C120.549 285.15 119.669 284.806 119.031 284.118C118.393 283.425 118.074 282.473 118.074 281.261C118.074 280.058 118.396 279.11 119.038 278.417C119.681 277.72 120.558 277.371 121.67 277.371C122.786 277.371 123.664 277.717 124.302 278.41C124.944 279.103 125.266 280.053 125.266 281.261C125.266 282.473 124.944 283.425 124.302 284.118C123.664 284.806 122.786 285.15 121.67 285.15ZM120.296 283.086C120.619 283.514 121.077 283.729 121.67 283.729C122.262 283.729 122.718 283.514 123.037 283.086C123.361 282.653 123.522 282.045 123.522 281.261C123.522 280.481 123.361 279.875 123.037 279.442C122.714 279.009 122.258 278.793 121.67 278.793C121.077 278.793 120.619 279.009 120.296 279.442C119.972 279.875 119.811 280.481 119.811 281.261C119.811 282.045 119.972 282.653 120.296 283.086ZM122.518 274.145L124.397 276.441H122.805L121.731 275.061H121.608L120.535 276.441H118.942L120.822 274.145H122.518ZM123.105 274.028L124.411 271.82H126.079L124.527 274.028H123.105ZM126.975 285V277.521H128.608V278.718H128.725C128.907 278.289 129.185 277.959 129.559 277.727C129.937 277.49 130.399 277.371 130.946 277.371C131.776 277.371 132.411 277.613 132.854 278.096C133.3 278.579 133.523 279.267 133.523 280.16V285H131.828V280.563C131.828 279.42 131.325 278.848 130.317 278.848C129.812 278.848 129.41 279.009 129.114 279.333C128.818 279.657 128.67 280.094 128.67 280.646V285H126.975ZM141.973 285.123C141.025 285.123 140.275 284.777 139.724 284.084C139.172 283.387 138.896 282.443 138.896 281.254C138.896 280.074 139.172 279.137 139.724 278.444C140.28 277.747 141.029 277.398 141.973 277.398C142.483 277.398 142.939 277.515 143.34 277.747C143.741 277.979 144.042 278.301 144.242 278.711H144.358V274.63H146.054V285H144.413V283.817H144.297C144.083 284.228 143.771 284.549 143.36 284.781C142.955 285.009 142.492 285.123 141.973 285.123ZM143.873 279.49C143.536 279.057 143.078 278.841 142.499 278.841C141.92 278.841 141.465 279.057 141.132 279.49C140.799 279.919 140.633 280.509 140.633 281.261C140.633 282.017 140.797 282.61 141.125 283.038C141.458 283.466 141.916 283.681 142.499 283.681C143.082 283.681 143.54 283.466 143.873 283.038C144.21 282.605 144.379 282.013 144.379 281.261C144.379 280.513 144.21 279.923 143.873 279.49ZM154.701 277.521V285H153.067V283.811H152.951C152.573 284.704 151.828 285.15 150.716 285.15C149.9 285.15 149.264 284.909 148.809 284.426C148.353 283.938 148.125 283.257 148.125 282.382V277.521H149.82V281.958C149.82 282.532 149.941 282.961 150.183 283.243C150.424 283.521 150.798 283.66 151.304 283.66C151.851 283.66 152.27 283.503 152.562 283.188C152.858 282.874 153.006 282.437 153.006 281.876V277.521H154.701ZM152.411 276.284H150.757L148.815 273.912H150.709L152.411 276.284ZM156.779 285V277.521H158.413V278.718H158.529C158.712 278.289 158.99 277.959 159.363 277.727C159.742 277.49 160.204 277.371 160.751 277.371C161.58 277.371 162.216 277.613 162.658 278.096C163.105 278.579 163.328 279.267 163.328 280.16V285H161.633V280.563C161.633 279.42 161.129 278.848 160.122 278.848C159.616 278.848 159.215 279.009 158.919 279.333C158.623 279.657 158.475 280.094 158.475 280.646V285H156.779ZM167.184 282.888C167.507 283.302 167.963 283.51 168.551 283.51C169.139 283.51 169.601 283.3 169.938 282.881C170.276 282.462 170.444 281.894 170.444 281.179C170.444 280.463 170.276 279.896 169.938 279.477C169.601 279.053 169.139 278.841 168.551 278.841C167.967 278.841 167.512 279.05 167.184 279.47C166.86 279.889 166.698 280.459 166.698 281.179C166.698 281.899 166.86 282.468 167.184 282.888ZM168.551 287.844C167.598 287.844 166.824 287.65 166.227 287.263C165.634 286.875 165.304 286.358 165.235 285.711H166.938C166.992 285.971 167.163 286.176 167.45 286.326C167.742 286.477 168.118 286.552 168.578 286.552C169.157 286.552 169.608 286.422 169.932 286.162C170.255 285.902 170.417 285.538 170.417 285.068V283.653H170.301C170.087 284.054 169.781 284.362 169.385 284.576C168.993 284.786 168.537 284.891 168.018 284.891C167.079 284.891 166.334 284.556 165.782 283.886C165.231 283.211 164.955 282.309 164.955 281.179C164.955 280.03 165.233 279.114 165.789 278.431C166.345 277.743 167.097 277.398 168.045 277.398C168.555 277.398 169.018 277.517 169.433 277.754C169.847 277.991 170.157 278.312 170.362 278.718H170.479V277.521H172.112V285.027C172.112 285.893 171.791 286.579 171.148 287.085C170.506 287.591 169.64 287.844 168.551 287.844ZM182.852 285H180.821L177.376 275.136H179.324L181.806 282.942H181.922L184.383 275.136H186.263L182.852 285ZM187.808 285V277.521H189.496V285H187.808ZM188.648 276.305C188.343 276.305 188.092 276.218 187.896 276.045C187.701 275.867 187.603 275.642 187.603 275.368C187.603 275.095 187.701 274.871 187.896 274.698C188.092 274.521 188.343 274.432 188.648 274.432C188.958 274.432 189.209 274.521 189.4 274.698C189.596 274.871 189.694 275.095 189.694 275.368C189.694 275.642 189.596 275.867 189.4 276.045C189.209 276.218 188.958 276.305 188.648 276.305ZM191.431 279.661C191.431 278.987 191.709 278.438 192.265 278.014C192.821 277.585 193.541 277.371 194.425 277.371C195.313 277.371 196.022 277.56 196.551 277.938C197.084 278.312 197.38 278.839 197.439 279.518H195.847C195.783 279.249 195.628 279.039 195.382 278.889C195.14 278.734 194.824 278.656 194.432 278.656C194.04 278.656 193.716 278.741 193.461 278.909C193.206 279.078 193.078 279.297 193.078 279.565C193.078 279.775 193.167 279.948 193.345 280.085C193.527 280.222 193.807 280.333 194.186 280.42L195.505 280.721C196.225 280.885 196.754 281.129 197.091 281.452C197.428 281.776 197.597 282.211 197.597 282.758C197.597 283.473 197.3 284.052 196.708 284.494C196.116 284.932 195.35 285.15 194.411 285.15C193.477 285.15 192.729 284.959 192.169 284.576C191.613 284.193 191.303 283.662 191.239 282.983H192.914C192.996 283.266 193.167 283.485 193.427 283.64C193.691 283.79 194.033 283.865 194.452 283.865C194.881 283.865 195.229 283.781 195.498 283.612C195.767 283.439 195.901 283.214 195.901 282.936C195.901 282.521 195.557 282.238 194.869 282.088L193.543 281.78C192.823 281.616 192.29 281.363 191.943 281.021C191.602 280.675 191.431 280.222 191.431 279.661ZM201.869 283.79C202.38 283.79 202.806 283.644 203.147 283.353C203.489 283.056 203.66 282.692 203.66 282.259V281.664L201.972 281.773C201.042 281.833 200.577 282.17 200.577 282.785C200.577 283.095 200.696 283.341 200.933 283.523C201.174 283.701 201.486 283.79 201.869 283.79ZM201.37 285.123C200.641 285.123 200.046 284.918 199.586 284.508C199.126 284.098 198.896 283.555 198.896 282.881C198.896 282.206 199.139 281.678 199.627 281.295C200.119 280.912 200.821 280.693 201.732 280.639L203.66 280.522V279.894C203.66 279.524 203.539 279.242 203.298 279.046C203.056 278.85 202.708 278.752 202.252 278.752C201.86 278.752 201.536 278.82 201.281 278.957C201.026 279.089 200.86 279.281 200.782 279.531H199.183C199.251 278.87 199.57 278.346 200.14 277.959C200.714 277.567 201.445 277.371 202.334 277.371C203.291 277.371 204.029 277.592 204.549 278.034C205.073 278.476 205.335 279.096 205.335 279.894V285H203.701V283.975H203.585C203.375 284.335 203.075 284.617 202.683 284.822C202.295 285.023 201.858 285.123 201.37 285.123ZM207.926 285V278.923H206.702V277.569H207.926V276.783C207.926 276.036 208.122 275.478 208.514 275.108C208.91 274.739 209.521 274.555 210.346 274.555C210.688 274.555 211.002 274.58 211.289 274.63V275.874C211.139 275.851 210.945 275.84 210.708 275.84C210.316 275.84 210.031 275.926 209.854 276.1C209.68 276.268 209.594 276.533 209.594 276.893V277.569H211.221V278.923H209.614V285H207.926ZM215.726 278.718C215.22 278.718 214.803 278.884 214.475 279.217C214.146 279.549 213.964 279.989 213.928 280.536H217.448C217.43 279.98 217.266 279.538 216.956 279.21C216.646 278.882 216.236 278.718 215.726 278.718ZM217.462 282.942H219.068C218.909 283.626 218.533 284.166 217.94 284.562C217.353 284.954 216.621 285.15 215.746 285.15C214.648 285.15 213.784 284.809 213.155 284.125C212.531 283.437 212.219 282.491 212.219 281.288C212.219 280.085 212.533 279.132 213.162 278.431C213.791 277.724 214.648 277.371 215.732 277.371C216.799 277.371 217.633 277.706 218.234 278.376C218.84 279.041 219.144 279.964 219.144 281.145V281.691H213.921V281.78C213.944 282.405 214.121 282.899 214.454 283.264C214.791 283.624 215.238 283.804 215.794 283.804C216.651 283.804 217.207 283.517 217.462 282.942ZM226.492 283.038C226.825 283.466 227.283 283.681 227.866 283.681C228.45 283.681 228.908 283.466 229.24 283.038C229.577 282.605 229.746 282.013 229.746 281.261C229.746 280.513 229.577 279.923 229.24 279.49C228.903 279.057 228.445 278.841 227.866 278.841C227.287 278.841 226.832 279.057 226.499 279.49C226.166 279.919 226 280.509 226 281.261C226 282.017 226.164 282.61 226.492 283.038ZM232.398 275.396V276.366H231.414V285H229.78V283.817H229.664C229.45 284.228 229.138 284.549 228.728 284.781C228.317 285.009 227.855 285.123 227.34 285.123C226.392 285.123 225.64 284.777 225.084 284.084C224.533 283.387 224.257 282.443 224.257 281.254C224.257 280.074 224.535 279.137 225.091 278.444C225.647 277.747 226.396 277.398 227.34 277.398C227.85 277.398 228.306 277.515 228.707 277.747C229.108 277.979 229.409 278.301 229.609 278.711H229.719V276.366H228.064V275.396H229.719V274.63H231.414V275.396H232.398ZM236.698 278.718C236.192 278.718 235.775 278.884 235.447 279.217C235.119 279.549 234.937 279.989 234.9 280.536H238.421C238.403 279.98 238.239 279.538 237.929 279.21C237.619 278.882 237.209 278.718 236.698 278.718ZM238.435 282.942H240.041C239.882 283.626 239.506 284.166 238.913 284.562C238.325 284.954 237.594 285.15 236.719 285.15C235.62 285.15 234.757 284.809 234.128 284.125C233.504 283.437 233.191 282.491 233.191 281.288C233.191 280.085 233.506 279.132 234.135 278.431C234.764 277.724 235.62 277.371 236.705 277.371C237.771 277.371 238.605 277.706 239.207 278.376C239.813 279.041 240.116 279.964 240.116 281.145V281.691H234.894V281.78C234.916 282.405 235.094 282.899 235.427 283.264C235.764 283.624 236.211 283.804 236.767 283.804C237.623 283.804 238.179 283.517 238.435 282.942ZM237.895 272.928V271.943C238.145 271.848 238.455 271.8 238.824 271.8C239.344 271.8 239.754 271.923 240.055 272.169C240.355 272.41 240.506 272.743 240.506 273.167C240.506 273.522 240.387 273.846 240.15 274.138C239.918 274.425 239.597 274.644 239.187 274.794L238.599 274.042C238.817 273.969 238.993 273.867 239.125 273.734C239.257 273.602 239.323 273.463 239.323 273.317C239.323 273.162 239.257 273.037 239.125 272.941C238.997 272.841 238.829 272.791 238.619 272.791C238.332 272.791 238.09 272.837 237.895 272.928ZM237.587 274.213L239.487 276.503H237.84L236.767 275.122H236.644L235.57 276.503H233.923L235.823 274.213H237.587ZM248.265 277.398C248.771 277.398 249.231 277.521 249.646 277.768C250.06 278.009 250.37 278.34 250.575 278.759H250.691V277.521H252.339V287.488H250.63V283.865H250.514C250.295 284.271 249.992 284.583 249.604 284.802C249.217 285.016 248.761 285.123 248.237 285.123C247.294 285.123 246.549 284.777 246.002 284.084C245.455 283.387 245.182 282.443 245.182 281.254C245.182 280.074 245.46 279.137 246.016 278.444C246.572 277.747 247.321 277.398 248.265 277.398ZM248.771 283.681C249.354 283.681 249.814 283.464 250.151 283.031C250.493 282.598 250.664 282.008 250.664 281.261C250.664 280.518 250.493 279.93 250.151 279.497C249.814 279.06 249.356 278.841 248.777 278.841C248.199 278.841 247.743 279.055 247.41 279.483C247.082 279.912 246.918 280.504 246.918 281.261C246.918 282.022 247.082 282.617 247.41 283.045C247.738 283.469 248.192 283.681 248.771 283.681ZM260.918 277.521V285H259.284V283.811H259.168C258.79 284.704 258.045 285.15 256.933 285.15C256.117 285.15 255.481 284.909 255.025 284.426C254.57 283.938 254.342 283.257 254.342 282.382V277.521H256.037V281.958C256.037 282.532 256.158 282.961 256.399 283.243C256.641 283.521 257.015 283.66 257.521 283.66C258.067 283.66 258.487 283.503 258.778 283.188C259.075 282.874 259.223 282.437 259.223 281.876V277.521H260.918ZM265.553 283.79C266.063 283.79 266.489 283.644 266.831 283.353C267.173 283.056 267.344 282.692 267.344 282.259V281.664L265.655 281.773C264.726 281.833 264.261 282.17 264.261 282.785C264.261 283.095 264.379 283.341 264.616 283.523C264.858 283.701 265.17 283.79 265.553 283.79ZM265.054 285.123C264.325 285.123 263.73 284.918 263.27 284.508C262.809 284.098 262.579 283.555 262.579 282.881C262.579 282.206 262.823 281.678 263.311 281.295C263.803 280.912 264.505 280.693 265.416 280.639L267.344 280.522V279.894C267.344 279.524 267.223 279.242 266.981 279.046C266.74 278.85 266.391 278.752 265.936 278.752C265.544 278.752 265.22 278.82 264.965 278.957C264.71 279.089 264.543 279.281 264.466 279.531H262.866C262.935 278.87 263.254 278.346 263.823 277.959C264.397 277.567 265.129 277.371 266.018 277.371C266.975 277.371 267.713 277.592 268.232 278.034C268.757 278.476 269.019 279.096 269.019 279.894V285H267.385V283.975H267.269C267.059 284.335 266.758 284.617 266.366 284.822C265.979 285.023 265.541 285.123 265.054 285.123ZM264.883 274.835V273.851C265.179 273.746 265.516 273.693 265.895 273.693C266.396 273.693 266.799 273.819 267.104 274.069C267.41 274.315 267.562 274.648 267.562 275.067C267.562 275.423 267.442 275.746 267.2 276.038C266.959 276.33 266.633 276.551 266.223 276.701L265.628 275.949C265.851 275.876 266.031 275.774 266.168 275.642C266.305 275.509 266.373 275.368 266.373 275.218C266.373 275.063 266.307 274.938 266.175 274.842C266.043 274.742 265.869 274.691 265.655 274.691C265.35 274.691 265.092 274.739 264.883 274.835ZM271.062 285V277.521H272.696V278.718H272.812C272.995 278.289 273.273 277.959 273.646 277.727C274.025 277.49 274.487 277.371 275.034 277.371C275.864 277.371 276.499 277.613 276.941 278.096C277.388 278.579 277.611 279.267 277.611 280.16V285H275.916V280.563C275.916 279.42 275.412 278.848 274.405 278.848C273.899 278.848 273.498 279.009 273.202 279.333C272.906 279.657 272.758 280.094 272.758 280.646V285H271.062ZM283.894 275.689H285.582V277.569H287.182V278.923H285.582V282.594C285.582 282.963 285.664 283.234 285.828 283.407C285.992 283.576 286.252 283.66 286.607 283.66C286.762 283.66 286.954 283.649 287.182 283.626V284.952C286.899 285.007 286.603 285.034 286.293 285.034C285.436 285.034 284.821 284.877 284.447 284.562C284.078 284.248 283.894 283.729 283.894 283.004V278.923H282.711V277.569H283.894V275.689ZM288.877 285V277.521H290.511V278.684H290.627C290.732 278.31 290.966 278.002 291.331 277.761C291.7 277.519 292.124 277.398 292.603 277.398C292.908 277.398 293.143 277.424 293.307 277.474V279.046C293.133 278.982 292.844 278.95 292.438 278.95C291.887 278.95 291.438 279.11 291.092 279.429C290.745 279.743 290.572 280.16 290.572 280.68V285H288.877ZM294.722 285V277.521H296.41V285H294.722ZM295.562 276.305C295.257 276.305 295.007 276.218 294.811 276.045C294.615 275.867 294.517 275.642 294.517 275.368C294.517 275.095 294.615 274.871 294.811 274.698C295.007 274.521 295.257 274.432 295.562 274.432C295.872 274.432 296.123 274.521 296.314 274.698C296.51 274.871 296.608 275.095 296.608 275.368C296.608 275.642 296.51 275.867 296.314 276.045C296.123 276.218 295.872 276.305 295.562 276.305ZM296.267 287.598C296.08 287.789 295.845 287.885 295.562 287.885C295.28 287.885 295.045 287.789 294.858 287.598C294.672 287.411 294.578 287.178 294.578 286.9C294.578 286.618 294.669 286.381 294.852 286.189C295.038 286.003 295.275 285.909 295.562 285.909C295.845 285.909 296.08 286.003 296.267 286.189C296.453 286.381 296.547 286.618 296.547 286.9C296.547 287.178 296.453 287.411 296.267 287.598Z" fill="black"/>
</svg>
