<svg width="75" height="75" viewBox="0 0 75 75" fill="none" xmlns="http://www.w3.org/2000/svg">
<path fill-rule="evenodd" clip-rule="evenodd" d="M37.5 75C58.2107 75 75 58.2107 75 37.5C75 16.7893 58.2107 0 37.5 0C16.7893 0 0 16.7893 0 37.5C0 58.2107 16.7893 75 37.5 75Z" fill="#EFEFF4"/>
<path d="M23.3092 53.3291H23.3775L24.8912 58.5H25.9215L27.8258 51.4541H26.6881L25.399 56.8496H25.3307L23.8512 51.4541H22.8355L21.3658 56.8496H21.2975L20.0035 51.4541H18.8658L20.7652 58.5H21.8004L23.3092 53.3291ZM31.6342 58.5H32.8451L34.598 55.8926H34.6811L36.4096 58.5H37.6889L35.3402 54.9844L37.7328 51.4541H36.5023L34.7592 54.1104H34.6762L32.9623 51.4541H31.6586L33.9877 54.9551L31.6342 58.5ZM45.0275 58.5V55.6582L47.5129 51.4541H46.2971L44.5246 54.5059H44.4416L42.6691 51.4541H41.4533L43.9338 55.6582V58.5H45.0275ZM51.4873 58.5H56.7803V57.5039H52.8789V57.4209L56.6875 52.2402V51.4541H51.6045V52.4502H55.3154V52.5332L51.4873 57.7139V58.5Z" fill="black"/>
<path d="M36.8496 45.4219C43.0547 45.4219 46.6758 40.4297 46.6758 31.8867C46.6758 29.127 46.2715 26.8418 45.4277 24.8906C43.8809 21.252 40.8574 19.1953 37.043 19.1953C31.8398 19.1953 28.0605 22.8516 28.0605 27.8613C28.0605 32.6777 31.6465 36.2461 36.4805 36.2461C39.7148 36.2461 42.4922 34.6113 43.5645 32.0977C43.582 32.0977 43.582 32.0977 43.5996 32.0977H43.6172C43.5293 38.8301 41.1035 42.6621 36.8848 42.6621C34.3711 42.6621 32.3145 41.1504 31.6465 38.8477H28.4297C29.2031 42.8203 32.5254 45.4219 36.8496 45.4219ZM37.0254 33.4688C33.7031 33.4688 31.2598 31.0605 31.2598 27.7559C31.2598 24.5742 33.8262 22.043 37.0781 22.043C40.3477 22.043 42.8789 24.5918 42.8789 27.8438C42.8789 31.0781 40.3828 33.4688 37.0254 33.4688Z" fill="black"/>
</svg>
