<svg width="75" height="75" viewBox="0 0 75 75" fill="none" xmlns="http://www.w3.org/2000/svg">
<path fill-rule="evenodd" clip-rule="evenodd" d="M37.5 75C58.2107 75 75 58.2107 75 37.5C75 16.7893 58.2107 0 37.5 0C16.7893 0 0 16.7893 0 37.5C0 58.2107 16.7893 75 37.5 75Z" fill="#EFEFF4"/>
<path d="M37.5176 50.4219C43.4238 50.4219 46.834 45.3066 46.834 37.291C46.834 29.3281 43.4062 24.2129 37.5176 24.2129C31.6289 24.2129 28.166 29.3633 28.166 37.3086C28.166 45.3242 31.5938 50.4219 37.5176 50.4219ZM37.5176 47.6621C33.5449 47.6621 31.3477 43.6191 31.3477 37.291C31.3477 31.1035 33.5977 26.9902 37.5176 26.9902C41.4375 26.9902 43.6523 31.0684 43.6523 37.3086C43.6523 43.6367 41.4727 47.6621 37.5176 47.6621Z" fill="black"/>
</svg>
