<svg width="83" height="48" viewBox="0 0 83 48" fill="none" xmlns="http://www.w3.org/2000/svg">
<path d="M0 8C0 3.58172 3.58172 0 8 0H75C79.4183 0 83 3.58172 83 8V40C83 44.4183 79.4183 48 75 48H8C3.58172 48 0 44.4183 0 40V8Z" fill="white"/>
<path d="M21.4346 29H19.6709V20.6602H16.6357V19.1357H24.4766V20.6602H21.4346V29ZM30.0684 27.8105C29.6855 28.7038 28.9404 29.1504 27.833 29.1504C27.0081 29.1504 26.3701 28.9066 25.9189 28.4189C25.4678 27.9313 25.2422 27.2523 25.2422 26.3818V21.5215H26.9375V25.958C26.9375 26.5277 27.0583 26.9538 27.2998 27.2363C27.5413 27.5189 27.915 27.6602 28.4209 27.6602C28.9632 27.6602 29.3825 27.5029 29.6787 27.1885C29.9749 26.874 30.123 26.4365 30.123 25.876V21.5215H31.7432C32.126 21.5215 32.3174 21.3392 32.3174 20.9746V19.9014H33.7188V21.3096C33.7188 21.7562 33.5843 22.1025 33.3154 22.3486C33.0465 22.5902 32.6842 22.7109 32.2285 22.7109H31.8184V29H30.1846V27.8105H30.0684ZM29.6035 20.2842H27.9492L26.0078 17.9121H27.9014L29.6035 20.2842ZM45.333 24.0371H43.7197C43.6377 23.6589 43.4554 23.3581 43.1729 23.1348C42.8903 22.9069 42.5234 22.793 42.0723 22.793C41.4889 22.793 41.0332 23.0072 40.7051 23.4355C40.3815 23.8639 40.2197 24.4655 40.2197 25.2402C40.2197 26.0241 40.3838 26.6348 40.7119 27.0723C41.04 27.5098 41.4935 27.7285 42.0723 27.7285C42.5143 27.7285 42.8766 27.626 43.1592 27.4209C43.4463 27.2158 43.6331 26.9196 43.7197 26.5322H45.333C45.2373 27.3298 44.9023 27.9655 44.3281 28.4395C43.7585 28.9134 43.0088 29.1504 42.0791 29.1504C40.9535 29.1504 40.0762 28.8063 39.4473 28.1182C38.8184 27.43 38.5039 26.4707 38.5039 25.2402C38.5039 24.0234 38.8184 23.0755 39.4473 22.3965C40.0762 21.7129 40.9512 21.3711 42.0723 21.3711C43.0111 21.3711 43.7653 21.6149 44.335 22.1025C44.9092 22.5856 45.2419 23.2305 45.333 24.0371ZM47.0215 29V18.6299H48.6895V22.7314H48.8125C48.9902 22.3076 49.2751 21.9772 49.667 21.7402C50.0589 21.5033 50.5306 21.3848 51.082 21.3848C51.8887 21.3848 52.5176 21.6286 52.9688 22.1162C53.4245 22.6038 53.6523 23.2897 53.6523 24.1738V29H51.957V24.5771C51.957 24.012 51.8294 23.5859 51.5742 23.2988C51.319 23.0072 50.9453 22.8613 50.4531 22.8613C49.9062 22.8613 49.4801 23.0254 49.1748 23.3535C48.8695 23.6771 48.7168 24.1123 48.7168 24.6592V29H47.0215ZM58.8887 29.1504C57.7676 29.1504 56.888 28.8063 56.25 28.1182C55.612 27.4255 55.293 26.473 55.293 25.2607C55.293 24.0576 55.6143 23.1097 56.2568 22.417C56.8994 21.7197 57.7767 21.3711 58.8887 21.3711C60.0052 21.3711 60.8825 21.7174 61.5205 22.4102C62.1631 23.1029 62.4844 24.0531 62.4844 25.2607C62.4844 26.473 62.1631 27.4255 61.5205 28.1182C60.8825 28.8063 60.0052 29.1504 58.8887 29.1504ZM57.5146 27.0859C57.8382 27.5143 58.2962 27.7285 58.8887 27.7285C59.4811 27.7285 59.9368 27.5143 60.2559 27.0859C60.5794 26.653 60.7412 26.0446 60.7412 25.2607C60.7412 24.4814 60.5794 23.8753 60.2559 23.4424C59.9323 23.0094 59.4766 22.793 58.8887 22.793C58.2962 22.793 57.8382 23.0094 57.5146 23.4424C57.1911 23.8753 57.0293 24.4814 57.0293 25.2607C57.0293 26.0446 57.1911 26.653 57.5146 27.0859ZM59.7363 18.1445L61.6162 20.4414H60.0234L58.9502 19.0605H58.8271L57.7539 20.4414H56.1611L58.041 18.1445H59.7363ZM60.3242 18.0283L61.6299 15.8203H63.2979L61.7461 18.0283H60.3242ZM64.2139 29V21.5215H65.9023V29H64.2139ZM65.0547 20.3047C64.7493 20.3047 64.4987 20.2181 64.3027 20.0449C64.1068 19.8672 64.0088 19.6416 64.0088 19.3682C64.0088 19.0947 64.1068 18.8714 64.3027 18.6982C64.4987 18.5205 64.7493 18.4316 65.0547 18.4316C65.3646 18.4316 65.6152 18.5205 65.8066 18.6982C66.0026 18.8714 66.1006 19.0947 66.1006 19.3682C66.1006 19.6416 66.0026 19.8672 65.8066 20.0449C65.6152 20.2181 65.3646 20.3047 65.0547 20.3047Z" fill="#828282"/>
<path d="M8 1.5H75V-1.5H8V1.5ZM81.5 8V40H84.5V8H81.5ZM75 46.5H8V49.5H75V46.5ZM1.5 40V8H-1.5V40H1.5ZM8 46.5C4.41015 46.5 1.5 43.5899 1.5 40H-1.5C-1.5 45.2467 2.75329 49.5 8 49.5V46.5ZM81.5 40C81.5 43.5899 78.5899 46.5 75 46.5V49.5C80.2467 49.5 84.5 45.2467 84.5 40H81.5ZM75 1.5C78.5899 1.5 81.5 4.41015 81.5 8H84.5C84.5 2.7533 80.2467 -1.5 75 -1.5V1.5ZM8 -1.5C2.75329 -1.5 -1.5 2.7533 -1.5 8H1.5C1.5 4.41015 4.41015 1.5 8 1.5V-1.5Z" fill="#D9D9D9"/>
</svg>
