<svg width="75" height="75" viewBox="0 0 75 75" fill="none" xmlns="http://www.w3.org/2000/svg">
<path fill-rule="evenodd" clip-rule="evenodd" d="M37.5 75C58.2107 75 75 58.2107 75 37.5C75 16.7893 58.2107 0 37.5 0C16.7893 0 0 16.7893 0 37.5C0 58.2107 16.7893 75 37.5 75Z" fill="#EFEFF4"/>
<path d="M30.4385 58.5V51.4541H29.1592L26.9131 56.8057H26.8301L24.5889 51.4541H23.3096V58.5H24.3252V53.4121H24.3936L26.459 58.2949H27.2891L29.3545 53.4121H29.4229V58.5H30.4385ZM36.2049 58.5V53.4951H36.283L39.9012 58.5H40.8875V51.4541H39.823V56.459H39.7449L36.1268 51.4541H35.1404V58.5H36.2049ZM48.5973 51.2832C46.5758 51.2832 45.3062 52.6992 45.3062 54.9746C45.3062 57.2451 46.5514 58.6709 48.5973 58.6709C50.6383 58.6709 51.8785 57.2402 51.8785 54.9746C51.8785 52.7041 50.6285 51.2832 48.5973 51.2832ZM48.5973 52.3037C49.9352 52.3037 50.7604 53.3389 50.7604 54.9746C50.7604 56.6006 49.9352 57.6504 48.5973 57.6504C47.2447 57.6504 46.4244 56.6006 46.4244 54.9746C46.4244 53.3389 47.2691 52.3037 48.5973 52.3037Z" fill="black"/>
<path d="M37.957 45.4395C43.1602 45.4395 46.9395 41.7832 46.9395 36.7734C46.9395 31.957 43.3535 28.3887 38.5195 28.3887C35.373 28.3887 32.5781 30.0234 31.4355 32.502H31.3828C31.4883 25.752 33.8965 21.9902 38.1328 21.9902C40.6465 21.9902 42.6855 23.4668 43.3711 25.7695H46.5879C45.7793 21.7793 42.4746 19.1953 38.168 19.1953C31.9629 19.1953 28.3242 24.2051 28.3242 32.748C28.3242 35.4902 28.7285 37.7754 29.5723 39.7266C31.1367 43.3828 34.1602 45.4395 37.957 45.4395ZM37.9219 42.627C34.6699 42.627 32.1387 40.043 32.1387 36.791C32.1387 33.5566 34.6172 31.166 37.9746 31.166C41.332 31.166 43.7227 33.5566 43.7227 36.8789C43.7227 40.0781 41.1562 42.627 37.9219 42.627Z" fill="black"/>
</svg>
