<svg width="75" height="75" viewBox="0 0 75 75" fill="none" xmlns="http://www.w3.org/2000/svg">
<path fill-rule="evenodd" clip-rule="evenodd" d="M37.5 75C58.2107 75 75 58.2107 75 37.5C75 16.7893 58.2107 0 37.5 0C16.7893 0 0 16.7893 0 37.5C0 58.2107 16.7893 75 37.5 75Z" fill="#EFEFF4"/>
<path d="M25.8389 56.6689C25.8389 57.8799 26.7129 58.6709 27.9873 58.6709C29.3447 58.6709 30.165 57.8555 30.165 56.4395V51.4541H29.0713V56.4346C29.0713 57.2207 28.6758 57.6406 27.9775 57.6406C27.3525 57.6406 26.9277 57.25 26.9131 56.6689H25.8389ZM35.9559 58.5V56.1855L36.7469 55.3018L39.1102 58.5H40.4773L37.5184 54.5156L40.243 51.4541H38.949L36.034 54.7549H35.9559V51.4541H34.8621V58.5H35.9559ZM48.9586 57.4941H45.6578V51.4541H44.5641V58.5H48.9586V57.4941Z" fill="black"/>
<path d="M37.7461 45.4219C43.0371 45.4219 46.7812 41.8535 46.7812 36.7559C46.7812 31.834 43.2656 28.2656 38.3965 28.2656C35.9707 28.2656 33.8613 29.1797 32.7188 30.709H32.6484L33.4219 22.4473H45.3398V19.6348H30.8203L29.4316 33.8379H32.4023C33.4395 32.0625 35.4609 30.9902 37.834 30.9902C41.209 30.9902 43.6172 33.4336 43.6172 36.8438C43.6172 40.2539 41.2266 42.6445 37.7812 42.6445C34.7402 42.6445 32.4375 40.7812 32.1562 38.0742H29.0449C29.3086 42.3984 32.8945 45.4219 37.7461 45.4219Z" fill="black"/>
</svg>
