<svg width="139" height="48" viewBox="0 0 139 48" fill="none" xmlns="http://www.w3.org/2000/svg">
<rect x="1" y="1" width="137" height="46" rx="9" fill="white" stroke="#F5BB16" stroke-width="2"/>
<path d="M43.9473 27.4756H45.6494C46.6338 27.4756 47.3926 27.1794 47.9258 26.5869C48.459 25.9945 48.7256 25.1491 48.7256 24.0508C48.7256 22.9753 48.4544 22.1413 47.9121 21.5488C47.3743 20.9564 46.6201 20.6602 45.6494 20.6602H43.9473V23.2715H45.5332V24.666H43.9473V27.4756ZM42.1836 19.1357H45.8818C47.3493 19.1357 48.4886 19.5641 49.2998 20.4209C50.1156 21.2731 50.5234 22.474 50.5234 24.0234C50.5234 25.6048 50.1178 26.8307 49.3066 27.7012C48.5 28.5671 47.3584 29 45.8818 29H42.1836V24.666H41.2266V23.2715H42.1836V19.1357ZM54.8779 27.79C55.3883 27.79 55.8145 27.6442 56.1562 27.3525C56.498 27.0563 56.6689 26.6917 56.6689 26.2588V25.6641L54.9805 25.7734C54.0508 25.8327 53.5859 26.1699 53.5859 26.7852C53.5859 27.0951 53.7044 27.3411 53.9414 27.5234C54.1829 27.7012 54.4951 27.79 54.8779 27.79ZM54.3789 29.123C53.6497 29.123 53.055 28.918 52.5947 28.5078C52.1344 28.0977 51.9043 27.5553 51.9043 26.8809C51.9043 26.2064 52.1481 25.6777 52.6357 25.2949C53.1279 24.9121 53.8298 24.6934 54.7412 24.6387L56.6689 24.5225V23.8936C56.6689 23.5244 56.5482 23.2419 56.3066 23.0459C56.0651 22.8499 55.7165 22.752 55.2607 22.752C54.8688 22.752 54.5452 22.8203 54.29 22.957C54.0348 23.0892 53.8685 23.2806 53.791 23.5312H52.1914C52.2598 22.8704 52.5788 22.3464 53.1484 21.959C53.7227 21.5671 54.4541 21.3711 55.3428 21.3711C56.2998 21.3711 57.0381 21.5921 57.5576 22.0342C58.0817 22.4762 58.3438 23.096 58.3438 23.8936V29H56.71V27.9746H56.5938C56.3841 28.3346 56.0833 28.6172 55.6914 28.8223C55.304 29.0228 54.8665 29.123 54.3789 29.123ZM52.6904 18.165H53.9756C53.9847 18.5479 54.1077 18.8555 54.3447 19.0879C54.5863 19.3203 54.9167 19.4365 55.3359 19.4365C55.7552 19.4365 56.0833 19.3203 56.3203 19.0879C56.5618 18.8555 56.6872 18.5479 56.6963 18.165H57.9814C57.9814 18.8577 57.7422 19.4206 57.2637 19.8535C56.7897 20.2865 56.1471 20.5029 55.3359 20.5029C54.5247 20.5029 53.8799 20.2865 53.4014 19.8535C52.9274 19.4206 52.6904 18.8577 52.6904 18.165ZM60.3877 29V21.5215H62.0215V22.7178H62.1377C62.32 22.2894 62.598 21.959 62.9717 21.7266C63.3499 21.4896 63.8125 21.3711 64.3594 21.3711C65.1888 21.3711 65.8245 21.6126 66.2666 22.0957C66.7132 22.5788 66.9365 23.2669 66.9365 24.1602V29H65.2412V24.5635C65.2412 23.4196 64.7376 22.8477 63.7305 22.8477C63.2246 22.8477 62.8236 23.0094 62.5273 23.333C62.2311 23.6566 62.083 24.0941 62.083 24.6455V29H60.3877ZM70.792 26.8877C71.1156 27.3024 71.5713 27.5098 72.1592 27.5098C72.7471 27.5098 73.2096 27.3001 73.5469 26.8809C73.8841 26.4616 74.0527 25.8942 74.0527 25.1787C74.0527 24.4632 73.8841 23.8958 73.5469 23.4766C73.2096 23.0527 72.7471 22.8408 72.1592 22.8408C71.5758 22.8408 71.1201 23.0505 70.792 23.4697C70.4684 23.889 70.3066 24.4587 70.3066 25.1787C70.3066 25.8988 70.4684 26.4684 70.792 26.8877ZM72.1592 31.8438C71.2067 31.8438 70.432 31.6501 69.835 31.2627C69.2425 30.8753 68.9121 30.3581 68.8438 29.7109H70.5459C70.6006 29.9707 70.7715 30.1758 71.0586 30.3262C71.3503 30.4766 71.7262 30.5518 72.1865 30.5518C72.7653 30.5518 73.2165 30.4219 73.54 30.1621C73.8636 29.9023 74.0254 29.5378 74.0254 29.0684V27.6533H73.9092C73.695 28.0544 73.3896 28.362 72.9932 28.5762C72.6012 28.7858 72.1455 28.8906 71.626 28.8906C70.6872 28.8906 69.9421 28.5557 69.3906 27.8857C68.8392 27.2113 68.5635 26.3089 68.5635 25.1787C68.5635 24.0303 68.8415 23.1143 69.3975 22.4307C69.9535 21.7425 70.7054 21.3984 71.6533 21.3984C72.1637 21.3984 72.6263 21.5169 73.041 21.7539C73.4557 21.9909 73.7656 22.3122 73.9707 22.7178H74.0869V21.5215H75.7207V29.0273C75.7207 29.8932 75.3994 30.5791 74.7568 31.085C74.1143 31.5908 73.2484 31.8438 72.1592 31.8438ZM83.418 24.5703L86.1797 21.5215H88.1484L85.168 24.7275L88.3535 29H86.3027L83.9033 25.7939L83.3018 26.3955V29H81.6064V18.6299H83.3018V24.5703H83.418ZM90.4795 31.7139C90.1286 31.7139 89.9053 31.7048 89.8096 31.6865V30.2988C89.8962 30.3171 90.0511 30.3262 90.2744 30.3262C90.6344 30.3262 90.9193 30.251 91.1289 30.1006C91.3431 29.9502 91.5049 29.7041 91.6143 29.3623L91.7031 29.0342L89.0303 21.5215H90.8896L92.6396 27.3594H92.7559L94.499 21.5215H96.29L93.5898 29.2393C93.2754 30.1644 92.888 30.807 92.4277 31.167C91.972 31.5316 91.3226 31.7139 90.4795 31.7139ZM93.3643 20.2842H91.71L93.4121 17.9121H95.3057L93.3643 20.2842Z" fill="#F5BB16"/>
</svg>
