<svg width="49" height="48" viewBox="0 0 49 48" fill="none" xmlns="http://www.w3.org/2000/svg">
<path d="M44.111 20.083H42.5V20H24.5V28H35.803C34.154 32.657 29.723 36 24.5 36C17.873 36 12.5 30.627 12.5 24C12.5 17.373 17.873 12 24.5 12C27.559 12 30.342 13.154 32.461 15.039L38.118 9.382C34.546 6.053 29.768 4 24.5 4C13.455 4 4.5 12.955 4.5 24C4.5 35.045 13.455 44 24.5 44C35.545 44 44.5 35.045 44.5 24C44.5 22.659 44.362 21.35 44.111 20.083Z" fill="#FFC107"/>
<path d="M6.80469 14.691L13.3757 19.51C15.1537 15.108 19.4597 12 24.4987 12C27.5577 12 30.3407 13.154 32.4597 15.039L38.1167 9.382C34.5447 6.053 29.7667 4 24.4987 4C16.8167 4 10.1547 8.337 6.80469 14.691Z" fill="#FF3D00"/>
<path d="M24.5003 44.0002C29.6663 44.0002 34.3603 42.0232 37.9093 38.8082L31.7193 33.5702C29.6439 35.1486 27.1078 36.0023 24.5003 36.0002C19.2983 36.0002 14.8813 32.6832 13.2173 28.0542L6.69531 33.0792C10.0053 39.5562 16.7273 44.0002 24.5003 44.0002Z" fill="#4CAF50"/>
<path d="M44.111 20.083H42.5V20H24.5V28H35.803C35.0142 30.2164 33.5934 32.1532 31.716 33.571L31.719 33.569L37.909 38.807C37.471 39.205 44.5 34 44.5 24C44.5 22.659 44.362 21.35 44.111 20.083Z" fill="#1976D2"/>
</svg>
