<svg width="75" height="75" viewBox="0 0 75 75" fill="none" xmlns="http://www.w3.org/2000/svg">
<path fill-rule="evenodd" clip-rule="evenodd" d="M37.5 75C58.2107 75 75 58.2107 75 37.5C75 16.7893 58.2107 0 37.5 0C16.7893 0 0 16.7893 0 37.5C0 58.2107 16.7893 75 37.5 75Z" fill="#EFEFF4"/>
<path d="M27.8506 58.5V52.4502H30.0625V51.4541H24.54V52.4502H26.7568V58.5H27.8506ZM35.4529 51.4541H34.3592V56.0732C34.3592 57.6016 35.4432 58.6709 37.2107 58.6709C38.9783 58.6709 40.0672 57.6016 40.0672 56.0732V51.4541H38.9734V55.9756C38.9734 56.9619 38.3338 57.6455 37.2107 57.6455C36.0926 57.6455 35.4529 56.9619 35.4529 55.9756V51.4541ZM47.9625 58.5L50.4674 51.4541H49.3053L47.4156 57.1328H47.3326L45.4332 51.4541H44.2418L46.7613 58.5H47.9625Z" fill="black"/>
<path d="M37.4824 45.4219C42.8613 45.4219 46.6934 42.3984 46.6934 38.1445C46.6934 34.998 44.5137 32.3965 41.2266 31.623V31.5527C43.9863 30.6738 45.6562 28.5293 45.6562 25.8926C45.6562 22.0254 42.2285 19.2129 37.4824 19.2129C32.7715 19.2129 29.291 22.043 29.291 25.875C29.291 28.5469 30.9961 30.709 33.7383 31.5527V31.623C30.4688 32.3789 28.2891 34.9805 28.2891 38.1445C28.2891 42.3809 32.1211 45.4219 37.4824 45.4219ZM37.4824 42.6621C34.002 42.6621 31.5059 40.6758 31.5059 37.916C31.5059 35.1387 34.002 33.1523 37.4824 33.1523C40.9805 33.1523 43.459 35.1211 43.459 37.916C43.459 40.6758 40.9805 42.6621 37.4824 42.6621ZM37.4824 30.375C34.5117 30.375 32.4375 28.6348 32.4375 26.1738C32.4375 23.6953 34.5117 21.9375 37.4824 21.9375C40.4531 21.9375 42.5273 23.6777 42.5273 26.1738C42.5273 28.6348 40.4355 30.375 37.4824 30.375Z" fill="black"/>
</svg>
