<svg width="49" height="48" viewBox="0 0 49 48" fill="none" xmlns="http://www.w3.org/2000/svg">
<circle cx="24.5" cy="24" r="20" fill="black"/>
<path d="M28.8644 18.4155C26.9744 18.4155 26.1757 19.3174 24.8594 19.3174C23.5099 19.3174 22.4805 18.4221 20.8427 18.4221C19.2396 18.4221 17.53 19.4008 16.4444 21.0682C14.92 23.4194 15.1788 27.8477 17.6477 31.6202C18.5308 32.9707 19.7102 34.4852 21.2571 34.5016H21.2852C22.6296 34.5016 23.0289 33.6213 24.8791 33.611H24.9072C26.7297 33.611 27.0953 34.4965 28.4341 34.4965H28.4622C30.0091 34.4801 31.2517 32.8019 32.1349 31.4566C32.7705 30.4891 33.0067 30.0035 33.4942 28.909C29.9228 27.5533 29.3491 22.4904 32.8811 20.5493C31.803 19.1993 30.288 18.4174 28.8597 18.4174L28.8644 18.4155Z" fill="white"/>
<path d="M28.4486 13.5C27.3236 13.5764 26.0111 14.2927 25.2423 15.2278C24.5448 16.0753 23.9711 17.3325 24.1961 18.5517H24.2861C25.4842 18.5517 26.7105 17.8303 27.4267 16.9059C28.1167 16.0261 28.6398 14.7792 28.4486 13.5Z" fill="white"/>
</svg>
