<svg width="295" height="48" viewBox="0 0 295 48" fill="none" xmlns="http://www.w3.org/2000/svg">
<rect width="295" height="48" rx="10" fill="#F5BB16"/>
<path d="M115.869 29L119.096 24.0303L115.896 19.1357H117.981L120.23 22.7588H120.347L122.63 19.1357H124.612L121.304 24.0713L124.558 29H122.521L120.23 25.459H120.114L117.79 29H115.869ZM128.563 27.79C129.074 27.79 129.5 27.6442 129.842 27.3525C130.184 27.0563 130.354 26.6917 130.354 26.2588V25.6641L128.666 25.7734C127.736 25.8327 127.271 26.1699 127.271 26.7852C127.271 27.0951 127.39 27.3411 127.627 27.5234C127.868 27.7012 128.181 27.79 128.563 27.79ZM128.064 29.123C127.335 29.123 126.741 28.918 126.28 28.5078C125.82 28.0977 125.59 27.5553 125.59 26.8809C125.59 26.2064 125.834 25.6777 126.321 25.2949C126.813 24.9121 127.515 24.6934 128.427 24.6387L130.354 24.5225V23.8936C130.354 23.5244 130.234 23.2419 129.992 23.0459C129.751 22.8499 129.402 22.752 128.946 22.752C128.554 22.752 128.231 22.8203 127.976 22.957C127.72 23.0892 127.554 23.2806 127.477 23.5312H125.877C125.945 22.8704 126.264 22.3464 126.834 21.959C127.408 21.5671 128.14 21.3711 129.028 21.3711C129.985 21.3711 130.724 21.5921 131.243 22.0342C131.767 22.4762 132.029 23.096 132.029 23.8936V29H130.396V27.9746H130.279C130.07 28.3346 129.769 28.6172 129.377 28.8223C128.99 29.0228 128.552 29.123 128.064 29.123ZM129.726 20.2842H128.071L129.773 17.9121H131.667L129.726 20.2842ZM140.533 24.0371H138.92C138.838 23.6589 138.656 23.3581 138.373 23.1348C138.09 22.9069 137.724 22.793 137.272 22.793C136.689 22.793 136.233 23.0072 135.905 23.4355C135.582 23.8639 135.42 24.4655 135.42 25.2402C135.42 26.0241 135.584 26.6348 135.912 27.0723C136.24 27.5098 136.694 27.7285 137.272 27.7285C137.715 27.7285 138.077 27.626 138.359 27.4209C138.646 27.2158 138.833 26.9196 138.92 26.5322H140.533C140.438 27.3298 140.103 27.9655 139.528 28.4395C138.959 28.9134 138.209 29.1504 137.279 29.1504C136.154 29.1504 135.276 28.8063 134.647 28.1182C134.019 27.43 133.704 26.4707 133.704 25.2402C133.704 24.0234 134.019 23.0755 134.647 22.3965C135.276 21.7129 136.151 21.3711 137.272 21.3711C138.211 21.3711 138.965 21.6149 139.535 22.1025C140.109 22.5856 140.442 23.2305 140.533 24.0371ZM145.886 29V21.5215H147.52V22.7178H147.636C147.818 22.2894 148.096 21.959 148.47 21.7266C148.848 21.4896 149.311 21.3711 149.857 21.3711C150.687 21.3711 151.323 21.6126 151.765 22.0957C152.211 22.5788 152.435 23.2669 152.435 24.1602V29H150.739V24.5635C150.739 23.4196 150.236 22.8477 149.229 22.8477C148.723 22.8477 148.322 23.0094 148.025 23.333C147.729 23.6566 147.581 24.0941 147.581 24.6455V29H145.886ZM154.513 29V18.6299H156.181V22.7314H156.304C156.481 22.3076 156.766 21.9772 157.158 21.7402C157.55 21.5033 158.022 21.3848 158.573 21.3848C159.38 21.3848 160.009 21.6286 160.46 22.1162C160.916 22.6038 161.144 23.2897 161.144 24.1738V29H159.448V24.5771C159.448 24.012 159.321 23.5859 159.065 23.2988C158.81 23.0072 158.437 22.8613 157.944 22.8613C157.397 22.8613 156.971 23.0254 156.666 23.3535C156.361 23.6771 156.208 24.1123 156.208 24.6592V29H154.513ZM165.71 27.79C166.22 27.79 166.646 27.6442 166.988 27.3525C167.33 27.0563 167.501 26.6917 167.501 26.2588V25.6641L165.812 25.7734C164.883 25.8327 164.418 26.1699 164.418 26.7852C164.418 27.0951 164.536 27.3411 164.773 27.5234C165.015 27.7012 165.327 27.79 165.71 27.79ZM165.211 29.123C164.482 29.123 163.887 28.918 163.427 28.5078C162.966 28.0977 162.736 27.5553 162.736 26.8809C162.736 26.2064 162.98 25.6777 163.468 25.2949C163.96 24.9121 164.662 24.6934 165.573 24.6387L167.501 24.5225V23.8936C167.501 23.5244 167.38 23.2419 167.139 23.0459C166.897 22.8499 166.549 22.752 166.093 22.752C165.701 22.752 165.377 22.8203 165.122 22.957C164.867 23.0892 164.701 23.2806 164.623 23.5312H163.023C163.092 22.8704 163.411 22.3464 163.98 21.959C164.555 21.5671 165.286 21.3711 166.175 21.3711C167.132 21.3711 167.87 21.5921 168.39 22.0342C168.914 22.4762 169.176 23.096 169.176 23.8936V29H167.542V27.9746H167.426C167.216 28.3346 166.915 28.6172 166.523 28.8223C166.136 29.0228 165.699 29.123 165.211 29.123ZM167.057 18.124L168.95 20.5029H167.316L166.229 19.0332H166.113L165.026 20.5029H163.393L165.286 18.124H167.057ZM166.749 31.5977C166.562 31.7891 166.327 31.8848 166.045 31.8848C165.762 31.8848 165.528 31.7891 165.341 31.5977C165.154 31.4108 165.061 31.1784 165.061 30.9004C165.061 30.6178 165.152 30.3809 165.334 30.1895C165.521 30.0026 165.758 29.9092 166.045 29.9092C166.327 29.9092 166.562 30.0026 166.749 30.1895C166.936 30.3809 167.029 30.6178 167.029 30.9004C167.029 31.1784 166.936 31.4108 166.749 31.5977ZM171.22 29V21.5215H172.854V22.7178H172.97C173.152 22.2894 173.43 21.959 173.804 21.7266C174.182 21.4896 174.645 21.3711 175.191 21.3711C176.021 21.3711 176.657 21.6126 177.099 22.0957C177.545 22.5788 177.769 23.2669 177.769 24.1602V29H176.073V24.5635C176.073 23.4196 175.57 22.8477 174.562 22.8477C174.057 22.8477 173.656 23.0094 173.359 23.333C173.063 23.6566 172.915 24.0941 172.915 24.6455V29H171.22Z" fill="white"/>
</svg>
