<svg width="75" height="75" viewBox="0 0 75 75" fill="none" xmlns="http://www.w3.org/2000/svg">
<path fill-rule="evenodd" clip-rule="evenodd" d="M37.5 75C58.2107 75 75 58.2107 75 37.5C75 16.7893 58.2107 0 37.5 0C16.7893 0 0 16.7893 0 37.5C0 58.2107 16.7893 75 37.5 75Z" fill="#EFEFF4"/>
<path d="M32.9355 55.7119V54.833H30.0449V55.751H31.8613V55.9023C31.8516 56.9473 31.0605 57.6504 29.9082 57.6504C28.585 57.6504 27.7549 56.625 27.7549 54.9648C27.7549 53.334 28.5801 52.3037 29.8838 52.3037C30.8457 52.3037 31.5146 52.7676 31.7881 53.6172H32.8867C32.6475 52.1914 31.4854 51.2832 29.8838 51.2832C27.9111 51.2832 26.6367 52.7285 26.6367 54.9746C26.6367 57.25 27.8965 58.6709 29.8936 58.6709C31.7393 58.6709 32.9355 57.5137 32.9355 55.7119ZM43.1795 58.5V51.4541H42.0906V54.4131H38.4725V51.4541H37.3787V58.5H38.4725V55.4092H42.0906V58.5H43.1795ZM48.9752 58.5V51.4541H47.8814V58.5H48.9752Z" fill="black"/>
<path d="M40.7168 45H43.7754V39.7266H47.3613V36.9492H43.7754V19.6348H39.0996C33.1055 28.2305 30.1348 32.8535 27.9727 36.8613V39.7266H40.7168V45ZM31.1016 36.8789C33.1055 33.3633 35.8652 29.127 40.6641 22.2715H40.7168V36.9492H31.1016V36.8789Z" fill="black"/>
</svg>
