<svg width="81" height="48" viewBox="0 0 81 48" fill="none" xmlns="http://www.w3.org/2000/svg">
<path d="M0 8C0 3.58172 3.58172 0 8 0H73C77.4183 0 81 3.58172 81 8V40C81 44.4183 77.4183 48 73 48H8C3.58172 48 0 44.4183 0 40V8Z" fill="#F5BB16"/>
<path d="M19.001 27.4756H20.7031C21.6875 27.4756 22.4463 27.1794 22.9795 26.5869C23.5127 25.9945 23.7793 25.1491 23.7793 24.0508C23.7793 22.9753 23.5081 22.1413 22.9658 21.5488C22.4281 20.9564 21.6738 20.6602 20.7031 20.6602H19.001V23.2715H20.5869V24.666H19.001V27.4756ZM17.2373 19.1357H20.9355C22.403 19.1357 23.5423 19.5641 24.3535 20.4209C25.1693 21.2731 25.5771 22.474 25.5771 24.0234C25.5771 25.6048 25.1715 26.8307 24.3604 27.7012C23.5537 28.5671 22.4121 29 20.9355 29H17.2373V24.666H16.2803V23.2715H17.2373V19.1357ZM30.6426 29.1504C29.5215 29.1504 28.6419 28.8063 28.0039 28.1182C27.3659 27.4255 27.0469 26.473 27.0469 25.2607C27.0469 24.0576 27.3682 23.1097 28.0107 22.417C28.6533 21.7197 29.5306 21.3711 30.6426 21.3711C31.7591 21.3711 32.6364 21.7174 33.2744 22.4102C33.917 23.1029 34.2383 24.0531 34.2383 25.2607C34.2383 26.473 33.917 27.4255 33.2744 28.1182C32.6364 28.8063 31.7591 29.1504 30.6426 29.1504ZM29.2686 27.0859C29.5921 27.5143 30.0501 27.7285 30.6426 27.7285C31.235 27.7285 31.6908 27.5143 32.0098 27.0859C32.3333 26.653 32.4951 26.0446 32.4951 25.2607C32.4951 24.4814 32.3333 23.8753 32.0098 23.4424C31.6862 23.0094 31.2305 22.793 30.6426 22.793C30.0501 22.793 29.5921 23.0094 29.2686 23.4424C28.945 23.8753 28.7832 24.4814 28.7832 25.2607C28.7832 26.0446 28.945 26.653 29.2686 27.0859ZM31.5244 18.2129L33.4248 20.5029H31.7773L30.7041 19.1221H30.5811L29.5078 20.5029H27.8604L29.7607 18.2129H31.5244ZM33.958 18.0283H32.5361L30.9844 15.8203H32.6523L33.958 18.0283ZM35.9473 29V21.5215H37.5811V22.7178H37.6973C37.8796 22.2894 38.1576 21.959 38.5312 21.7266C38.9095 21.4896 39.3721 21.3711 39.9189 21.3711C40.7484 21.3711 41.3841 21.6126 41.8262 22.0957C42.2728 22.5788 42.4961 23.2669 42.4961 24.1602V29H40.8008V24.5635C40.8008 23.4196 40.2972 22.8477 39.29 22.8477C38.7842 22.8477 38.3831 23.0094 38.0869 23.333C37.7907 23.6566 37.6426 24.0941 37.6426 24.6455V29H35.9473ZM46.3516 26.8877C46.6751 27.3024 47.1309 27.5098 47.7188 27.5098C48.3066 27.5098 48.7692 27.3001 49.1064 26.8809C49.4437 26.4616 49.6123 25.8942 49.6123 25.1787C49.6123 24.4632 49.4437 23.8958 49.1064 23.4766C48.7692 23.0527 48.3066 22.8408 47.7188 22.8408C47.1354 22.8408 46.6797 23.0505 46.3516 23.4697C46.028 23.889 45.8662 24.4587 45.8662 25.1787C45.8662 25.8988 46.028 26.4684 46.3516 26.8877ZM47.7188 31.8438C46.7663 31.8438 45.9915 31.6501 45.3945 31.2627C44.8021 30.8753 44.4717 30.3581 44.4033 29.7109H46.1055C46.1602 29.9707 46.3311 30.1758 46.6182 30.3262C46.9098 30.4766 47.2858 30.5518 47.7461 30.5518C48.3249 30.5518 48.776 30.4219 49.0996 30.1621C49.4232 29.9023 49.585 29.5378 49.585 29.0684V27.6533H49.4688C49.2546 28.0544 48.9492 28.362 48.5527 28.5762C48.1608 28.7858 47.7051 28.8906 47.1855 28.8906C46.2467 28.8906 45.5016 28.5557 44.9502 27.8857C44.3988 27.2113 44.123 26.3089 44.123 25.1787C44.123 24.0303 44.401 23.1143 44.957 22.4307C45.513 21.7425 46.265 21.3984 47.2129 21.3984C47.7233 21.3984 48.1859 21.5169 48.6006 21.7539C49.0153 21.9909 49.3252 22.3122 49.5303 22.7178H49.6465V21.5215H51.2803V29.0273C51.2803 29.8932 50.959 30.5791 50.3164 31.085C49.6738 31.5908 48.8079 31.8438 47.7188 31.8438ZM57.918 31.7139C57.5671 31.7139 57.3438 31.7048 57.248 31.6865V30.2988C57.3346 30.3171 57.4896 30.3262 57.7129 30.3262C58.0729 30.3262 58.3577 30.251 58.5674 30.1006C58.7816 29.9502 58.9434 29.7041 59.0527 29.3623L59.1416 29.0342L56.4688 21.5215H58.3281L60.0781 27.3594H60.1943L61.9375 21.5215H63.7285L61.0283 29.2393C60.7139 30.1644 60.3265 30.807 59.8662 31.167C59.4105 31.5316 58.7611 31.7139 57.918 31.7139ZM60.8027 20.2842H59.1484L60.8506 17.9121H62.7441L60.8027 20.2842Z" fill="white"/>
</svg>
