<svg width="343" height="435" viewBox="0 0 343 435" fill="none" xmlns="http://www.w3.org/2000/svg">
<circle cx="116.5" cy="429.74" r="5" fill="#D9D9D9"/>
<rect x="137.5" y="424.74" width="16" height="9.41177" rx="4.70588" fill="#F5BB16"/>
<circle cx="174.5" cy="429.74" r="5" fill="#D9D9D9"/>
<circle cx="200.5" cy="429.74" r="5" fill="#D9D9D9"/>
<circle cx="226.5" cy="429.74" r="5" fill="#D9D9D9"/>
<path d="M54.5398 232.92C65.5058 223.71 66.9241 208.232 65.3711 194.559C65.1097 192.275 65.1651 189.844 63.9291 187.926C62.693 186.007 60.0783 184.845 58.1291 185.983C56.5444 186.926 55.9423 188.966 55.1341 190.682C54.0475 192.986 52.3505 194.93 50.2374 196.291C48.8587 197.169 47.1156 197.778 45.626 197.104C43.5897 196.177 43.1459 193.47 42.9796 191.194C42.6626 186.95 42.351 182.704 42.0446 178.456C41.9924 176.167 41.5804 173.903 40.8244 171.749C39.9528 169.652 38.2493 167.774 36.0703 167.351C33.8914 166.929 31.3163 168.392 31.0627 170.66C31.0525 171.611 31.1055 172.561 31.2212 173.505C31.2662 173.977 31.1763 174.452 30.9624 174.872C30.7485 175.292 30.4199 175.639 30.0168 175.871C29.1453 176.212 28.1944 175.643 27.4655 175.058C24.9617 172.96 23.1472 170.132 21.4437 167.311C19.7401 164.49 18.0683 161.621 15.7626 159.263C13.4569 156.906 10.3826 155.199 7.14982 155.28C3.91707 155.361 0.644693 157.678 0.0900536 160.97C-0.464586 164.262 1.63512 167.351 3.85368 169.774C7.15797 173.352 10.9473 176.424 15.1049 178.895C15.9017 179.259 16.5649 179.874 16.9986 180.65C17.6087 182.13 16.3093 183.756 14.8752 184.382C13.2429 185.089 11.4047 185.064 9.66947 185.422C7.93424 185.78 6.09601 186.723 5.56514 188.454C4.83618 190.893 6.95174 193.137 8.96429 194.575C13.0201 197.457 17.5241 199.609 22.2836 200.94C23.9871 201.412 25.7699 201.802 27.1961 202.867C28.6223 203.932 29.5731 205.907 28.9155 207.582C28.2578 209.256 26.2136 209.939 24.4546 209.76C22.6956 209.582 21.0713 208.76 19.3677 208.273C16.1984 207.354 12.2367 207.907 10.446 210.776C9.91646 211.755 9.61836 212.847 9.57569 213.966C9.53303 215.084 9.74699 216.197 10.2003 217.215C11.1226 219.239 12.4322 221.052 14.0511 222.547C19.4443 228.104 26.1745 232.098 33.5586 234.123C40.9274 236.033 47.6227 236.155 54.5398 232.92" fill="#EBEBEB"/>
<path d="M55.4986 243.073C54.3596 236.768 52.6268 230.59 50.3246 224.628C47.4798 217.346 44.223 210.24 40.5709 203.347L37.7105 197.916C36.7755 196.128 35.8485 194.356 34.8343 192.681C32.8907 189.471 30.7745 186.375 28.4956 183.406C26.3325 180.553 24.1694 177.919 22.1568 175.48C20.1443 173.042 18.1951 170.806 16.3173 168.839C13.3952 165.729 10.24 162.859 6.88046 160.255C5.69195 159.328 4.74114 158.629 4.09934 158.19L3.36246 157.67C3.27831 157.611 3.19102 157.556 3.10099 157.507C3.10099 157.507 3.18022 157.58 3.33869 157.702L4.05972 158.247C4.6936 158.719 5.64441 159.418 6.80123 160.361C10.1223 162.999 13.245 165.89 16.1429 169.01C17.9891 170.977 19.9224 173.221 21.9508 175.667C23.9792 178.114 26.1185 180.748 28.2896 183.601C30.5677 186.565 32.6839 189.656 34.6283 192.86C35.6346 194.527 36.5537 196.291 37.4887 198.079L40.3252 203.517C43.947 210.401 47.1901 217.487 50.0394 224.742C52.3443 230.683 54.0953 236.834 55.2688 243.114" fill="#E0E0E0"/>
<path d="M34.7709 192.641C34.8452 192.315 34.8877 191.983 34.8976 191.649C34.961 191.015 35.0244 190.08 35.0878 188.934C35.2225 186.642 35.3017 183.471 35.381 179.992C35.4602 176.513 35.587 173.326 35.7692 171.05C35.8484 169.904 35.9356 168.985 35.999 168.343C36.0451 168.015 36.0663 167.683 36.0624 167.352C35.9644 167.669 35.8981 167.996 35.8643 168.327C35.7613 168.961 35.6424 169.888 35.5315 171.026C35.2859 173.318 35.1195 176.489 35.0402 179.968C34.961 183.447 34.9055 186.577 34.858 188.91C34.8184 190.007 34.7946 190.926 34.7709 191.625C34.7389 191.963 34.7389 192.303 34.7709 192.641V192.641Z" fill="#E0E0E0"/>
<path d="M5.43044 189.617H5.73153H6.59519C7.33999 189.617 8.41757 189.617 9.76456 189.658C12.4348 189.714 16.1033 189.926 20.1839 190.357C24.2644 190.787 27.8934 191.34 30.5239 191.82C31.8392 192.056 32.901 192.267 33.6378 192.413L34.4777 192.584C34.6758 192.584 34.7788 192.633 34.7788 192.584C34.6896 192.535 34.5933 192.503 34.4936 192.486L33.6616 192.251C32.9406 192.064 31.8788 191.812 30.5635 191.552C27.9409 191.007 24.2803 190.414 20.2156 189.975C16.1508 189.536 12.4506 189.373 9.76456 189.381C8.4255 189.381 7.38753 189.381 6.59519 189.454L5.73946 189.511C5.63168 189.53 5.52738 189.565 5.43044 189.617V189.617Z" fill="#E0E0E0"/>
<path d="M49.9601 224.108C50.0224 223.985 50.0754 223.857 50.1186 223.726C50.2295 223.441 50.3563 223.076 50.5227 222.629C50.8713 221.669 51.315 220.263 51.9013 218.564C53.0185 215.093 54.421 210.248 55.9106 204.875C57.4002 199.502 58.7551 194.657 59.8168 191.169C60.3477 189.462 60.7756 188.064 61.0925 187.04C61.2351 186.585 61.3461 186.227 61.4332 185.918C61.4819 185.79 61.5164 185.656 61.5362 185.52C61.4656 185.637 61.4096 185.762 61.3698 185.894C61.2668 186.186 61.1321 186.552 60.9657 186.999C60.6171 187.958 60.1734 189.357 59.595 191.064C58.4699 194.535 57.0674 199.38 55.5857 204.753C54.104 210.126 52.765 214.987 51.6716 218.458C51.1486 220.165 50.7128 221.564 50.4038 222.58C50.2612 223.043 50.1503 223.393 50.0552 223.71C50.0109 223.839 49.979 223.972 49.9601 224.108Z" fill="#E0E0E0"/>
<path d="M10.549 214.817C10.6717 214.877 10.8026 214.918 10.9372 214.939L12.0861 215.215L16.3173 216.207C19.8828 217.02 24.7953 218.264 30.2229 219.629C35.6504 220.995 40.5709 222.182 44.1522 222.962C45.9429 223.352 47.3929 223.653 48.3992 223.84L49.556 224.051C49.6914 224.083 49.8293 224.102 49.968 224.108C49.8421 224.049 49.7088 224.008 49.5719 223.986L48.423 223.71L44.1998 222.718C40.6342 221.905 35.7217 220.662 30.3021 219.296C24.8825 217.93 19.9541 216.743 16.3727 215.963C14.582 215.573 13.132 215.272 12.1258 215.085L10.961 214.866C10.8252 214.838 10.6874 214.822 10.549 214.817V214.817Z" fill="#E0E0E0"/>
<path d="M158.63 0.637245L101.343 18.3147L112.957 57.93L170.244 40.2525L158.63 0.637245Z" fill="white"/>
<path d="M170.254 40.2141C170.254 40.2141 170.166 39.9621 170.024 39.4906C169.881 39.0192 169.667 38.3038 169.39 37.3934C168.843 35.5562 168.035 32.8655 167.013 29.4351C164.969 22.5499 162.045 12.6731 158.479 0.650366L158.685 0.764171L101.415 18.5097L101.557 18.2415L113.157 57.8622L112.92 57.7321L154.185 45.0915L165.999 41.5066L169.168 40.5555L169.96 40.3117L170.246 40.2385L169.992 40.3279L169.2 40.5881L166.094 41.5635L154.351 45.246L113.023 58.0979L112.84 58.1548L112.785 57.9678C109.243 45.8963 105.297 32.4753 101.153 18.3553L101.098 18.1521L101.288 18.0952L158.582 0.455266L158.741 0.406494L158.788 0.569078C162.298 12.6569 165.175 22.5824 167.187 29.5001C168.17 32.9306 168.946 35.6131 169.469 37.4584C169.731 38.3526 169.921 39.0436 170.063 39.5313C170.206 40.019 170.254 40.2141 170.254 40.2141Z" fill="#E0E0E0"/>
<path d="M158.638 0.62601C158.617 0.688 158.59 0.747862 158.559 0.804843L158.289 1.30884C158.028 1.77219 157.671 2.41438 157.227 3.22728L153.226 10.2751L139.804 33.6297L139.709 33.7841L139.55 33.7191L137.799 33.0281L111.993 22.6962L104.188 19.5259L102.08 18.6398L101.534 18.4041C101.468 18.3817 101.407 18.3488 101.351 18.3066C101.42 18.3127 101.488 18.332 101.55 18.3634L102.104 18.5585L104.251 19.3714L112.096 22.4198L137.942 32.6298L139.701 33.3289L139.447 33.4183C144.756 24.2732 149.526 16.0792 152.98 10.1207L157.093 3.14599C157.568 2.3331 157.948 1.72342 158.218 1.26007L158.527 0.780457C158.59 0.67478 158.63 0.617881 158.638 0.62601Z" fill="#E0E0E0"/>
<path d="M325.331 158.898C325.331 158.898 321.615 155.126 314.373 164.547C310.576 169.317 307.09 174.338 303.938 179.578C303.938 179.578 302.131 181.496 300.942 179.757C299.754 178.017 298.526 173.53 295.879 173.757C293.233 173.985 291.712 176.781 291.355 181.244C290.999 185.707 289.881 195.47 289.77 196.348C289.66 197.226 288.978 198.372 287.956 197.323C286.934 196.275 281.792 187.349 277.79 190.097C273.789 192.844 274.803 205.477 274.89 206.85C274.977 208.224 274.613 208.745 273.947 208.94C273.282 209.135 271.816 205.964 270.239 203.485C268.662 201.006 266.42 198.396 264.249 200.193C262.078 201.989 259.772 210.826 265.255 227.059L268.274 234.375L276 235.505C292.694 236.879 300.459 232.384 301.608 229.774C302.757 227.165 299.746 225.588 297.005 224.645C294.263 223.702 290.904 223.019 290.927 222.328C290.951 221.637 291.339 221.133 292.663 220.873C293.986 220.613 306.132 218.434 307.717 213.793C309.302 209.151 299.596 206.241 298.352 205.509C297.108 204.778 298.027 203.778 298.819 203.461C299.611 203.144 308.549 199.575 312.677 198.112C316.805 196.649 319.079 194.519 318.612 191.739C318.144 188.959 313.62 188.967 311.679 188.211C309.737 187.455 311.1 185.195 311.1 185.195C315.274 180.762 319.157 176.051 322.724 171.091C329.8 161.531 325.188 158.743 325.188 158.743" fill="#EBEBEB"/>
<path d="M318.802 167.287C318.766 167.358 318.724 167.427 318.675 167.49L318.271 168.075C317.891 168.595 317.36 169.335 316.686 170.278C315.3 172.188 313.279 174.936 310.76 178.318C305.728 185.081 298.692 194.364 290.88 204.574L270.897 230.758L264.867 238.716L263.219 240.87L262.783 241.423C262.68 241.545 262.633 241.61 262.625 241.602C262.66 241.53 262.703 241.462 262.752 241.398L263.156 240.821L264.74 238.61C266.119 236.7 268.147 233.952 270.659 230.571C275.69 223.807 282.734 214.524 290.555 204.314C298.375 194.104 305.403 184.853 310.53 178.131C313.057 174.79 315.117 172.083 316.56 170.18C317.257 169.262 317.811 168.555 318.2 168.018L318.643 167.465C318.738 167.343 318.794 167.278 318.802 167.287Z" fill="#E0E0E0"/>
<path d="M297.353 180.106C297.526 180.803 297.624 181.517 297.646 182.236C297.765 183.552 297.868 185.381 297.939 187.406C298.011 189.43 298.042 191.104 298.082 192.576C298.14 193.29 298.14 194.008 298.082 194.722C297.91 194.025 297.815 193.31 297.797 192.592C297.694 191.267 297.607 189.438 297.535 187.422C297.464 185.406 297.417 183.723 297.361 182.252C297.298 181.538 297.295 180.82 297.353 180.106V180.106Z" fill="#E0E0E0"/>
<path d="M298.748 195.006C301.459 194.557 304.191 194.251 306.933 194.088C311.457 193.706 315.141 193.486 315.149 193.6C312.438 194.045 309.706 194.348 306.964 194.511C302.44 194.901 298.764 195.12 298.748 195.006Z" fill="#E0E0E0"/>
<path d="M285.603 210.679C286.313 210.735 287.018 210.852 287.71 211.029C289.01 211.281 290.793 211.63 292.773 211.955C294.754 212.281 296.553 212.524 297.86 212.695C298.573 212.753 299.281 212.87 299.976 213.045C299.263 213.107 298.546 213.091 297.836 212.996C296.513 212.898 294.667 212.703 292.71 212.37C290.753 212.037 288.931 211.647 287.647 211.321C286.945 211.183 286.26 210.968 285.603 210.679Z" fill="#E0E0E0"/>
<path d="M281.451 197.494C281.78 198.083 282.045 198.707 282.243 199.355C282.663 200.534 283.226 202.16 283.828 203.964C284.43 205.769 284.937 207.411 285.294 208.614C285.517 209.25 285.681 209.906 285.785 210.573C285.451 209.984 285.185 209.356 284.993 208.704C284.565 207.533 284.01 205.907 283.408 204.102C282.806 202.298 282.299 200.648 281.942 199.453C281.709 198.82 281.545 198.163 281.451 197.494V197.494Z" fill="#E0E0E0"/>
<path d="M268.132 209.817C268.513 210.59 268.836 211.392 269.098 212.215C269.645 213.719 270.374 215.8 271.158 218.109C271.943 220.418 272.624 222.515 273.108 224.035C273.406 224.848 273.636 225.686 273.797 226.539C273.409 225.755 273.085 224.939 272.83 224.1C272.283 222.604 271.555 220.523 270.77 218.215C269.986 215.906 269.296 213.809 268.821 212.28C268.524 211.481 268.294 210.657 268.132 209.817V209.817Z" fill="#E0E0E0"/>
<path d="M273.773 226.1C274.676 226.153 275.573 226.272 276.459 226.458C278.107 226.726 280.421 227.092 282.917 227.433C285.413 227.774 287.734 228.035 289.39 228.246C290.292 228.307 291.19 228.429 292.076 228.612C291.173 228.668 290.266 228.646 289.366 228.547C287.695 228.433 285.405 228.222 282.861 227.872C280.318 227.522 278.044 227.116 276.404 226.783C275.51 226.629 274.63 226.401 273.773 226.1V226.1Z" fill="#E0E0E0"/>
<path d="M290.357 78.9183L288.479 141.962L333.384 143.369L335.261 80.3259L290.357 78.9183Z" fill="#F5F5F5"/>
<path d="M282.09 87.2989L280.212 150.342L325.117 151.75L326.994 88.7065L282.09 87.2989Z" fill="white"/>
<path d="M325.109 151.736C325.104 151.633 325.104 151.53 325.109 151.427C325.109 151.215 325.109 150.923 325.109 150.541C325.109 149.728 325.149 148.59 325.188 147.094C325.267 144.078 325.378 139.697 325.521 134.144C325.83 123.048 326.266 107.319 326.781 88.6953L326.963 88.8904L282.061 87.5003L282.275 87.2971C281.554 110.871 280.896 132.649 280.357 150.337L280.191 150.159L312.804 151.272L321.876 151.597L324.253 151.695L325.085 151.736H324.293L321.916 151.679L312.883 151.443L280.167 150.508H280.001V150.337C280.516 132.641 281.15 110.839 281.839 87.289V87.0776H282.053L326.947 88.5083H327.137V88.7034C326.543 107.4 326.044 123.154 325.687 134.275C325.505 139.802 325.355 144.176 325.259 147.175C325.204 148.655 325.164 149.793 325.133 150.581C325.133 150.955 325.133 151.248 325.093 151.451C325.053 151.654 325.109 151.736 325.109 151.736Z" fill="#E0E0E0"/>
<path d="M309.484 101.881C309.484 102.003 304.595 101.938 298.573 101.751C292.552 101.564 287.663 101.312 287.663 101.198C287.663 101.084 292.559 101.141 298.581 101.328C304.603 101.515 309.484 101.767 309.484 101.881Z" fill="#E0E0E0"/>
<path d="M321.084 107.734C321.084 107.847 313.557 107.734 304.27 107.417C294.984 107.1 287.457 106.791 287.465 106.677C287.473 106.563 294.992 106.677 304.286 106.994C313.58 107.311 321.092 107.612 321.084 107.734Z" fill="#E0E0E0"/>
<path d="M320.917 113.448C320.917 113.562 313.382 113.448 304.096 113.131C294.81 112.814 287.29 112.505 287.29 112.391C287.29 112.278 294.826 112.391 304.112 112.708C313.398 113.026 320.917 113.326 320.917 113.448Z" fill="#E0E0E0"/>
<path d="M320.743 119.163C320.743 119.277 313.216 119.163 303.93 118.846C294.643 118.529 287.124 118.22 287.124 118.106C287.124 117.992 294.659 118.106 303.945 118.423C313.232 118.74 320.751 119.066 320.743 119.163Z" fill="#E0E0E0"/>
<path d="M320.577 124.878C320.577 124.992 313.042 124.878 303.763 124.561C294.485 124.244 286.95 123.935 286.95 123.821C286.95 123.707 294.485 123.821 303.771 124.138C313.057 124.455 320.577 124.756 320.577 124.878Z" fill="#E0E0E0"/>
<path d="M320.41 130.592C320.41 130.706 312.875 130.592 303.589 130.275C294.303 129.958 286.783 129.649 286.783 129.535C286.783 129.421 294.318 129.535 303.605 129.852C312.891 130.169 320.41 130.446 320.41 130.592Z" fill="#E0E0E0"/>
<path d="M320.236 136.307C320.236 136.421 312.701 136.307 303.422 135.99C294.144 135.673 286.609 135.364 286.617 135.25C286.625 135.136 294.144 135.25 303.43 135.567C312.717 135.884 320.244 136.185 320.236 136.307Z" fill="#E0E0E0"/>
<path d="M304.516 141.534C304.516 141.648 300.467 141.615 295.475 141.461C290.484 141.306 286.443 141.079 286.443 140.965C286.443 140.851 290.491 140.884 295.483 141.038C300.475 141.192 304.516 141.412 304.516 141.534Z" fill="#E0E0E0"/>
<path d="M192.101 29.6193L178.05 65.8254L222.189 83.8553L236.24 47.6492L192.101 29.6193Z" fill="white"/>
<path d="M236.232 47.6523L236.018 47.571L235.4 47.3272L233.023 46.3517L223.966 42.653L192.067 29.6466L192.162 29.606L178.121 65.8043L178.074 65.6905L222.207 83.7369H222.12C226.367 72.8278 229.893 63.7884 232.349 57.4721C233.585 54.3181 234.552 51.8387 235.21 50.156L236.002 48.2295L236.264 47.5629L236.018 48.2214C235.852 48.6603 235.606 49.3025 235.281 50.1398C234.631 51.8306 233.696 54.31 232.46 57.4559C230.012 63.7802 226.502 72.844 222.279 83.7775V83.8426H222.215L178.018 65.9019H177.939V65.8206C183.018 52.7492 187.812 40.3931 191.995 29.6222V29.5491H192.059L224.038 42.653L233.047 46.3598L235.424 47.3353L236.034 47.5873L236.232 47.6523Z" fill="#E0E0E0"/>
<path d="M192.705 32.5604L180.424 64.2048L221.464 80.9688L233.745 49.3243L192.705 32.5604Z" fill="#EBEBEB"/>
<path d="M180.586 64.3005L202.557 50.4812L206.662 66.414L215.235 62.3007L221.629 81.0624L180.586 64.3005Z" fill="#E0E0E0"/>
<path d="M216.138 53.2205C215.884 53.8765 215.445 54.4403 214.878 54.8406C214.311 55.2408 213.642 55.4596 212.953 55.4692C212.265 55.4788 211.59 55.2788 211.013 54.8944C210.435 54.5101 209.982 53.9588 209.711 53.3101C209.439 52.6615 209.361 51.9447 209.486 51.2505C209.612 50.5564 209.935 49.9159 210.415 49.4103C210.895 48.9047 211.511 48.5566 212.184 48.41C212.857 48.2635 213.558 48.3251 214.197 48.587C214.621 48.7599 215.008 49.017 215.336 49.3436C215.663 49.6702 215.925 50.0599 216.105 50.4904C216.285 50.9208 216.381 51.3835 216.387 51.852C216.392 52.3205 216.308 52.7856 216.138 53.2205V53.2205Z" fill="#E0E0E0"/>
<path d="M78.4765 103.506C78.7747 103.633 79.0976 103.686 79.4194 103.661C79.805 103.616 80.1633 103.435 80.4336 103.149C80.7471 102.704 81.0253 102.233 81.2655 101.742L86.4078 92.5405L88.1193 89.5002L89.0305 87.8744C89.1891 87.6154 89.3269 87.3435 89.4425 87.0615C89.5258 86.7807 89.5258 86.4807 89.4425 86.1999C89.3712 85.9108 89.2133 85.652 88.9909 85.4601C88.737 85.2758 88.4724 85.1074 88.1985 84.9561L86.4316 83.9481L82.7551 81.8346L66.3853 72.4131C66.0624 72.2359 65.6869 72.1877 65.3314 72.2777C64.9758 72.3678 64.6654 72.5898 64.46 72.9008L63.2318 75.0631C62.4395 76.4938 61.6471 77.9164 60.8548 79.3065L56.2592 87.3623C56.077 87.6793 55.8947 87.9964 55.7204 88.3134C55.5439 88.588 55.4527 88.9112 55.4589 89.2401C55.4714 89.5612 55.5855 89.8693 55.7838 90.118C56.0089 90.3573 56.2782 90.548 56.5761 90.6789L60.0387 92.6949L66.2348 96.3042L75.2041 101.564L77.6366 103.011L78.2626 103.393C78.4052 103.482 78.4765 103.531 78.4686 103.539L78.2467 103.433L77.597 103.084L75.1328 101.702L66.0922 96.5643L59.8961 92.9632L56.4256 90.9716C56.0893 90.8192 55.7852 90.6011 55.5303 90.3294C55.2827 90.0153 55.1409 89.6274 55.1262 89.2238C55.1092 88.8216 55.2144 88.424 55.4272 88.0858C55.6016 87.7687 55.7838 87.4517 55.966 87.1347L60.5062 79.0951L62.8832 74.8518L64.1272 72.6651C64.3895 72.2662 64.7867 71.9814 65.2419 71.8658C65.6971 71.7502 66.178 71.8119 66.5914 72.0392L82.9453 81.4932L86.6218 83.623L88.3729 84.6472C88.6753 84.8049 88.9665 84.9842 89.2444 85.1837C89.5207 85.4256 89.7172 85.7494 89.807 86.1104C89.9022 86.4559 89.9022 86.8217 89.807 87.1672C89.6807 87.4749 89.5296 87.7713 89.3553 88.0533L88.4283 89.6791L86.701 92.7112C84.4904 96.548 82.6997 99.6615 81.4478 101.848C81.1878 102.34 80.8911 102.81 80.5604 103.254C80.2654 103.551 79.8785 103.732 79.4669 103.767C79.218 103.785 78.9682 103.744 78.738 103.645C78.645 103.611 78.557 103.565 78.4765 103.506Z" fill="#E0E0E0"/>
<path d="M74.2929 86.842L76.2896 90.4756L72.1694 90.5569L68.0492 90.6301L70.1727 86.9151L72.2962 83.2002L74.2929 86.842Z" fill="#E0E0E0"/>
<path d="M343 241.813C343 241.935 267.212 242.033 173.756 242.033C80.2989 242.033 4.48757 241.951 4.48757 241.813C4.48757 241.675 80.2593 241.585 173.756 241.585C267.252 241.585 343 241.707 343 241.813Z" fill="#263238"/>
<path d="M88.27 190.186L64.3491 165.531L76.3769 142.867C88.4047 127.064 113.871 128.08 113.871 128.08C126.434 127.204 139.055 127.999 151.42 130.446C171.648 134.51 170.016 148.216 170.016 148.216L172.726 199.079L175.634 240.496L101.035 242.041L88.27 190.218" fill="#F5BB16"/>
<path d="M128.457 239.618L61.6393 240.431C57.9584 240.475 54.327 239.558 51.0862 237.767C47.8455 235.976 45.1016 233.369 43.1125 230.191C41.1233 227.014 39.9541 223.369 39.7146 219.601C39.4752 215.832 40.1733 212.063 41.7435 208.647L70.3154 154.288L96.3439 172.335L78.5875 210.11L132.673 211.102L128.457 239.618Z" fill="#F5BB16"/>
<path d="M167.655 139.924L221.273 224.856L189.991 226.953C189.991 226.953 171.307 196.754 171.727 197.372C172.472 198.51 167.655 139.924 167.655 139.924Z" fill="#F5BB16"/>
<path d="M94.997 177.22C94.9989 177.071 95.0229 176.923 95.0683 176.781C95.1475 176.456 95.2347 176.049 95.3535 175.545C95.5991 174.481 95.9636 172.936 96.336 171.018C96.7084 169.099 97.1284 166.79 97.3898 164.222C97.7117 161.438 97.7117 158.625 97.3898 155.841C96.9599 153.08 96.0214 150.429 94.6246 148.029C93.5019 146.053 92.1736 144.207 90.6628 142.525C89.6446 141.376 88.5597 140.29 87.4142 139.274C86.9776 138.923 86.5597 138.549 86.1623 138.152C86.2913 138.218 86.4134 138.297 86.5268 138.388C86.7487 138.559 87.1052 138.794 87.5172 139.144C88.7087 140.109 89.8314 141.16 90.8768 142.29C92.4385 143.959 93.8102 145.806 94.9653 147.793C96.4112 150.23 97.3801 152.934 97.8177 155.751C98.1314 158.57 98.1102 161.417 97.7543 164.23C97.4867 166.519 97.1059 168.793 96.6133 171.042C96.2013 172.969 95.821 174.505 95.4961 175.562C95.3535 176.09 95.2267 176.497 95.1396 176.773C95.1062 176.926 95.0584 177.076 94.997 177.22V177.22Z" fill="#263238"/>
<path d="M92.8417 180.147C92.7273 180.57 92.5734 180.981 92.3822 181.374C92.0652 182.187 91.5898 183.276 90.9797 184.626C89.7674 187.382 88.0481 191.17 86.0672 195.315C84.0863 199.461 82.2164 203.176 80.8298 205.883C80.1326 207.216 79.5621 208.322 79.158 209.029C78.965 209.423 78.7425 209.801 78.4924 210.159C78.6347 209.744 78.8096 209.342 79.0154 208.956C79.4195 208.143 79.9424 207.054 80.6 205.745L85.7265 195.177C87.6677 191.056 89.4347 187.333 90.75 184.544C91.368 183.236 91.8751 182.146 92.2712 181.293C92.4298 180.895 92.6207 180.512 92.8417 180.147V180.147Z" fill="#263238"/>
<path d="M128.457 239.618C128.457 239.618 128.457 239.569 128.457 239.48C128.457 239.391 128.457 239.228 128.457 239.057C128.497 238.667 128.553 238.123 128.616 237.432C128.774 235.985 128.996 233.928 129.274 231.335C129.86 226.075 130.7 218.678 131.651 209.956L131.841 210.167H112.104L77.6287 210.11L67.1698 210.045L64.3253 210.004H63.5805H63.3269C63.4112 209.994 63.4963 209.994 63.5805 210.004H64.3253L67.1698 209.964L77.6287 209.899L112.159 209.842H131.896H132.11V210.053C131.064 218.767 130.185 226.165 129.551 231.416C129.234 234.001 128.973 236.058 128.759 237.505C128.674 238.188 128.603 238.729 128.545 239.131L128.481 239.545C128.473 239.569 128.465 239.618 128.457 239.618Z" fill="#263238"/>
<path d="M79.055 210.712C78.5764 210.169 78.1318 209.596 77.7238 208.996C75.5884 206.246 72.9441 203.956 69.943 202.257C69.3021 201.939 68.6779 201.586 68.0731 201.201C68.7764 201.37 69.4518 201.644 70.0777 202.014C73.2034 203.598 75.9064 205.939 77.9536 208.834C78.4034 209.405 78.7741 210.036 79.055 210.712V210.712Z" fill="#263238"/>
<path d="M173.835 216.093C173.777 215.861 173.74 215.624 173.724 215.386C173.669 214.89 173.597 214.215 173.502 213.361C173.32 211.606 173.074 209.061 172.813 205.915C172.266 199.615 171.64 190.901 171.086 181.276C170.531 171.652 170.143 162.921 169.921 156.605C169.81 153.443 169.731 150.915 169.699 149.118C169.699 148.265 169.699 147.59 169.659 147.086C169.647 146.85 169.647 146.614 169.659 146.379C169.703 146.612 169.727 146.848 169.731 147.086C169.731 147.582 169.794 148.265 169.842 149.118C169.929 150.923 170.048 153.467 170.198 156.589C170.491 162.905 170.927 171.619 171.482 181.252C172.036 190.885 172.623 199.583 173.066 205.891C173.304 209.004 173.494 211.581 173.629 213.353C173.692 214.166 173.74 214.882 173.78 215.377C173.819 215.614 173.838 215.853 173.835 216.093V216.093Z" fill="#263238"/>
<path d="M114.187 169.88C114.191 169.507 114.22 169.135 114.275 168.766C114.37 167.994 114.489 166.961 114.639 165.693C114.988 163.011 115.431 159.336 116.018 155.077L116.319 155.272L111.192 158.954L105.979 162.677L105.606 162.946L105.67 162.482C106.304 158.263 106.842 154.621 107.254 151.915C107.46 150.671 107.619 149.647 107.746 148.882C107.788 148.516 107.862 148.154 107.968 147.801C107.968 148.172 107.936 148.542 107.872 148.907C107.777 149.671 107.659 150.695 107.5 151.955C107.144 154.621 106.644 158.271 106.074 162.523L105.773 162.328L110.978 158.588L116.113 154.922L116.485 154.654L116.422 155.117C115.812 159.361 115.281 163.035 114.901 165.685C114.702 166.945 114.544 167.977 114.425 168.742C114.379 169.127 114.3 169.508 114.187 169.88V169.88Z" fill="#E0E0E0"/>
<path d="M144.011 173.172C143.726 172.939 143.461 172.68 143.219 172.4C142.704 171.831 142.007 171.075 141.151 170.148L134.075 162.279L134.416 162.157C134.25 164.149 134.075 166.311 133.893 168.555C133.711 170.798 133.521 173.026 133.354 175.058L133.315 175.529L133.013 175.18L126.128 167.213L124.163 164.889C123.913 164.623 123.69 164.331 123.497 164.019C123.782 164.267 124.047 164.539 124.29 164.832L126.334 167.075L133.323 174.936L132.982 175.058C133.148 173.034 133.323 170.839 133.513 168.555C133.703 166.27 133.877 164.149 134.044 162.157L134.083 161.694L134.384 162.035L141.357 170.01L143.346 172.343C143.588 172.601 143.811 172.878 144.011 173.172Z" fill="#E0E0E0"/>
<path d="M159.018 172.083C158.871 172.425 158.69 172.752 158.479 173.058L156.895 175.676L151.237 184.682L151.047 184.374L157.196 183.284L163.455 182.203L163.907 182.122L163.693 182.471L157.909 191.299L156.166 193.852C155.972 194.164 155.755 194.461 155.516 194.738C155.672 194.405 155.853 194.085 156.055 193.779L157.64 191.177L163.305 182.236L163.503 182.545L157.243 183.658L151.071 184.731L150.619 184.804L150.873 184.422L156.649 175.48L158.345 172.92C158.553 172.627 158.778 172.348 159.018 172.083V172.083Z" fill="#E0E0E0"/>
<path d="M139.059 187.837C138.91 188.176 138.73 188.5 138.52 188.804L136.936 191.43L131.286 200.429L131.088 200.12L137.252 199.031L143.52 197.941L143.972 197.868L143.71 198.25L137.926 207.086L136.222 209.623C136.033 209.936 135.816 210.23 135.573 210.501C135.731 210.169 135.911 209.848 136.112 209.541C136.524 208.891 137.062 208.021 137.696 206.948L143.361 198.006L143.56 198.315L137.3 199.429L131.128 200.494L130.676 200.575L130.93 200.185L136.706 191.243C137.403 190.186 137.974 189.325 138.409 188.682C138.606 188.385 138.823 188.102 139.059 187.837V187.837Z" fill="#E0E0E0"/>
<path d="M182.186 171.904C182.029 172.239 181.849 172.562 181.647 172.871L180.063 175.497L174.413 184.495L174.215 184.186L180.38 183.097L186.647 182.008L187.099 181.935L186.845 182.317L181.053 191.153C180.356 192.194 179.785 193.047 179.35 193.681C179.162 193.998 178.944 194.295 178.7 194.567C178.86 194.235 179.043 193.914 179.247 193.608L180.831 191.015L186.497 182.073L186.695 182.382L180.435 183.487L174.263 184.56L173.819 184.642L174.065 184.251L179.841 175.31L181.544 172.749C181.731 172.446 181.946 172.163 182.186 171.904V171.904Z" fill="#E0E0E0"/>
<path d="M207.066 212.825C206.782 212.604 206.517 212.359 206.273 212.094L204.102 209.947L196.646 202.453L196.979 202.314C196.916 204.314 196.852 206.476 196.781 208.728C196.71 210.98 196.623 213.215 196.551 215.231V215.703L196.227 215.369L188.969 207.769L186.893 205.55C186.635 205.298 186.396 205.026 186.18 204.737C186.462 204.959 186.727 205.204 186.972 205.468L189.127 207.606L196.496 215.101L196.155 215.239C196.219 213.207 196.29 211.012 196.361 208.736C196.433 206.46 196.52 204.322 196.591 202.322V201.859L196.908 202.184L204.253 209.793L206.353 212.02C206.612 212.268 206.85 212.537 207.066 212.825V212.825Z" fill="#E0E0E0"/>
<path d="M81.2022 158.849C81.0472 159.185 80.8671 159.508 80.6634 159.816L79.0787 162.442L73.4293 171.449L73.2313 171.14L79.3957 170.042L85.6631 168.961L86.1147 168.88L85.8612 169.27L80.0692 178.098L78.3736 180.634C78.1811 180.945 77.9638 181.239 77.7238 181.512C77.8757 181.18 78.056 180.861 78.2626 180.561L79.8473 177.96C81.2814 175.708 83.2465 172.619 85.5126 169.018L85.7106 169.327L79.4511 170.441L73.2788 171.514L72.8351 171.587L73.0807 171.205C75.4023 167.628 77.399 164.539 78.8569 162.263L80.5604 159.702C80.7521 159.401 80.9667 159.115 81.2022 158.849Z" fill="#E0E0E0"/>
<path d="M49.8731 219.637C50.14 219.884 50.384 220.156 50.602 220.45L52.5353 222.832L59.1038 231.148L58.7552 231.245C59.0405 229.27 59.3416 227.124 59.6664 224.888C59.9913 222.653 60.3082 220.45 60.6014 218.442L60.6648 217.979L60.95 218.353L67.3363 226.742L69.1507 229.18C69.3813 229.463 69.588 229.765 69.7688 230.083C69.5086 229.831 69.2675 229.559 69.0477 229.27L67.1461 226.896L60.6885 218.597L61.0372 218.507C60.7519 220.515 60.4429 222.694 60.118 224.953C59.7932 227.213 59.4842 229.327 59.191 231.302L59.1276 231.766L58.8424 231.4L52.3769 222.994L50.5307 220.556C50.2916 220.265 50.0719 219.958 49.8731 219.637V219.637Z" fill="#E0E0E0"/>
<path d="M121.422 180.277C121.067 180.355 120.706 180.404 120.344 180.423L117.333 180.691L106.922 181.504L107.048 181.163L111.612 185.552L116.232 190.023L116.564 190.348H116.105L105.749 190.934L102.754 191.064C102.395 191.096 102.035 191.096 101.676 191.064C102.029 190.991 102.387 190.945 102.746 190.926L105.733 190.682L116.081 189.95L115.962 190.292L111.327 185.837L106.779 181.431L106.446 181.106H106.898L117.317 180.464L120.328 180.309C120.691 180.27 121.057 180.259 121.422 180.277V180.277Z" fill="#E0E0E0"/>
<path d="M103.863 221.247C104.128 221.502 104.376 221.773 104.608 222.06L106.581 224.401L113.324 232.578L112.975 232.676C113.221 230.693 113.49 228.546 113.767 226.311C114.045 224.076 114.33 221.856 114.56 219.848L114.623 219.377L114.908 219.743L121.469 227.994L123.331 230.432C123.562 230.715 123.774 231.014 123.965 231.327C123.698 231.077 123.451 230.805 123.228 230.514L121.279 228.181L114.623 220.052L114.964 219.946C114.718 221.962 114.449 224.141 114.172 226.409C113.894 228.677 113.617 230.798 113.379 232.782L113.316 233.245L113.031 232.887L106.399 224.612L104.513 222.173C104.267 221.887 104.049 221.577 103.863 221.247V221.247Z" fill="#E0E0E0"/>
<path d="M72.4785 191.202C72.124 191.282 71.7635 191.331 71.4009 191.348L68.398 191.608L57.9866 192.421L58.1054 192.072L62.6772 196.47L67.2966 200.941L67.6294 201.266H67.1698L56.8139 201.851L53.8189 201.981C53.4682 202.012 53.1157 202.012 52.765 201.981C53.117 201.903 53.4749 201.857 53.8347 201.843L56.8218 201.599L67.1698 200.859L67.051 201.209L62.4158 196.754L57.8598 192.348L57.5349 192.023H57.9866L68.4059 191.373L71.4168 191.226C71.7696 191.191 72.1245 191.183 72.4785 191.202Z" fill="#E0E0E0"/>
<path d="M99.442 220.328C99.0872 220.405 98.7267 220.451 98.3644 220.466L95.3535 220.735L84.9421 221.547L85.0689 221.198L89.6328 225.596L94.2521 230.067L94.5849 230.392H94.1333L83.7694 230.969L80.7744 231.107C80.4159 231.139 80.0553 231.139 79.6968 231.107C80.0488 231.029 80.4067 230.983 80.7665 230.969L83.7536 230.725L94.1016 229.985L93.9827 230.335L89.3475 225.88L84.7995 221.491L84.4667 221.173H84.9183L95.3376 220.523L98.3565 220.377C98.7161 220.327 99.0794 220.311 99.442 220.328Z" fill="#E0E0E0"/>
<path d="M160.302 146.224C159.947 146.302 159.587 146.351 159.224 146.371L156.213 146.631L145.81 147.444L145.929 147.102L150.493 151.492L155.112 155.963L155.445 156.288H154.993L144.629 156.873L141.634 157.003C141.276 157.035 140.915 157.035 140.557 157.003C140.909 156.926 141.266 156.879 141.626 156.865L144.613 156.621L154.969 155.89L154.843 156.231L150.223 151.785L145.675 147.379L145.342 147.054H145.794L156.213 146.403L159.232 146.257C159.587 146.219 159.945 146.208 160.302 146.224V146.224Z" fill="#E0E0E0"/>
<path d="M130.7 220.328C130.7 220.328 144.027 216.385 148.44 215.231C150.16 214.784 157.521 218.767 162.607 222.084C162.607 222.084 169.612 226.343 169.049 227.652C168.423 229.099 165.88 228.806 161.72 226.839C161.72 226.839 163.162 231.123 160.333 231.026C160.333 231.026 161.736 235.659 159.089 236.139C156.443 236.618 155.825 230.709 153.496 230.392C151.166 230.075 146.364 229.749 146.364 229.749C146.364 229.749 142.347 236.578 139.233 237.066C136.119 237.553 128.933 236.683 128.933 236.683L130.7 220.328Z" fill="#FFBE9D"/>
<path d="M153.448 221.271C154.753 221.867 156 222.589 157.172 223.425C158.416 224.147 159.589 224.991 160.674 225.945C158.122 224.634 155.702 223.068 153.448 221.271V221.271Z" fill="#EB996E"/>
<path d="M152.664 223.929C154.186 224.421 155.665 225.043 157.085 225.791C158.553 226.403 159.968 227.14 161.316 227.994C159.793 227.507 158.314 226.887 156.895 226.14C155.424 225.531 154.008 224.792 152.664 223.929Z" fill="#EB996E"/>
<path d="M154.09 230.278C156.103 230.27 158.107 230.544 160.048 231.091C158.035 231.097 156.031 230.823 154.09 230.278V230.278Z" fill="#EB996E"/>
<path d="M113.356 79.2333C113.512 79.76 113.515 80.3225 113.362 80.8506C113.209 81.3787 112.908 81.8489 112.497 82.2026C112.085 82.5564 111.581 82.7779 111.048 82.8397C110.514 82.9014 109.975 82.8007 109.497 82.5499C107.69 81.6151 107.46 79.0544 107.817 77.0141C108.174 74.9737 108.847 72.787 108.015 70.8929C107.373 69.446 105.987 68.5274 104.909 67.3893C103.958 66.4001 103.244 65.1983 102.822 63.8782C102.4 62.558 102.282 61.1555 102.477 59.7806C102.705 58.4099 103.298 57.1304 104.19 56.0833C105.082 55.0362 106.238 54.2622 107.532 53.8465C110.186 53.0905 113.459 53.9277 115.455 51.9524C116.889 50.5217 116.977 48.1887 118.086 46.4816C119.805 43.8315 123.442 43.4088 126.516 43.8397C129.591 44.2705 132.712 45.2866 135.723 44.5144C138.235 43.8722 140.295 42.0757 142.656 40.9701C145.23 39.7633 148.106 39.4117 150.884 39.9646C153.662 40.5175 156.202 41.9472 158.149 44.0538C160.095 46.1604 161.352 48.8385 161.742 51.7137C162.132 54.5889 161.637 57.5173 160.326 60.0895C159.451 61.9719 157.963 63.4815 156.118 64.3572" fill="#263238"/>
<path d="M128.648 146.387C130.668 146.383 132.668 145.967 134.531 145.165C136.394 144.362 138.083 143.188 139.5 141.71C140.917 140.233 142.035 138.481 142.787 136.557C143.54 134.634 143.913 132.576 143.884 130.503L143.686 115.562C143.686 115.562 155.92 114.302 156.728 101.865C157.537 89.4272 156.958 60.7238 156.958 60.7238C150.227 57.2977 142.726 55.7755 135.23 56.3142C127.735 56.8529 120.514 59.433 114.314 63.7884L112.444 65.1134L113.356 130.909C113.404 135.036 115.037 138.976 117.9 141.874C120.763 144.772 124.626 146.394 128.648 146.387V146.387Z" fill="#FFBE9D"/>
<path d="M153.757 83.2978C153.315 83.2456 152.906 83.0283 152.61 82.6873C152.314 82.3463 152.15 81.9054 152.15 81.4485C152.15 80.9916 152.314 80.5507 152.61 80.2097C152.906 79.8687 153.315 79.6514 153.757 79.5991C153.853 79.5747 153.954 79.5747 154.05 79.5991C154.493 79.6514 154.901 79.8687 155.197 80.2097C155.494 80.5507 155.657 80.9916 155.657 81.4485C155.657 81.9054 155.494 82.3463 155.197 82.6873C154.901 83.0283 154.493 83.2456 154.05 83.2978C153.953 83.3141 153.854 83.3141 153.757 83.2978Z" fill="#263238"/>
<path d="M156.134 79.2821C155.936 79.4934 154.795 78.4692 153.123 78.3797C151.451 78.2903 150.191 79.0951 150.025 78.8675C149.859 78.6399 150.144 78.3879 150.699 78.0058C151.44 77.5179 152.314 77.287 153.192 77.347C154.071 77.407 154.908 77.7547 155.579 78.3391C156.079 78.7943 156.237 79.2333 156.134 79.2821Z" fill="#263238"/>
<path d="M136.809 79.7047C137.096 79.9089 137.318 80.196 137.447 80.5296C137.575 80.8633 137.604 81.2285 137.53 81.579C137.456 81.9296 137.282 82.2498 137.031 82.499C136.779 82.7482 136.461 82.9152 136.117 82.979C135.773 83.0428 135.418 83.0004 135.098 82.8572C134.777 82.714 134.505 82.4765 134.316 82.1746C134.127 81.8728 134.03 81.5203 134.036 81.1616C134.043 80.803 134.153 80.4544 134.353 80.1599C134.62 79.7658 135.028 79.4965 135.489 79.4112C135.949 79.3259 136.424 79.4314 136.809 79.7047V79.7047Z" fill="#263238"/>
<path d="M137.91 79.7782C137.704 79.9895 136.563 78.9653 134.899 78.8758C133.235 78.7864 131.968 79.5912 131.793 79.3636C131.706 79.2579 131.92 78.884 132.467 78.5019C133.208 78.014 134.082 77.7831 134.961 77.8431C135.839 77.9031 136.676 78.2508 137.348 78.8352C137.847 79.2904 138.005 79.6887 137.91 79.7782Z" fill="#263238"/>
<path d="M143.884 94.2964C143.884 94.1664 144.922 94.0038 146.618 93.8575C147.054 93.8575 147.41 93.7518 147.45 93.516C147.482 93.0678 147.397 92.619 147.204 92.2154C146.832 91.053 146.46 89.8824 146.063 88.6549C144.479 83.5905 143.441 79.4204 143.686 79.3391C143.932 79.2578 145.406 83.2979 146.967 88.3623C147.331 89.5979 147.688 90.801 148.028 91.939C148.28 92.5308 148.33 93.1922 148.171 93.8168C148.1 93.9855 147.992 94.1346 147.854 94.2518C147.716 94.3691 147.553 94.4513 147.379 94.4915C147.132 94.5481 146.878 94.5673 146.626 94.5484C144.915 94.5159 143.884 94.4346 143.884 94.2964Z" fill="#263238"/>
<path d="M138.338 95.8896C140.885 97.2309 143.599 98.2073 146.404 98.7917C145.789 99.6585 144.906 100.286 143.899 100.573C142.892 100.859 141.82 100.787 140.858 100.369C137.284 98.7998 138.338 95.8896 138.338 95.8896Z" fill="white"/>
<path d="M143.734 115.383C138.125 115.178 132.702 113.265 128.156 109.888C128.156 109.888 131.421 119.049 143.583 118.61L143.734 115.383Z" fill="#EB996E"/>
<path d="M157.061 63.8697C157.061 63.8697 149.732 67.6903 140.026 62.9592C133.687 59.854 126.263 58.4151 124.662 59.7564C123.062 61.0977 122.848 67.7635 116.636 69.8364C116.636 69.8364 117.309 82.5664 112.349 82.2087C107.389 81.851 110.115 62.0732 110.115 62.0732L122.103 55.7651L135.264 52.9443L147.743 54.497L157.426 57.0088L157.061 63.8697Z" fill="#263238"/>
<path d="M113.253 78.1198C113.054 78.0141 105.052 75.1202 104.87 83.6475C104.687 92.1748 113.062 90.6059 113.078 90.362C113.094 90.1181 113.253 78.1198 113.253 78.1198Z" fill="#FFBE9D"/>
<path d="M110.606 87.0695C110.606 87.0695 110.456 87.1752 110.21 87.2809C109.862 87.4259 109.472 87.4259 109.124 87.2809C108.253 86.9313 107.54 85.4844 107.54 83.948C107.539 83.2156 107.693 82.4916 107.991 81.8263C108.077 81.5623 108.223 81.3232 108.417 81.1293C108.612 80.9355 108.849 80.7926 109.109 80.7127C109.276 80.6814 109.449 80.7064 109.602 80.784C109.755 80.8616 109.879 80.9877 109.956 81.1435C110.059 81.3792 110.004 81.5499 110.043 81.5662C110.083 81.5824 110.226 81.428 110.17 81.0785C110.127 80.8658 110.015 80.6741 109.853 80.5338C109.629 80.3529 109.345 80.2684 109.061 80.2981C108.718 80.3588 108.396 80.5087 108.125 80.7336C107.855 80.9585 107.645 81.2507 107.516 81.5825C107.15 82.3144 106.96 83.1254 106.961 83.948C106.961 85.6632 107.801 87.2971 108.99 87.6792C109.212 87.7488 109.446 87.7674 109.676 87.7337C109.906 87.7 110.126 87.6147 110.321 87.4841C110.606 87.2809 110.606 87.0858 110.606 87.0695Z" fill="#EB996E"/>
<path d="M109.021 51.4323C109.969 51.147 110.982 51.1845 111.908 51.5391C112.833 51.8937 113.622 52.5465 114.156 53.3995C113.417 52.8255 112.62 52.3349 111.779 51.9363C110.879 51.6705 109.955 51.5016 109.021 51.4323V51.4323Z" fill="#263238"/>
<path d="M114.021 46.3271C114.172 46.3271 113.942 48.1237 114.227 50.2534C114.474 51.5339 114.865 52.7806 115.392 53.9684C115.392 53.9684 115.043 53.6676 114.695 53.0336C114.247 52.1897 113.952 51.2699 113.823 50.3185C113.592 48.9899 113.66 47.6248 114.021 46.3271Z" fill="#263238"/>
<path d="M148.163 75.1687C148.116 75.0711 148.472 74.7703 149.146 74.494C150.933 73.7846 152.918 73.805 154.692 74.5509C155.358 74.8435 155.714 75.1443 155.667 75.2418C155.564 75.4694 153.963 74.8273 151.911 74.8273C149.859 74.8273 148.258 75.4207 148.163 75.1687Z" fill="#263238"/>
<path d="M129.622 73.3968C129.575 73.2992 129.931 73.0066 130.605 72.7221C131.491 72.3705 132.435 72.1966 133.386 72.2099C134.34 72.2097 135.286 72.4031 136.167 72.779C136.833 73.0716 137.181 73.3724 137.142 73.4781C137.102 73.5837 135.438 73.0635 133.378 73.0553C131.318 73.0472 129.733 73.6244 129.622 73.3968Z" fill="#263238"/>
<path d="M146.729 76.5342C146.747 76.7017 146.747 76.8707 146.729 77.0382C146.729 77.3958 146.729 77.8511 146.769 78.412C146.808 78.9729 146.769 79.7289 146.816 80.5418C146.786 81.4799 146.92 82.416 147.212 83.3056C147.594 84.4596 148.256 85.4953 149.134 86.3156C150.013 87.136 151.08 87.7141 152.236 87.996C152.899 88.1623 153.583 88.2226 154.264 88.1749C154.973 88.1422 155.671 87.9912 156.332 87.7278C157.742 87.1859 158.942 86.1907 159.755 84.8908C160.524 83.6494 160.911 82.1989 160.864 80.7287C160.864 79.2736 160.864 77.8754 160.864 76.5342L161.054 76.7293L150.754 76.6317L147.767 76.5748H146.975H146.681C147.021 76.5361 147.362 76.5198 147.704 76.526L150.643 76.4691L161.054 76.3716H161.316V76.5748C161.316 77.9161 161.316 79.3143 161.316 80.7694C161.369 82.3197 160.963 83.8502 160.151 85.159C159.29 86.5353 158.016 87.5878 156.522 88.1586C155.82 88.4353 155.079 88.5918 154.327 88.622C153.611 88.6656 152.892 88.5971 152.196 88.4187C150.984 88.1182 149.868 87.5027 148.955 86.6314C148.041 85.7601 147.362 84.6623 146.982 83.4438C146.698 82.514 146.58 81.5391 146.634 80.5661C146.634 79.7532 146.634 78.9972 146.673 78.3794C146.713 77.7616 146.673 77.3796 146.713 77.0219C146.706 76.8592 146.711 76.696 146.729 76.5342V76.5342Z" fill="#263238"/>
<path d="M127.309 76.1119C127.309 76.1119 127.309 76.2989 127.309 76.6159V77.9897C127.309 78.5912 127.309 79.3066 127.348 80.1276C127.328 81.0652 127.461 81.9997 127.744 82.8915C128.11 83.9619 128.708 84.9323 129.496 85.7285C130.404 86.6347 131.535 87.2723 132.768 87.5738C134.131 87.9108 135.562 87.8172 136.872 87.3055C138.278 86.7643 139.475 85.7722 140.287 84.4766C141.059 83.2361 141.449 81.7856 141.404 80.3146C141.404 78.8595 141.404 77.4532 141.404 76.1119L141.595 76.307L131.294 76.2094L128.315 76.1607H127.523H127.229C127.566 76.1222 127.905 76.1059 128.244 76.1119L131.183 76.0631L141.595 75.9656H141.785V76.1607C141.785 77.502 141.785 78.9083 141.785 80.3634C141.833 81.9142 141.424 83.4439 140.612 84.753C139.751 86.1245 138.481 87.1738 136.991 87.7445C136.289 88.0204 135.548 88.1769 134.796 88.2078C134.077 88.2513 133.356 88.1828 132.657 88.0046C131.362 87.6775 130.179 86.9946 129.234 86.0293C128.417 85.1868 127.803 84.1594 127.443 83.0297C127.159 82.0999 127.041 81.125 127.095 80.152C127.095 79.3391 127.095 78.5831 127.142 77.9653C127.19 77.3475 127.142 76.9654 127.142 76.6078C127.171 76.4343 127.227 76.2669 127.309 76.1119V76.1119Z" fill="#263238"/>
<path d="M146.903 77.1279C145.091 77.4099 143.248 77.4099 141.436 77.1279C143.247 76.8353 145.092 76.8353 146.903 77.1279V77.1279Z" fill="#263238"/>
<path d="M112.191 77.2336C114.71 77.0181 117.238 76.9394 119.766 76.9979C122.295 76.9243 124.826 76.9867 127.348 77.1848C124.83 77.4104 122.301 77.4891 119.773 77.4206C117.244 77.5035 114.713 77.4411 112.191 77.2336V77.2336Z" fill="#263238"/>
<path d="M193.699 230.636C195.479 234.026 198.176 236.817 201.465 238.673C204.754 240.529 208.496 241.371 212.24 241.098V241.098C216.663 240.78 220.849 238.924 224.106 235.837C227.363 232.75 229.497 228.615 230.155 224.116L234.75 170.148L216.344 165.482L208.825 207.753C208.825 207.753 204.895 225.466 193.699 230.636Z" fill="#FFBE9D"/>
<path d="M216.178 169.392L216.788 159.922C216.788 159.922 219.395 138.672 219.395 136.591C219.395 134.201 220.512 133.616 221.376 133.681C222.715 133.771 223.665 135.47 223.753 137.526C223.753 138.233 223.689 149.468 223.689 149.468C224.322 148.406 225.029 147.393 225.805 146.436C227.389 144.33 231.224 143.127 235.131 143.257C239.037 143.387 240.107 143.777 240.13 145.33C240.116 145.627 240.038 145.917 239.901 146.178C239.764 146.44 239.572 146.667 239.338 146.842C238.617 147.459 237.701 147.783 236.763 147.753C230.511 147.639 228.839 151.061 228.839 151.061L228.76 152.305C228.76 152.305 232.555 149.517 235.582 150.679C236.029 150.849 236.439 151.108 236.787 151.443C237.639 151.447 238.475 151.679 239.213 152.116C239.951 152.554 240.565 153.181 240.993 153.937C241.422 154.693 241.65 155.551 241.656 156.425C241.661 157.299 241.444 158.16 241.026 158.922C240.863 159.312 240.587 159.643 240.236 159.868C239.884 160.093 239.474 160.203 239.061 160.182C238.642 160.053 238.262 159.815 237.959 159.491C237.782 159.336 237.594 159.195 237.397 159.068L236.699 162.507C236.699 162.507 234.727 170.148 234.235 173.578" fill="#FFBE9D"/>
<path d="M217.976 168.652C219.117 168.977 220.298 168.115 220.916 167.075C221.534 166.034 221.795 164.807 222.334 163.718C223.966 160.466 227.881 158.922 229.378 155.589C229.584 155.125 229.695 154.491 229.299 154.182C228.903 153.874 228.412 154.126 228.007 154.353L217.707 160.206" fill="#FFBE9D"/>
<path d="M217.699 160.19C218.02 159.898 218.374 159.647 218.753 159.442C219.45 158.995 220.472 158.377 221.74 157.621L226.217 154.996L227.508 154.248C227.99 153.857 228.602 153.679 229.212 153.752C229.4 153.814 229.565 153.934 229.686 154.095C229.806 154.256 229.876 154.451 229.885 154.654C229.906 154.988 229.849 155.323 229.719 155.63C229.481 156.172 229.183 156.685 228.831 157.158C227.405 159.06 225.559 160.255 224.228 161.645C223.581 162.274 223.03 163.001 222.596 163.799C222.207 164.547 221.962 165.328 221.661 166.035C221.476 166.625 221.167 167.167 220.756 167.622C220.346 168.077 219.843 168.434 219.284 168.669C218.436 168.929 217.961 168.669 217.992 168.62C218.403 168.633 218.812 168.564 219.197 168.417C219.692 168.157 220.13 167.795 220.482 167.352C220.834 166.91 221.092 166.398 221.241 165.848C221.495 165.06 221.788 164.287 222.12 163.531C222.557 162.666 223.127 161.878 223.808 161.198C225.171 159.735 226.977 158.507 228.309 156.743C228.622 156.317 228.888 155.857 229.101 155.37C229.299 154.906 229.267 154.443 229.014 154.394C228.76 154.345 228.261 154.565 227.825 154.817L226.51 155.548L221.97 158.085C220.67 158.792 219.593 159.345 218.88 159.71C218.51 159.927 218.113 160.088 217.699 160.19V160.19Z" fill="#EB996E"/>
<path d="M228.618 152.394C228.688 151.625 228.935 150.884 229.339 150.232C229.808 149.563 230.475 149.067 231.24 148.817C232.199 148.494 233.202 148.329 234.211 148.33C235.248 148.34 236.283 148.248 237.302 148.053C238.155 147.874 238.948 147.468 239.599 146.874C239.816 146.669 239.984 146.416 240.091 146.135C240.198 145.853 240.241 145.55 240.217 145.249C240.206 145.027 240.135 144.813 240.011 144.631C239.972 144.631 240.011 144.867 240.051 145.257C240.047 145.529 239.986 145.798 239.871 146.043C239.756 146.289 239.59 146.506 239.385 146.679C238.752 147.191 238.007 147.537 237.214 147.687C236.217 147.856 235.207 147.932 234.196 147.915C233.149 147.903 232.107 148.071 231.113 148.411C230.283 148.708 229.572 149.28 229.093 150.037C228.783 150.546 228.603 151.128 228.57 151.727C228.525 151.95 228.541 152.181 228.618 152.394V152.394Z" fill="#EB996E"/>
<path d="M223.697 136.73C223.63 137.473 223.63 138.222 223.697 138.965C223.697 140.493 223.697 142.322 223.753 144.338C223.808 146.354 223.753 148.183 223.753 149.712C223.705 150.457 223.721 151.205 223.8 151.947C223.973 151.218 224.061 150.47 224.062 149.72C224.157 148.346 224.22 146.468 224.212 144.338C224.204 142.209 224.125 140.323 224.03 138.949C223.997 138.199 223.885 137.455 223.697 136.73V136.73Z" fill="#EB996E"/>
<path d="M231.09 154.89C231.311 154.835 231.524 154.75 231.723 154.638C231.982 154.502 232.265 154.425 232.555 154.411C232.845 154.397 233.134 154.446 233.403 154.556C233.569 154.649 233.708 154.783 233.808 154.947C233.908 155.111 233.965 155.298 233.974 155.491C233.999 155.976 233.964 156.462 233.871 156.938C233.74 157.536 233.833 158.163 234.132 158.694C234.322 158.967 234.571 159.19 234.86 159.345C235.149 159.501 235.47 159.584 235.796 159.588C236.117 159.586 236.434 159.517 236.728 159.386C237.022 159.254 237.287 159.063 237.508 158.824C237.921 158.399 238.197 157.854 238.3 157.263C238.424 156.307 238.411 155.338 238.26 154.386C238.178 153.742 237.988 153.117 237.698 152.54C237.476 152.134 237.27 151.98 237.254 151.996C237.238 152.012 237.381 152.215 237.547 152.614C237.765 153.198 237.901 153.811 237.951 154.434C238.055 155.351 238.042 156.277 237.912 157.19C237.811 157.707 237.549 158.177 237.167 158.528C236.784 158.88 236.3 159.095 235.788 159.141C235.53 159.14 235.277 159.076 235.047 158.956C234.817 158.836 234.618 158.663 234.465 158.45C234.226 158.004 234.15 157.485 234.251 156.987C234.339 156.475 234.361 155.952 234.314 155.434C234.292 155.187 234.206 154.95 234.068 154.746C233.929 154.542 233.741 154.379 233.522 154.272C233.214 154.152 232.882 154.108 232.554 154.145C232.227 154.181 231.912 154.297 231.636 154.483C231.264 154.711 231.042 154.833 231.09 154.89Z" fill="#EB996E"/>
<path d="M237.325 158.483C237.27 158.695 237.292 158.921 237.389 159.117C237.5 159.396 237.672 159.645 237.892 159.845C238.112 160.045 238.373 160.191 238.656 160.271C239.083 160.365 239.527 160.344 239.943 160.21C240.36 160.076 240.735 159.834 241.034 159.507C241.748 158.702 242.131 157.645 242.103 156.556C242.103 155.481 241.776 154.432 241.168 153.557C240.672 152.842 239.995 152.28 239.211 151.931C238.697 151.693 238.143 151.558 237.579 151.532C237.183 151.532 236.969 151.532 236.969 151.597C237.7 151.694 238.413 151.903 239.084 152.215C239.788 152.574 240.393 153.108 240.843 153.768C241.37 154.588 241.646 155.55 241.636 156.532C241.662 157.507 241.334 158.457 240.717 159.198C240.465 159.49 240.146 159.711 239.788 159.84C239.43 159.97 239.046 160.003 238.672 159.938C238.423 159.881 238.188 159.769 237.985 159.61C237.781 159.452 237.613 159.25 237.492 159.019C237.381 158.71 237.381 158.483 237.325 158.483Z" fill="#EB996E"/>
<path d="M229.798 165.994C229.458 165.884 229.093 165.884 228.752 165.994C227.86 166.194 227.058 166.692 226.47 167.409L226.835 167.522C226.787 167.019 226.707 166.519 226.597 166.027C226.282 164.279 225.5 162.655 224.339 161.336C225.115 162.861 225.731 164.466 226.177 166.124C226.288 166.628 226.367 167.116 226.423 167.571L226.486 168.075L226.795 167.677C227.321 167.012 228.022 166.518 228.816 166.254C229.41 166.067 229.798 166.051 229.798 165.994Z" fill="#EB996E"/>
<path d="M229.996 146.883C229.893 146.932 230.313 147.696 231.28 148.159C232.246 148.622 233.102 148.354 233.063 148.24C233.023 148.127 232.27 148.135 231.478 147.753C230.686 147.371 230.099 146.802 229.996 146.883Z" fill="#EB996E"/>
<path d="M213.008 175.521L236.137 177.22C236.137 177.22 232.579 219.206 231.89 225.717C231.201 232.229 227.136 242.049 213.008 242.049C198.881 242.049 196.25 237.114 189.967 226.953C197.375 221.685 209.142 205.956 209.142 205.956L213.008 175.521Z" fill="#FF725E"/>
<path d="M223.911 181.171C223.792 181.525 223.649 181.87 223.483 182.203L222.192 185L217.628 194.665L217.398 194.38L223.396 192.551L229.489 190.714L229.933 190.584L229.719 190.999L224.965 200.469L223.562 203.192C223.407 203.525 223.224 203.843 223.016 204.143C223.137 203.796 223.28 203.456 223.444 203.127C223.776 202.428 224.236 201.501 224.743 200.355L229.346 190.82L229.576 191.105L223.491 192.958L217.485 194.763L217.049 194.893L217.255 194.478L221.986 184.91C222.564 183.78 223.032 182.854 223.38 182.163C223.53 181.817 223.707 181.486 223.911 181.171V181.171Z" fill="#E0E0E0"/>
<path d="M221.724 221.555C221.369 221.633 221.009 221.682 220.647 221.702L217.636 221.97L207.224 222.783L207.351 222.433L211.915 226.823L216.534 231.294L216.867 231.619H216.408L206.052 232.204L203.057 232.334C202.698 232.366 202.338 232.366 201.979 232.334C202.332 232.263 202.689 232.219 203.049 232.204L206.036 231.952L216.384 231.221L216.265 231.57L211.63 227.108L207.082 222.702L206.749 222.385H207.201L217.62 221.742L220.639 221.588C220.999 221.549 221.362 221.538 221.724 221.555V221.555Z" fill="#E0E0E0"/>
<path d="M262.902 71.5688L239.314 62.8789L215.988 71.455C213.008 72.8938 210.394 73.7636 210.394 76.6088V90.802C210.338 100.771 212.992 110.558 218.056 119.066C223.115 127.653 230.613 134.446 239.544 138.535C249.052 135.357 256.183 126.87 260.581 119.619C265.658 111.115 268.325 101.327 268.282 91.3547V78.5922C268.282 74.5277 266.174 72.5443 262.902 71.5688Z" fill="#F5BB16"/>
<g opacity="0.3">
<path opacity="0.3" d="M239.544 130.276C232.467 127.001 226.536 121.583 222.548 114.749C218.534 108.025 216.424 100.287 216.455 92.4026V82.4852C216.455 80.2254 217.786 78.1119 220.417 76.8519L239.322 69.6008V62.9106L215.988 71.4542C213.539 72.5516 210.394 73.7628 210.394 76.608V90.8012C210.339 100.77 212.992 110.557 218.056 119.066C223.115 127.652 230.613 134.445 239.544 138.535V130.276Z" fill="black"/>
</g>
<g opacity="0.4">
<path opacity="0.4" d="M239.544 138.51C241.144 137.974 242.695 137.293 244.179 136.478C247.828 134.36 251.146 131.691 254.02 128.56C256.619 125.687 258.907 122.534 260.842 119.155C265.98 110.588 268.566 100.668 268.282 90.6138V78.9C268.282 73.0633 265.351 72.6325 262.894 71.5351L239.306 62.8452V69.5354L258.433 76.9084C261.064 78.1684 262.395 80.2819 262.395 82.5336V92.4916C262.427 100.374 260.317 108.109 256.302 114.83C252.4 121.632 246.54 127.028 239.528 130.275L239.544 138.51Z" fill="black"/>
</g>
<path opacity="0.5" d="M245.574 91.7683V89.8499C245.574 88.1833 244.928 86.585 243.78 85.4066C242.631 84.2282 241.073 83.5662 239.449 83.5662C237.824 83.5662 236.267 84.2282 235.118 85.4066C233.969 86.585 233.324 88.1833 233.324 89.8499V91.8008C232.513 91.9254 231.773 92.3442 231.238 92.9812C230.703 93.6182 230.409 94.431 230.408 95.2719V106.571C230.408 107.503 230.769 108.396 231.411 109.054C232.053 109.713 232.923 110.083 233.831 110.083H245.304C246.212 110.083 247.083 109.713 247.725 109.054C248.367 108.396 248.727 107.503 248.727 106.571V95.2719C248.728 94.3879 248.404 93.5362 247.819 92.8867C247.234 92.2373 246.433 91.8379 245.574 91.7683V91.7683ZM241.113 103.75H238.118L238.585 101.531C238.258 101.312 238.008 100.99 237.873 100.614C237.738 100.237 237.725 99.8261 237.836 99.4415C237.948 99.0569 238.177 98.7194 238.491 98.4795C238.804 98.2396 239.185 98.1099 239.576 98.1099C239.967 98.1099 240.347 98.2396 240.661 98.4795C240.974 98.7194 241.204 99.0569 241.315 99.4415C241.426 99.8261 241.414 100.237 241.279 100.614C241.144 100.99 240.894 101.312 240.566 101.531C240.772 102.36 241.113 103.75 241.113 103.75ZM244.282 91.752H234.647V89.8499C234.698 88.5769 235.226 87.3733 236.122 86.4909C237.017 85.6086 238.211 85.1158 239.453 85.1158C240.695 85.1158 241.888 85.6086 242.784 86.4909C243.68 87.3733 244.208 88.5769 244.258 89.8499L244.282 91.752Z" fill="white"/>
<path d="M220.282 91.6299C220.076 90.994 219.956 90.3321 219.926 89.6627C219.749 88.0626 219.686 86.4516 219.735 84.8422C219.735 83.8992 219.823 83.005 219.902 82.1921C219.941 81.4508 220.121 80.7245 220.433 80.0542C220.656 79.595 221.017 79.2217 221.463 78.9893C221.788 78.8349 221.986 78.843 221.986 78.8674C221.416 79.1352 220.959 79.602 220.694 80.1843C220.441 80.8343 220.301 81.525 220.282 82.2247C220.219 83.0376 220.171 83.9236 220.147 84.8585C220.092 86.72 220.147 88.4108 220.219 89.6383C220.291 90.2994 220.312 90.9654 220.282 91.6299V91.6299Z" fill="white"/>
<path d="M220.623 97.8001C220.512 97.8001 220.409 97.2229 220.393 96.4994C220.377 95.776 220.464 95.1907 220.575 95.1907C220.686 95.1907 220.789 95.7678 220.805 96.4913C220.821 97.2148 220.742 97.8001 220.623 97.8001Z" fill="white"/>
<path d="M197.225 172.091L170.927 238.814H123.505V241.829H264.756L293.653 172.091H197.225Z" fill="#263238"/>
<path d="M237.428 211.484C236.478 214.841 233.704 216.962 231.232 216.231C228.76 215.499 227.532 212.166 228.483 208.809C229.434 205.452 232.215 203.33 234.687 204.062C237.159 204.793 238.387 208.126 237.428 211.484Z" fill="#FAFAFA"/>
</svg>
