<svg width="24" height="24" viewBox="0 0 24 24" fill="none" xmlns="http://www.w3.org/2000/svg">
<path d="M6 15C7.65685 15 9 13.6569 9 12C9 10.3431 7.65685 9 6 9C4.34315 9 3 10.3431 3 12C3 13.6569 4.34315 15 6 15Z" stroke="black" stroke-width="1.5" stroke-linecap="round" stroke-linejoin="round"/>
<path d="M16.5 21.75C18.1569 21.75 19.5 20.4069 19.5 18.75C19.5 17.0931 18.1569 15.75 16.5 15.75C14.8431 15.75 13.5 17.0931 13.5 18.75C13.5 20.4069 14.8431 21.75 16.5 21.75Z" stroke="black" stroke-width="1.5" stroke-linecap="round" stroke-linejoin="round"/>
<path d="M16.5 8.25C18.1569 8.25 19.5 6.90685 19.5 5.25C19.5 3.59315 18.1569 2.25 16.5 2.25C14.8431 2.25 13.5 3.59315 13.5 5.25C13.5 6.90685 14.8431 8.25 16.5 8.25Z" stroke="black" stroke-width="1.5" stroke-linecap="round" stroke-linejoin="round"/>
<path d="M13.9766 6.87207L8.52307 10.3779" stroke="black" stroke-width="1.5" stroke-linecap="round" stroke-linejoin="round"/>
<path d="M8.52307 13.6221L13.9766 17.1279" stroke="black" stroke-width="1.5" stroke-linecap="round" stroke-linejoin="round"/>
</svg>
