<?xml version="1.0"?>
<svg xmlns="http://www.w3.org/2000/svg" xmlns:xlink="http://www.w3.org/1999/xlink" xmlns:svgjs="http://svgjs.com/svgjs" version="1.1" width="512" height="512" x="0" y="0" viewBox="0 0 511.992 511.992" style="enable-background:new 0 0 512 512" xml:space="preserve" class=""><g>
<g xmlns="http://www.w3.org/2000/svg">
	<g>
		<path d="M510.096,249.937c-4.032-5.867-100.928-143.275-254.101-143.275C124.56,106.662,7.44,243.281,2.512,249.105    c-3.349,3.968-3.349,9.792,0,13.781C7.44,268.71,124.56,405.329,255.995,405.329S504.549,268.71,509.477,262.886    C512.571,259.217,512.848,253.905,510.096,249.937z M255.995,383.996c-105.365,0-205.547-100.48-230.997-128    c25.408-27.541,125.483-128,230.997-128c123.285,0,210.304,100.331,231.552,127.424    C463.013,282.065,362.256,383.996,255.995,383.996z" fill="#746e6e" data-original="#000000" style=""/>
	</g>
</g>
<g xmlns="http://www.w3.org/2000/svg">
	<g>
		<path d="M255.995,170.662c-47.061,0-85.333,38.272-85.333,85.333s38.272,85.333,85.333,85.333s85.333-38.272,85.333-85.333    S303.056,170.662,255.995,170.662z M255.995,319.996c-35.285,0-64-28.715-64-64s28.715-64,64-64s64,28.715,64,64    S291.28,319.996,255.995,319.996z" fill="#746e6e" data-original="#000000" style=""/>
	</g>
</g>
<g xmlns="http://www.w3.org/2000/svg">
</g>
<g xmlns="http://www.w3.org/2000/svg">
</g>
<g xmlns="http://www.w3.org/2000/svg">
</g>
<g xmlns="http://www.w3.org/2000/svg">
</g>
<g xmlns="http://www.w3.org/2000/svg">
</g>
<g xmlns="http://www.w3.org/2000/svg">
</g>
<g xmlns="http://www.w3.org/2000/svg">
</g>
<g xmlns="http://www.w3.org/2000/svg">
</g>
<g xmlns="http://www.w3.org/2000/svg">
</g>
<g xmlns="http://www.w3.org/2000/svg">
</g>
<g xmlns="http://www.w3.org/2000/svg">
</g>
<g xmlns="http://www.w3.org/2000/svg">
</g>
<g xmlns="http://www.w3.org/2000/svg">
</g>
<g xmlns="http://www.w3.org/2000/svg">
</g>
<g xmlns="http://www.w3.org/2000/svg">
</g>
</g></svg>
