<svg width="148" height="24" viewBox="0 0 148 24" fill="none" xmlns="http://www.w3.org/2000/svg">
<path fill-rule="evenodd" clip-rule="evenodd" d="M11.9846 21.606C11.9846 21.606 19.6566 19.283 19.6566 12.879C19.6566 6.474 19.9346 5.974 19.3196 5.358C18.7036 4.742 12.9906 2.75 11.9846 2.75C10.9786 2.75 5.26557 4.742 4.65057 5.358C4.03457 5.974 4.31257 6.474 4.31257 12.879C4.31257 19.283 11.9846 21.606 11.9846 21.606Z" stroke="white" stroke-width="1.5" stroke-linecap="round" stroke-linejoin="round"/>
<path d="M9.38574 11.8746L11.2777 13.7696L15.1757 9.86963" stroke="white" stroke-width="1.5" stroke-linecap="round" stroke-linejoin="round"/>
<path d="M30.5225 15.8926V12.4678H32.1836V11.3535H30.5225V8.24316H32.5938C34.7812 8.24316 36.0732 9.66504 36.0732 12.0781C36.0732 14.4844 34.7949 15.8926 32.5938 15.8926H30.5225ZM29.292 7.13574V11.3535H28.1777V12.4678H29.292V17H32.6758C35.6084 17 37.3311 15.1748 37.3311 12.0645C37.3311 8.96094 35.6016 7.13574 32.6758 7.13574H29.292ZM41.5762 16.0977C40.7217 16.0977 40.0859 15.6602 40.0859 14.9082C40.0859 14.1699 40.5781 13.7803 41.6992 13.7051L43.6816 13.5752V14.252C43.6816 15.3047 42.7861 16.0977 41.5762 16.0977ZM41.3574 17.1299C42.3418 17.1299 43.1484 16.6992 43.627 15.9131H43.7363V17H44.8574V11.9551C44.8574 10.4238 43.8525 9.50098 42.0547 9.50098C40.4824 9.50098 39.3203 10.2803 39.1631 11.4629H40.3525C40.5166 10.8818 41.1318 10.5469 42.0137 10.5469C43.1143 10.5469 43.6816 11.0459 43.6816 11.9551V12.625L41.5557 12.7549C39.8398 12.8574 38.8691 13.6162 38.8691 14.9355C38.8691 16.2822 39.9287 17.1299 41.3574 17.1299ZM47.0312 17H48.207V12.6387C48.207 11.3467 48.9658 10.5605 50.1416 10.5605C51.3174 10.5605 51.8779 11.1895 51.8779 12.5156V17H53.0537V12.2285C53.0537 10.4785 52.1309 9.50098 50.4766 9.50098C49.3486 9.50098 48.6309 9.97949 48.2617 10.793H48.1523V9.63086H47.0312V17ZM58.1875 15.8516C56.8203 15.8516 56.0547 14.8125 56.0547 13.2061C56.0547 11.5996 56.8203 10.5605 58.1875 10.5605C59.5479 10.5605 60.375 11.5996 60.375 13.2061C60.375 14.8125 59.5547 15.8516 58.1875 15.8516ZM58.2422 19.8301C60.252 19.8301 61.5234 18.7773 61.5234 17.1299V9.63086H60.4023V10.7998H60.293C59.8691 10.0068 58.96 9.50098 57.9277 9.50098C56.0342 9.50098 54.8379 10.998 54.8379 13.2061C54.8379 15.4141 56.0205 16.8906 57.9277 16.8906C58.9395 16.8906 59.7734 16.4326 60.2383 15.6191H60.3477V17.0684C60.3477 18.1553 59.5615 18.8047 58.2422 18.8047C57.1826 18.8047 56.5264 18.415 56.3965 17.8135H55.1523C55.3301 19.0303 56.4648 19.8301 58.2422 19.8301ZM70.6904 16.0703C69.3438 16.0703 68.5371 15.0381 68.5371 13.3154C68.5371 11.5996 69.3506 10.5605 70.6904 10.5605C72.0234 10.5605 72.8574 11.627 72.8574 13.3154C72.8574 15.0176 72.0303 16.0703 70.6904 16.0703ZM74.9902 7.42285H74.0059V6.70508H72.8301V7.42285H71.0527V8.27051H72.8301V10.793H72.7275C72.3105 9.98633 71.4424 9.50098 70.417 9.50098C68.5439 9.50098 67.3203 11.0049 67.3203 13.3154C67.3203 15.6328 68.5303 17.1299 70.417 17.1299C71.4355 17.1299 72.3105 16.6445 72.7754 15.8242H72.8848V17H74.0059V8.27051H74.9902V7.42285ZM81.0195 15.8447H81.1289V17H82.25V10.5059H82.3867C83.1934 10.5059 83.7676 10.082 83.7676 9.23438V7.99023H82.6807V9.0293C82.6807 9.43262 82.4961 9.63086 82.0586 9.63086H81.0742V13.9922C81.0742 15.2842 80.3633 16.0566 79.0645 16.0566C77.8887 16.0566 77.3965 15.4414 77.3965 14.1152V9.63086H76.2207V14.4023C76.2207 16.1455 77.082 17.1299 78.7363 17.1299C79.8643 17.1299 80.6504 16.665 81.0195 15.8447ZM87.9033 16.0703C86.5156 16.0703 85.7227 15.0654 85.7227 13.3154C85.7227 11.5586 86.5156 10.5605 87.9033 10.5605C89.291 10.5605 90.084 11.5586 90.084 13.3154C90.084 15.0654 89.291 16.0703 87.9033 16.0703ZM91.3008 13.3154C91.3008 11.9893 90.8701 10.9775 90.2344 10.5332V10.4854C90.3164 10.4854 90.4668 10.4854 90.6172 10.4854C91.0889 10.4854 91.6016 10.123 91.6016 9.3916V8.09961H90.5146V9.03613C90.5146 9.49414 90.3574 9.67188 89.7695 9.67188C89.0244 9.67188 88.7715 9.50098 87.9033 9.50098C85.7979 9.50098 84.5059 10.9502 84.5059 13.3154C84.5059 15.6738 85.7979 17.1299 87.9033 17.1299C90.0088 17.1299 91.3008 15.6738 91.3008 13.3154ZM87.9033 19.748C88.3613 19.748 88.7305 19.3789 88.7305 18.9209C88.7305 18.4629 88.3613 18.0938 87.9033 18.0938C87.4453 18.0938 87.0762 18.4629 87.0762 18.9209C87.0762 19.3789 87.4453 19.748 87.9033 19.748ZM99.5449 11.8867C99.3398 10.5742 98.2461 9.50098 96.4551 9.50098C94.3906 9.50098 93.0781 10.9912 93.0781 13.2881C93.0781 15.6328 94.3975 17.1299 96.4619 17.1299C98.2324 17.1299 99.333 16.1318 99.5449 14.7783H98.3555C98.1367 15.6123 97.4463 16.0703 96.4551 16.0703C95.1426 16.0703 94.2949 14.9902 94.2949 13.2881C94.2949 11.6201 95.1289 10.5605 96.4551 10.5605C97.5146 10.5605 98.1641 11.1553 98.3555 11.8867H99.5449ZM108.896 17.1299C110.763 17.1299 111.986 15.6191 111.986 13.3154C111.986 10.998 110.77 9.50098 108.896 9.50098C107.885 9.50098 106.989 10 106.586 10.793H106.477V6.70508H105.301V17H106.422V15.8242H106.531C106.996 16.6445 107.871 17.1299 108.896 17.1299ZM108.623 10.5605C109.97 10.5605 110.77 11.5928 110.77 13.3154C110.77 15.0381 109.97 16.0703 108.623 16.0703C107.283 16.0703 106.449 15.0176 106.449 13.3154C106.449 11.6133 107.283 10.5605 108.623 10.5605ZM116.102 16.0977C115.247 16.0977 114.611 15.6602 114.611 14.9082C114.611 14.1699 115.104 13.7803 116.225 13.7051L118.207 13.5752V14.252C118.207 15.3047 117.312 16.0977 116.102 16.0977ZM115.883 17.1299C116.867 17.1299 117.674 16.6992 118.152 15.9131H118.262V17H119.383V11.9551C119.383 10.4238 118.378 9.50098 116.58 9.50098C115.008 9.50098 113.846 10.2803 113.688 11.4629H114.878C115.042 10.8818 115.657 10.5469 116.539 10.5469C117.64 10.5469 118.207 11.0459 118.207 11.9551V12.625L116.081 12.7549C114.365 12.8574 113.395 13.6162 113.395 14.9355C113.395 16.2822 114.454 17.1299 115.883 17.1299ZM115.603 7.0127C115.787 6.91699 116.067 6.85547 116.375 6.85547C116.765 6.85547 117.059 7.07422 117.059 7.36816C117.059 7.66211 116.744 7.96973 116.293 8.09961L116.806 8.77637C117.551 8.53027 118.077 7.91504 118.077 7.28613C118.077 6.50684 117.482 6.02832 116.519 6.02832C116.19 6.02832 115.821 6.08301 115.603 6.17188V7.0127ZM124.585 17.1299C126.684 17.1299 127.982 15.6807 127.982 13.3154C127.982 10.9434 126.684 9.50098 124.585 9.50098C122.486 9.50098 121.188 10.9434 121.188 13.3154C121.188 15.6807 122.486 17.1299 124.585 17.1299ZM124.585 16.0703C123.19 16.0703 122.404 15.0586 122.404 13.3154C122.404 11.5654 123.19 10.5605 124.585 10.5605C125.979 10.5605 126.766 11.5654 126.766 13.3154C126.766 15.0586 125.979 16.0703 124.585 16.0703ZM139.795 9.63086H138.537L136.521 15.7012H136.411L134.395 9.63086H133.137L135.864 17H137.067L139.795 9.63086ZM144.033 10.54C145.202 10.54 145.981 11.4014 146.009 12.707H141.948C142.037 11.4014 142.857 10.54 144.033 10.54ZM145.975 15.0928C145.667 15.7422 145.024 16.0908 144.074 16.0908C142.823 16.0908 142.01 15.168 141.948 13.7119V13.6572H147.246V13.2061C147.246 10.916 146.036 9.50098 144.047 9.50098C142.023 9.50098 140.725 11.0049 140.725 13.3223C140.725 15.6533 142.003 17.1299 144.047 17.1299C145.66 17.1299 146.795 16.3574 147.15 15.0928H145.975ZM144.737 6.28125H143.356L141.429 8.60547H142.782L143.992 7.05371H144.102L145.312 8.60547H146.665L144.737 6.28125ZM144.054 19.748C144.512 19.748 144.881 19.3789 144.881 18.9209C144.881 18.4629 144.512 18.0938 144.054 18.0938C143.596 18.0938 143.227 18.4629 143.227 18.9209C143.227 19.3789 143.596 19.748 144.054 19.748Z" fill="white"/>
</svg>
