<svg width="75" height="75" viewBox="0 0 75 75" fill="none" xmlns="http://www.w3.org/2000/svg">
<path fill-rule="evenodd" clip-rule="evenodd" d="M37.5 75C58.2107 75 75 58.2107 75 37.5C75 16.7893 58.2107 0 37.5 0C16.7893 0 0 16.7893 0 37.5C0 58.2107 16.7893 75 37.5 75Z" fill="#EFEFF4"/>
<path d="M26.2949 51.4541V58.5H28.8389C30.9385 58.5 32.1543 57.2061 32.1543 54.9551C32.1543 52.7383 30.9287 51.4541 28.8389 51.4541H26.2949ZM27.3887 52.4502H28.7168C30.1768 52.4502 31.041 53.3779 31.041 54.9697C31.041 56.5859 30.1914 57.5039 28.7168 57.5039H27.3887V52.4502ZM41.0359 57.5039H37.657V55.3896H40.8553V54.4424H37.657V52.4502H41.0359V51.4541H36.5633V58.5H41.0359V57.5039ZM46.6461 58.5V55.5801H49.6734V54.6133H46.6461V52.4502H49.9518V51.4541H45.5523V58.5H46.6461Z" fill="black"/>
<path d="M34.0723 33.293H37.2539C40.875 33.293 43.125 35.1387 43.125 38.127C43.125 40.7812 40.7168 42.6797 37.3594 42.6797C33.9492 42.6797 31.7871 40.8867 31.5059 38.2852H28.4648C28.6934 42.4863 32.0859 45.4219 37.3945 45.4219C42.3691 45.4219 46.3418 42.3809 46.3418 38.0215C46.3418 34.4531 43.8809 32.0801 40.0488 31.8516V31.7812C43.2129 31.2188 45.252 28.9336 45.252 25.752C45.252 21.9375 41.8242 19.2129 37.2891 19.2129C32.5254 19.2129 29.3262 21.9727 28.9746 26.2793H32.0156C32.2969 23.625 34.2305 21.9551 37.1484 21.9551C40.3652 21.9551 42.0703 23.6602 42.0703 26.1738C42.0703 28.7402 40.0312 30.6211 37.1133 30.6211H34.0723V33.293Z" fill="black"/>
</svg>
