<svg width="75" height="75" viewBox="0 0 75 75" fill="none" xmlns="http://www.w3.org/2000/svg">
<path fill-rule="evenodd" clip-rule="evenodd" d="M37.5 75C58.2107 75 75 58.2107 75 37.5C75 16.7893 58.2107 0 37.5 0C16.7893 0 0 16.7893 0 37.5C0 58.2107 16.7893 75 37.5 75Z" fill="#EFEFF4"/>
<path d="M20.2066 51.4541V58.5H21.3004V56.127H22.9312C24.3131 56.127 25.2896 55.1797 25.2896 53.8027C25.2896 52.4062 24.3424 51.4541 22.9654 51.4541H20.2066ZM21.3004 52.4209H22.6773C23.6393 52.4209 24.1715 52.9092 24.1715 53.8027C24.1715 54.6768 23.6197 55.165 22.6773 55.165H21.3004V52.4209ZM32.6381 58.6709C33.0922 58.6709 33.517 58.6025 33.8881 58.4707L34.4643 59.2471H35.6068L34.723 57.9678C35.4896 57.377 35.9193 56.3223 35.9193 54.9795C35.9193 52.6992 34.6547 51.2832 32.6381 51.2832C30.6166 51.2832 29.3471 52.6992 29.3471 54.9795C29.3471 57.2695 30.6068 58.6709 32.6381 58.6709ZM32.643 57.6504C31.3051 57.6504 30.4701 56.625 30.4701 54.9795C30.4701 53.334 31.31 52.3037 32.6381 52.3037C33.9613 52.3037 34.8012 53.3389 34.8012 54.9795C34.8012 55.8779 34.5375 56.5908 34.0687 56.9912L33.5414 56.3369H32.4232L33.307 57.5625C33.0922 57.6211 32.8725 57.6504 32.643 57.6504ZM41.427 52.416H42.9699C43.8146 52.416 44.3322 52.8799 44.3322 53.6465C44.3322 54.4326 43.8439 54.8818 42.9992 54.8818H41.427V52.416ZM41.427 55.8145H42.9699L44.4055 58.5H45.6701L44.0881 55.6338C44.9475 55.3408 45.4553 54.5693 45.4553 53.6221C45.4553 52.2988 44.5422 51.4541 43.1213 51.4541H40.3332V58.5H41.427V55.8145ZM49.6152 56.6055C49.6934 57.8652 50.7432 58.6709 52.3057 58.6709C53.9756 58.6709 55.0205 57.8262 55.0205 56.4785C55.0205 55.4189 54.4248 54.833 52.9795 54.4961L52.2031 54.3057C51.2852 54.0908 50.9141 53.8027 50.9141 53.2998C50.9141 52.665 51.4902 52.25 52.3545 52.25C53.1748 52.25 53.7412 52.6553 53.8437 53.3047H54.9082C54.8447 52.1182 53.7998 51.2832 52.3691 51.2832C50.8311 51.2832 49.8057 52.1182 49.8057 53.373C49.8057 54.4082 50.3867 55.0234 51.6611 55.3213L52.5693 55.541C53.502 55.7607 53.9121 56.083 53.9121 56.6201C53.9121 57.2451 53.2676 57.6992 52.3887 57.6992C51.4463 57.6992 50.792 57.2744 50.6992 56.6055H49.6152Z" fill="black"/>
<path d="M31.6719 45H34.9941L46.2793 22.5703V19.6348H29.4922V22.4473H43.1504V22.5176L31.6719 45Z" fill="black"/>
</svg>
